<svg width="32" height="33" viewBox="0 0 32 33" fill="none" xmlns="http://www.w3.org/2000/svg">
<path d="M6.66667 25.9923V27.7923C6.66667 28.0811 6.57222 28.32 6.38333 28.5089C6.19444 28.6978 5.95556 28.7923 5.66667 28.7923H5C4.71111 28.7923 4.47222 28.6978 4.28333 28.5089C4.09444 28.32 4 28.0811 4 27.7923V16.9923L6.83333 8.45892C6.94444 8.14781 7.12778 7.90337 7.38333 7.72559C7.63889 7.54781 7.93333 7.45892 8.26667 7.45892H23.7333C24.0667 7.45892 24.3611 7.54781 24.6167 7.72559C24.8722 7.90337 25.0556 8.14781 25.1667 8.45892L28 16.9923V27.7923C28 28.0811 27.9056 28.32 27.7167 28.5089C27.5278 28.6978 27.2889 28.7923 27 28.7923H26.3C26.0111 28.7923 25.7778 28.6978 25.6 28.5089C25.4222 28.32 25.3333 28.0811 25.3333 27.7923V25.9923H6.66667ZM6.76667 14.9923H25.2333L23.4 9.45892H8.6L6.76667 14.9923ZM6 16.9923V23.9923V16.9923ZM9.53333 22.3256C10.0444 22.3256 10.4722 22.1478 10.8167 21.7923C11.1611 21.4367 11.3333 21.0145 11.3333 20.5256C11.3333 20.0145 11.1611 19.5756 10.8167 19.2089C10.4722 18.8423 10.0444 18.6589 9.53333 18.6589C9.02222 18.6589 8.58333 18.8423 8.21667 19.2089C7.85 19.5756 7.66667 20.0145 7.66667 20.5256C7.66667 21.0367 7.85 21.4645 8.21667 21.8089C8.58333 22.1534 9.02222 22.3256 9.53333 22.3256ZM22.5 22.3256C23.0111 22.3256 23.45 22.1478 23.8167 21.7923C24.1833 21.4367 24.3667 21.0145 24.3667 20.5256C24.3667 20.0145 24.1833 19.5756 23.8167 19.2089C23.45 18.8423 23.0111 18.6589 22.5 18.6589C21.9889 18.6589 21.5611 18.8423 21.2167 19.2089C20.8722 19.5756 20.7 20.0145 20.7 20.5256C20.7 21.0367 20.8778 21.4645 21.2333 21.8089C21.5889 22.1534 22.0111 22.3256 22.5 22.3256ZM6 23.9923H26V16.9923H6V23.9923Z" fill="#D01D10"/>
</svg>
