<?xml version="1.0" encoding="utf-8"?>
<!-- Generator: Adobe Illustrator 21.0.0, SVG Export Plug-In . SVG Version: 6.00 Build 0)  -->
<svg version="1.1" id="Layer_1" xmlns="http://www.w3.org/2000/svg" xmlns:xlink="http://www.w3.org/1999/xlink" x="0px" y="0px"
	 viewBox="0 0 64 64" style="enable-background:new 0 0 64 64;" xml:space="preserve">
<style type="text/css">
	.st0{fill:#FFD24F;}
	.st1{fill:#EE3224;}
</style>
<path class="st0" d="M18.5,27C26,27,32,21,32,13.5C32,6,26,0,18.5,0S5,6,5,13.5C5,21,11,27,18.5,27z"/>
<path class="st1" d="M18.8,45.6c-1,0-2-0.3-2.8-0.9c-0.8-0.6-1.5-1.3-1.9-2.3c-0.4-0.9-0.5-1.9-0.3-2.9c0.2-1,0.7-1.9,1.4-2.6
	c0.7-0.7,1.6-1.2,2.6-1.4s2-0.1,2.9,0.3s1.7,1,2.3,1.9c0.6,0.8,0.9,1.8,0.9,2.8c0,1.3-0.5,2.6-1.5,3.6
	C21.4,45.1,20.2,45.6,18.8,45.6z"/>
<path class="st1" d="M44.5,45.6c-1,0-2-0.3-2.8-0.9c-0.8-0.6-1.5-1.3-1.9-2.3c-0.4-0.9-0.5-1.9-0.3-2.9c0.2-1,0.7-1.9,1.4-2.6
	c0.7-0.7,1.6-1.2,2.6-1.4s2-0.1,2.9,0.3s1.7,1,2.3,1.9c0.6,0.8,0.9,1.8,0.9,2.8c0,1.3-0.5,2.6-1.5,3.6S45.8,45.6,44.5,45.6z"/>
<path class="st1" d="M7,28c0-0.8,0.7-1.5,1.5-1.5h40c5.2,0,9.5,4.3,9.5,9.5v1c0,1.9-1.6,3.5-3.5,3.5H48c0-0.7-0.2-1.4-0.6-1.9
	c-0.3-0.4-0.7-0.8-1.1-1.1h8.2c0.3,0,0.5-0.2,0.5-0.5v-1c0-3.6-2.9-6.5-6.5-6.5H10v8h7c-0.3,0.2-0.5,0.3-0.7,0.5
	c-0.5,0.5-0.8,1.1-1,1.8c0,0.2-0.1,0.4-0.1,0.6H8.5C7.7,40.5,7,39.8,7,39V28z M22.4,40.5h18.6c0-0.2,0-0.4,0.1-0.6
	c0.1-0.7,0.5-1.3,1-1.8c0.2-0.2,0.4-0.4,0.7-0.5h-22c0.5,0.3,0.8,0.6,1.1,1.1C22.1,39.1,22.4,39.8,22.4,40.5z"/>
<path class="st1" d="M48.9,28.5c-0.2,0.6-0.8,1-1.4,1h-36c-0.8,0-1.5-0.7-1.5-1.5c0-5.8,4.7-10.5,10.5-10.5h15.2
	c0.3,0,0.7,0.1,0.9,0.3l11.8,9C48.9,27.2,49.1,27.9,48.9,28.5z"/>
</svg>
