<svg width="64" height="64" viewBox="0 0 64 64" fill="none" xmlns="http://www.w3.org/2000/svg">
<path d="M18.5 27C25.9558 27 32 20.9558 32 13.5C32 6.04415 25.9558 0 18.5 0C11.0442 0 5 6.04415 5 13.5C5 20.9558 11.0442 27 18.5 27Z" fill="#FFD24F"/>
<path fill-rule="evenodd" clip-rule="evenodd" d="M19.5967 38.6564C19.2214 38.5009 18.8084 38.4602 18.41 38.5395C18.0115 38.6187 17.6455 38.8144 17.3582 39.1016C17.071 39.3889 16.8753 39.7549 16.7961 40.1533C16.7168 40.5518 16.7575 40.9648 16.913 41.3401C17.0684 41.7154 17.3317 42.0362 17.6695 42.2619C18.0073 42.4876 18.4044 42.6081 18.8107 42.6081C19.3554 42.6081 19.8779 42.3917 20.2631 42.0065C20.6483 41.6213 20.8647 41.0988 20.8647 40.5541C20.8647 40.1478 20.7443 39.7507 20.5186 39.4129C20.2929 39.0751 19.9721 38.8118 19.5967 38.6564ZM18.8107 45.6081C17.8111 45.6081 16.8339 45.3117 16.0028 44.7563C15.1717 44.201 14.5239 43.4117 14.1413 42.4882C13.7588 41.5647 13.6587 40.5484 13.8537 39.5681C14.0487 38.5877 14.5301 37.6871 15.2369 36.9803C15.9437 36.2735 16.8443 35.7921 17.8247 35.5971C18.8051 35.4021 19.8213 35.5022 20.7448 35.8847C21.6683 36.2672 22.4576 36.915 23.013 37.7462C23.5683 38.5773 23.8647 39.5545 23.8647 40.5541C23.8647 41.8945 23.3323 43.18 22.3844 44.1278C21.4366 45.0756 20.1511 45.6081 18.8107 45.6081Z" fill="#323232"/>
<path fill-rule="evenodd" clip-rule="evenodd" d="M45.2725 38.6564C44.8972 38.5009 44.4842 38.4602 44.0857 38.5395C43.6873 38.6187 43.3213 38.8144 43.034 39.1016C42.7468 39.3889 42.5511 39.7549 42.4719 40.1533C42.3926 40.5518 42.4333 40.9648 42.5888 41.3401C42.7442 41.7154 43.0075 42.0362 43.3453 42.2619C43.6831 42.4876 44.0802 42.6081 44.4865 42.6081C45.0312 42.6081 45.5537 42.3917 45.9389 42.0065C46.3241 41.6213 46.5405 41.0988 46.5405 40.5541C46.5405 40.1478 46.42 39.7507 46.1943 39.4129C45.9686 39.0751 45.6478 38.8118 45.2725 38.6564ZM44.4865 45.6081C43.4869 45.6081 42.5097 45.3117 41.6786 44.7563C40.8474 44.201 40.1997 43.4117 39.8171 42.4882C39.4346 41.5647 39.3345 40.5484 39.5295 39.5681C39.7245 38.5877 40.2059 37.6871 40.9127 36.9803C41.6195 36.2735 42.5201 35.7921 43.5005 35.5971C44.4809 35.4021 45.4971 35.5022 46.4206 35.8847C47.3441 36.2672 48.1334 36.915 48.6888 37.7462C49.2441 38.5773 49.5405 39.5545 49.5405 40.5541C49.5405 41.8945 49.008 43.18 48.0602 44.1278C47.1124 45.0756 45.8269 45.6081 44.4865 45.6081Z" fill="#323232"/>
<path fill-rule="evenodd" clip-rule="evenodd" d="M6.99979 27.9977C6.99979 27.1693 7.67136 26.4977 8.49979 26.4977H48.4998C53.7465 26.4977 57.9998 30.751 57.9998 35.9977V36.9977C57.9998 38.9307 56.4328 40.4977 54.4998 40.4977H48.0401C48.0297 39.8136 47.8221 39.1467 47.4415 38.5772C47.1463 38.1354 46.7571 37.7673 46.3042 37.4977H54.4998C54.7759 37.4977 54.9998 37.2738 54.9998 36.9977V35.9977C54.9998 32.4078 52.0896 29.4977 48.4998 29.4977H9.99979V37.4977H16.993C16.741 37.6477 16.5072 37.8291 16.2976 38.0386C15.8005 38.5357 15.462 39.169 15.3249 39.8584C15.2828 40.07 15.2603 40.2839 15.257 40.4977H8.49979C7.67136 40.4977 6.99979 39.8261 6.99979 38.9977V27.9977ZM22.3643 40.4977H40.9328C40.9361 40.2839 40.9586 40.07 41.0007 39.8584C41.1378 39.169 41.4763 38.5357 41.9734 38.0386C42.1829 37.8291 42.4167 37.6477 42.6688 37.4977H20.6284C21.0813 37.7673 21.4706 38.1354 21.7658 38.5772C22.1463 39.1467 22.3539 39.8136 22.3643 40.4977Z" fill="#323232"/>
<path fill-rule="evenodd" clip-rule="evenodd" d="M48.9204 28.4814C48.7141 29.0903 48.1427 29.5 47.4998 29.5H11.4998C10.6714 29.5 9.99979 28.8284 9.99979 28C9.99979 22.201 14.7008 17.5 20.4998 17.5H35.7447C36.0743 17.5 36.3948 17.6086 36.6565 17.809L48.4117 26.809C48.9221 27.1998 49.1268 27.8725 48.9204 28.4814ZM13.1498 26.5H43.0731L35.2364 20.5H20.4998C16.8713 20.5 13.8447 23.0766 13.1498 26.5Z" fill="#323232"/>
</svg>
