<svg width="32" height="33" viewBox="0 0 32 33" fill="none" xmlns="http://www.w3.org/2000/svg">
<path d="M12.6667 14.5256L16 12.8589L19.3333 14.5256V6.79224H12.6667V14.5256ZM9.33333 23.4589V20.7922H16V23.4589H9.33333ZM6 28.7922C5.46667 28.7922 5 28.5922 4.6 28.1922C4.2 27.7922 4 27.3256 4 26.7922V6.79224C4 6.2589 4.2 5.79224 4.6 5.39224C5 4.99224 5.46667 4.79224 6 4.79224H26C26.5333 4.79224 27 4.99224 27.4 5.39224C27.8 5.79224 28 6.2589 28 6.79224V26.7922C28 27.3256 27.8 27.7922 27.4 28.1922C27 28.5922 26.5333 28.7922 26 28.7922H6ZM6 6.79224V26.7922V6.79224ZM6 26.7922H26V6.79224H21.3333V17.7589L16 15.0922L10.6667 17.7589V6.79224H6V26.7922Z" fill="#D01D10"/>
</svg>
