<svg width="33" height="32" viewBox="0 0 33 32" fill="none" xmlns="http://www.w3.org/2000/svg">
<path d="M22.9272 28.935C26.6552 28.935 29.6772 25.9129 29.6772 22.185C29.6772 18.4571 26.6552 15.435 22.9272 15.435C19.1993 15.435 16.1772 18.4571 16.1772 22.185C16.1772 25.9129 19.1993 28.935 22.9272 28.935Z" fill="#FFD24F"/>
<path fill-rule="evenodd" clip-rule="evenodd" d="M14.3423 8.625C14.7565 8.625 15.0923 8.96079 15.0923 9.375V12.1004L16.618 11.5627C16.7793 11.5058 16.9553 11.5058 17.1166 11.5627L18.6423 12.1004V9.375C18.6423 8.96079 18.9781 8.625 19.3923 8.625C19.8065 8.625 20.1423 8.96079 20.1423 9.375V13.16C20.1423 13.4033 20.0242 13.6316 19.8256 13.7722C19.627 13.9128 19.3725 13.9482 19.143 13.8673L16.8673 13.0652L14.5916 13.8673C14.3621 13.9482 14.1076 13.9128 13.909 13.7722C13.7104 13.6316 13.5923 13.4033 13.5923 13.16V9.375C13.5923 8.96079 13.9281 8.625 14.3423 8.625Z" fill="#323232"/>
<path fill-rule="evenodd" clip-rule="evenodd" d="M7.28723 9.375C7.28723 8.96079 7.62302 8.625 8.03723 8.625H14.3422C14.7564 8.625 15.0922 8.96079 15.0922 9.375C15.0922 9.78921 14.7564 10.125 14.3422 10.125H8.78723V24.395H24.9472V10.125H20.0222C19.608 10.125 19.2722 9.78921 19.2722 9.375C19.2722 8.96079 19.608 8.625 20.0222 8.625H25.6972C26.1114 8.625 26.4472 8.96079 26.4472 9.375V25.145C26.4472 25.5592 26.1114 25.895 25.6972 25.895H8.03723C7.62302 25.895 7.28723 25.5592 7.28723 25.145V9.375Z" fill="#323232"/>
<path fill-rule="evenodd" clip-rule="evenodd" d="M10.0324 6.32431C10.173 6.18398 10.3636 6.10516 10.5622 6.10516H23.8072C24.0433 6.10516 24.2656 6.21631 24.4072 6.40516L26.2972 8.92516C26.5458 9.25654 26.4786 9.72664 26.1472 9.97516C25.8159 10.2237 25.3458 10.1565 25.0972 9.82516L23.4322 7.60516H10.8725L8.56704 9.90602C8.27385 10.1986 7.79898 10.1982 7.50638 9.90497C7.21377 9.61178 7.21424 9.13691 7.50743 8.84431L10.0324 6.32431Z" fill="#323232"/>
<path fill-rule="evenodd" clip-rule="evenodd" d="M15.1605 6.12771C15.5621 6.22892 15.8057 6.63658 15.7045 7.03824L15.0695 9.55824C14.9683 9.95989 14.5606 10.2035 14.159 10.1022C13.7573 10.001 13.5137 9.59337 13.615 9.19172L14.25 6.67172C14.3512 6.27006 14.7588 6.0265 15.1605 6.12771Z" fill="#323232"/>
<path fill-rule="evenodd" clip-rule="evenodd" d="M18.574 6.12771C18.9757 6.0265 19.3833 6.27006 19.4845 6.67172L20.1195 9.19172C20.2207 9.59337 19.9772 10.001 19.5755 10.1022C19.1739 10.2035 18.7662 9.95989 18.665 9.55824L18.03 7.03824C17.9288 6.63658 18.1723 6.22892 18.574 6.12771Z" fill="#323232"/>
<path fill-rule="evenodd" clip-rule="evenodd" d="M10.582 21.9883C10.582 21.5741 10.9178 21.2383 11.332 21.2383H13.237C13.6512 21.2383 13.987 21.5741 13.987 21.9883C13.987 22.4025 13.6512 22.7383 13.237 22.7383H11.332C10.9178 22.7383 10.582 22.4025 10.582 21.9883Z" fill="#323232"/>
<path fill-rule="evenodd" clip-rule="evenodd" d="M10.582 19.5664C10.582 19.1522 10.9178 18.8164 11.332 18.8164H14.522C14.9362 18.8164 15.272 19.1522 15.272 19.5664C15.272 19.9806 14.9362 20.3164 14.522 20.3164H11.332C10.9178 20.3164 10.582 19.9806 10.582 19.5664Z" fill="#323232"/>
</svg>
