<svg width="64" height="64" viewBox="0 0 64 64" fill="none" xmlns="http://www.w3.org/2000/svg">
<path d="M44.12 57.87C51.5758 57.87 57.62 51.8258 57.62 44.37C57.62 36.9141 51.5758 30.87 44.12 30.87C36.6641 30.87 30.62 36.9141 30.62 44.37C30.62 51.8258 36.6641 57.87 44.12 57.87Z" fill="#FFD24F"/>
<path fill-rule="evenodd" clip-rule="evenodd" d="M26.95 17.25C27.7784 17.25 28.45 17.9216 28.45 18.75V24.2008L31.5014 23.1253C31.8241 23.0116 32.1759 23.0116 32.4986 23.1253L35.55 24.2008V18.75C35.55 17.9216 36.2216 17.25 37.05 17.25C37.8784 17.25 38.55 17.9216 38.55 18.75V26.32C38.55 26.8067 38.3139 27.2631 37.9166 27.5443C37.5194 27.8255 37.0104 27.8965 36.5514 27.7347L32 26.1305L27.4486 27.7347C26.9896 27.8965 26.4806 27.8255 26.0834 27.5443C25.6861 27.2631 25.45 26.8067 25.45 26.32V18.75C25.45 17.9216 26.1216 17.25 26.95 17.25Z" fill="#EE3224"/>
<path fill-rule="evenodd" clip-rule="evenodd" d="M26.9503 17.249C27.7788 17.249 28.4503 17.9206 28.4503 18.749V24.1999L31.5017 23.1243C31.8244 23.0106 32.1763 23.0106 32.499 23.1243L35.5503 24.1999V18.749C35.5503 17.9206 36.2219 17.249 37.0503 17.249C37.8788 17.249 38.5503 17.9206 38.5503 18.749V26.319C38.5503 26.8057 38.3142 27.2622 37.917 27.5434C37.5197 27.8245 37.0107 27.8955 36.5517 27.7337L32.0003 26.1295L27.449 27.7337C26.99 27.8955 26.481 27.8245 26.0837 27.5434C25.6865 27.2622 25.4503 26.8057 25.4503 26.319V18.749C25.4503 17.9206 26.1219 17.249 26.9503 17.249Z" fill="#EE3224"/>
<path fill-rule="evenodd" clip-rule="evenodd" d="M12.84 19.75C12.84 18.9216 13.5116 18.25 14.34 18.25H26.95C27.7784 18.25 28.45 18.9216 28.45 19.75C28.45 20.5784 27.7784 21.25 26.95 21.25H15.84V48.79H48.16V21.25H38.31C37.4816 21.25 36.81 20.5784 36.81 19.75C36.81 18.9216 37.4816 18.25 38.31 18.25H49.66C50.4884 18.25 51.16 18.9216 51.16 19.75V50.29C51.16 51.1184 50.4884 51.79 49.66 51.79H14.34C13.5116 51.79 12.84 51.1184 12.84 50.29V19.75Z" fill="#EE3224"/>
<path fill-rule="evenodd" clip-rule="evenodd" d="M18.2392 12.7478C18.5242 12.4069 18.9457 12.21 19.39 12.21H45.88C46.3969 12.21 46.8773 12.4761 47.1515 12.9142L50.9315 18.9542C51.371 19.6564 51.158 20.582 50.4558 21.0215C49.7535 21.461 48.828 21.248 48.3885 20.5457L45.0492 15.21H20.0911L15.4908 20.7121C14.9594 21.3477 14.0134 21.4321 13.3779 20.9007C12.7423 20.3694 12.6579 19.4234 13.1892 18.7878L18.2392 12.7478Z" fill="#EE3224"/>
<path fill-rule="evenodd" clip-rule="evenodd" d="M28.5865 12.2554C29.3898 12.4578 29.877 13.2732 29.6745 14.0765L28.4045 19.1165C28.2021 19.9198 27.3868 20.4069 26.5835 20.2045C25.7802 20.0021 25.293 19.1867 25.4955 18.3834L26.7655 13.3434C26.9679 12.5401 27.7832 12.053 28.5865 12.2554Z" fill="#EE3224"/>
<path fill-rule="evenodd" clip-rule="evenodd" d="M35.4135 12.2554C36.2168 12.053 37.0321 12.5401 37.2345 13.3434L38.5045 18.3834C38.707 19.1867 38.2198 20.0021 37.4165 20.2045C36.6132 20.4069 35.7979 19.9198 35.5955 19.1165L34.3255 14.0765C34.123 13.2732 34.6102 12.4578 35.4135 12.2554Z" fill="#EE3224"/>
<path fill-rule="evenodd" clip-rule="evenodd" d="M49.66 18.749H37.0503V26.319L32.0003 24.539L26.9503 26.319V18.749H14.34V50.289H49.66V18.749ZM19.4297 43.9766C19.4297 43.1481 20.1013 42.4766 20.9297 42.4766H24.7397C25.5681 42.4766 26.2397 43.1481 26.2397 43.9766C26.2397 44.805 25.5681 45.4766 24.7397 45.4766H20.9297C20.1013 45.4766 19.4297 44.805 19.4297 43.9766ZM20.9297 37.6328C20.1013 37.6328 19.4297 38.3044 19.4297 39.1328C19.4297 39.9612 20.1013 40.6328 20.9297 40.6328H27.3097C28.1381 40.6328 28.8097 39.9612 28.8097 39.1328C28.8097 38.3044 28.1381 37.6328 27.3097 37.6328H20.9297Z" fill="#EE3224"/>
</svg>
