<svg width="64" height="64" viewBox="0 0 64 64" fill="none" xmlns="http://www.w3.org/2000/svg">
<path d="M44.12 57.87C51.5758 57.87 57.62 51.8258 57.62 44.37C57.62 36.9141 51.5758 30.87 44.12 30.87C36.6641 30.87 30.62 36.9141 30.62 44.37C30.62 51.8258 36.6641 57.87 44.12 57.87Z" fill="#FFD24F"/>
<path fill-rule="evenodd" clip-rule="evenodd" d="M26.95 17.25C27.7784 17.25 28.45 17.9216 28.45 18.75V24.2008L31.5014 23.1253C31.8241 23.0116 32.176 23.0116 32.4987 23.1253L35.55 24.2008V18.75C35.55 17.9216 36.2216 17.25 37.05 17.25C37.8784 17.25 38.55 17.9216 38.55 18.75V26.32C38.55 26.8067 38.3139 27.2631 37.9166 27.5443C37.5194 27.8255 37.0104 27.8965 36.5514 27.7347L32 26.1305L27.4487 27.7347C26.9896 27.8965 26.4807 27.8255 26.0834 27.5443C25.6861 27.2631 25.45 26.8067 25.45 26.32V18.75C25.45 17.9216 26.1216 17.25 26.95 17.25Z" fill="#323232"/>
<path fill-rule="evenodd" clip-rule="evenodd" d="M12.84 18.75C12.84 17.9216 13.5116 17.25 14.34 17.25H26.95C27.7784 17.25 28.45 17.9216 28.45 18.75C28.45 19.5784 27.7784 20.25 26.95 20.25H15.84V48.79H48.16V20.25H38.31C37.4816 20.25 36.81 19.5784 36.81 18.75C36.81 17.9216 37.4816 17.25 38.31 17.25H49.66C50.4884 17.25 51.16 17.9216 51.16 18.75V50.29C51.16 51.1184 50.4884 51.79 49.66 51.79H14.34C13.5116 51.79 12.84 51.1184 12.84 50.29V18.75Z" fill="#323232"/>
<path fill-rule="evenodd" clip-rule="evenodd" d="M18.3304 12.6483C18.6116 12.3676 18.9927 12.21 19.39 12.21H45.88C46.3521 12.21 46.7967 12.4323 47.08 12.81L50.86 17.85C51.3571 18.5127 51.2227 19.4529 50.56 19.95C49.8973 20.447 48.9571 20.3127 48.46 19.65L45.13 15.21H20.0104L15.3996 19.8117C14.8132 20.3969 13.8635 20.3959 13.2783 19.8096C12.6931 19.2232 12.694 18.2735 13.2804 17.6883L18.3304 12.6483Z" fill="#323232"/>
<path fill-rule="evenodd" clip-rule="evenodd" d="M28.5865 12.2554C29.3898 12.4578 29.877 13.2732 29.6745 14.0765L28.4045 19.1165C28.2021 19.9198 27.3868 20.4069 26.5835 20.2045C25.7802 20.0021 25.293 19.1867 25.4955 18.3834L26.7655 13.3434C26.9679 12.5401 27.7832 12.053 28.5865 12.2554Z" fill="#323232"/>
<path fill-rule="evenodd" clip-rule="evenodd" d="M35.4135 12.2554C36.2168 12.053 37.0321 12.5401 37.2345 13.3434L38.5045 18.3834C38.7069 19.1867 38.2198 20.0021 37.4165 20.2045C36.6132 20.4069 35.7979 19.9198 35.5955 19.1165L34.3255 14.0765C34.123 13.2732 34.6102 12.4578 35.4135 12.2554Z" fill="#323232"/>
<path fill-rule="evenodd" clip-rule="evenodd" d="M19.4297 43.9766C19.4297 43.1481 20.1013 42.4766 20.9297 42.4766H24.7397C25.5681 42.4766 26.2397 43.1481 26.2397 43.9766C26.2397 44.805 25.5681 45.4766 24.7397 45.4766H20.9297C20.1013 45.4766 19.4297 44.805 19.4297 43.9766Z" fill="#323232"/>
<path fill-rule="evenodd" clip-rule="evenodd" d="M19.4297 39.1328C19.4297 38.3044 20.1013 37.6328 20.9297 37.6328H27.3097C28.1381 37.6328 28.8097 38.3044 28.8097 39.1328C28.8097 39.9612 28.1381 40.6328 27.3097 40.6328H20.9297C20.1013 40.6328 19.4297 39.9612 19.4297 39.1328Z" fill="#323232"/>
</svg>
