<svg width="65" height="64" viewBox="0 0 65 64" fill="none" xmlns="http://www.w3.org/2000/svg">
<path d="M44.3198 57.87C51.7757 57.87 57.8198 51.8258 57.8198 44.37C57.8198 36.9141 51.7757 30.87 44.3198 30.87C36.864 30.87 30.8198 36.9141 30.8198 44.37C30.8198 51.8258 36.864 57.87 44.3198 57.87Z" fill="#FFD24F"/>
<path fill-rule="evenodd" clip-rule="evenodd" d="M27.1494 17.25C27.9778 17.25 28.6494 17.9216 28.6494 18.75V24.2008L31.7008 23.1253C32.0235 23.0116 32.3754 23.0116 32.6981 23.1253L35.7494 24.2008V18.75C35.7494 17.9216 36.421 17.25 37.2494 17.25C38.0778 17.25 38.7494 17.9216 38.7494 18.75V26.32C38.7494 26.8067 38.5133 27.2631 38.116 27.5443C37.7188 27.8255 37.2098 27.8965 36.7508 27.7347L32.1994 26.1305L27.6481 27.7347C27.189 27.8965 26.6801 27.8255 26.2828 27.5443C25.8855 27.2631 25.6494 26.8067 25.6494 26.32V18.75C25.6494 17.9216 26.321 17.25 27.1494 17.25Z" fill="#EE3224"/>
<path fill-rule="evenodd" clip-rule="evenodd" d="M27.1499 17.2491C27.9783 17.2491 28.6499 17.9207 28.6499 18.7491V24.1999L31.7013 23.1244C32.024 23.0106 32.3758 23.0106 32.6985 23.1244L35.7499 24.1999V18.7491C35.7499 17.9207 36.4215 17.2491 37.2499 17.2491C38.0783 17.2491 38.7499 17.9207 38.7499 18.7491V26.3191C38.7499 26.8058 38.5138 27.2622 38.1165 27.5434C37.7193 27.8246 37.2103 27.8956 36.7513 27.7338L32.1999 26.1295L27.6485 27.7338C27.1895 27.8956 26.6805 27.8246 26.2833 27.5434C25.886 27.2622 25.6499 26.8058 25.6499 26.3191V18.7491C25.6499 17.9207 26.3215 17.2491 27.1499 17.2491Z" fill="#EE3224"/>
<path fill-rule="evenodd" clip-rule="evenodd" d="M13.0396 19.75C13.0396 18.9216 13.7111 18.25 14.5396 18.25H27.1496C27.978 18.25 28.6496 18.9216 28.6496 19.75C28.6496 20.5784 27.978 21.25 27.1496 21.25H16.0396V48.79H48.3596V21.25H38.5096C37.6811 21.25 37.0096 20.5784 37.0096 19.75C37.0096 18.9216 37.6811 18.25 38.5096 18.25H49.8596C50.688 18.25 51.3596 18.9216 51.3596 19.75V50.29C51.3596 51.1184 50.688 51.79 49.8596 51.79H14.5396C13.7111 51.79 13.0396 51.1184 13.0396 50.29V19.75Z" fill="#EE3224"/>
<path fill-rule="evenodd" clip-rule="evenodd" d="M18.4388 12.7479C18.7238 12.407 19.1453 12.21 19.5896 12.21H46.0796C46.5965 12.21 47.0769 12.4761 47.3511 12.9143L51.1311 18.9543C51.5706 19.6565 51.3576 20.5821 50.6553 21.0215C49.9531 21.461 49.0275 21.248 48.5881 20.5458L45.2488 15.21H20.2907L15.6904 20.7122C15.159 21.3477 14.213 21.4322 13.5774 20.9008C12.9419 20.3694 12.8574 19.4234 13.3888 18.7879L18.4388 12.7479Z" fill="#EE3224"/>
<path fill-rule="evenodd" clip-rule="evenodd" d="M28.7863 12.2555C29.5896 12.4579 30.0767 13.2732 29.8743 14.0765L28.6043 19.1165C28.4019 19.9198 27.5866 20.407 26.7833 20.2045C25.9799 20.0021 25.4928 19.1868 25.6952 18.3835L26.9652 13.3435C27.1677 12.5402 27.983 12.0531 28.7863 12.2555Z" fill="#EE3224"/>
<path fill-rule="evenodd" clip-rule="evenodd" d="M35.6128 12.2555C36.4162 12.0531 37.2315 12.5402 37.4339 13.3435L38.7039 18.3835C38.9063 19.1868 38.4192 20.0021 37.6159 20.2045C36.8126 20.407 35.9973 19.9198 35.7948 19.1165L34.5248 14.0765C34.3224 13.2732 34.8095 12.4579 35.6128 12.2555Z" fill="#EE3224"/>
<path fill-rule="evenodd" clip-rule="evenodd" d="M49.8596 18.749H37.2499V26.319L32.1999 24.539L27.1499 26.319V18.749H14.5396V50.289H49.8596V18.749ZM19.6292 43.9766C19.6292 43.1481 20.3008 42.4766 21.1292 42.4766H24.9392C25.7677 42.4766 26.4392 43.1481 26.4392 43.9766C26.4392 44.805 25.7677 45.4766 24.9392 45.4766H21.1292C20.3008 45.4766 19.6292 44.805 19.6292 43.9766ZM21.1292 37.6328C20.3008 37.6328 19.6292 38.3044 19.6292 39.1328C19.6292 39.9612 20.3008 40.6328 21.1292 40.6328H27.5092C28.3377 40.6328 29.0092 39.9612 29.0092 39.1328C29.0092 38.3044 28.3377 37.6328 27.5092 37.6328H21.1292Z" fill="#EE3224"/>
</svg>
