<svg width="48" height="49" viewBox="0 0 48 49" fill="none" xmlns="http://www.w3.org/2000/svg">
<path d="M19 33.7922C18.45 33.7922 17.9793 33.5966 17.588 33.2052C17.196 32.8132 17 32.3422 17 31.7922V18.7922H16V16.7922H21V15.7922H27V16.7922H32V18.7922H31V31.7922C31 32.3422 30.8043 32.8132 30.413 33.2052C30.021 33.5966 29.55 33.7922 29 33.7922H19ZM29 18.7922H19V31.7922H29V18.7922ZM21 29.7922H23V20.7922H21V29.7922ZM25 29.7922H27V20.7922H25V29.7922Z" fill="#EE3224"/>
<rect x="1" y="1.79224" width="46" height="46" rx="5" stroke="#EE3224" stroke-width="2"/>
</svg>
