<svg width="101" height="80" viewBox="0 0 101 80" fill="none" xmlns="http://www.w3.org/2000/svg">
<rect x="0.367188" width="100" height="80" rx="5" fill="#FFCC00"/>
<g clip-path="url(#clip0_3218_15446)">
<path d="M38.3114 38.7419C38.0018 39.129 37.4987 39.8258 37.2278 40.2516C37.0729 40.4452 36.802 40.8323 37.7309 40.8323C38.6984 40.8323 42.5687 40.8323 42.5687 40.8323C42.5687 40.8323 43.3427 39.7871 44.0007 38.8967C44.8908 37.6967 44.0781 35.1804 40.9045 35.1804C38.0405 35.1804 28.3649 35.1804 28.3649 35.1804L26.1976 38.1225C26.1976 38.1225 37.46 38.1225 38.0405 38.1225C38.5823 38.1225 38.5823 38.3548 38.3114 38.7419ZM34.7508 41.5678C33.8219 41.5678 34.0929 41.1807 34.2477 40.9872C34.5573 40.5613 35.0604 39.9032 35.37 39.4774C35.6797 39.0903 35.6797 38.858 35.0604 38.858C34.4799 38.858 29.6421 38.858 29.6421 38.858L25.2687 44.8196C25.2687 44.8196 33.0479 44.8196 35.9119 44.8196C39.4338 44.8196 41.3689 42.4195 41.9881 41.6065C41.9881 41.5678 35.7184 41.5678 34.7508 41.5678ZM41.6785 44.8196H47.9096L50.2704 41.6065H44.0394C44.0394 41.5678 41.6785 44.8196 41.6785 44.8196ZM57.7787 35.1804L55.3792 38.4322H52.5926L54.9921 35.1804H48.761L44.5812 40.871H59.8686L64.0098 35.1804H57.7787ZM50.6962 44.8196H56.9272L59.2881 41.6065H53.057C53.057 41.5678 50.6962 44.8196 50.6962 44.8196ZM16.3672 42.8453V43.5421H25.0752L25.5783 42.8453H16.3672ZM26.5072 41.5678H16.3672V42.2646H26.0041L26.5072 41.5678ZM16.3672 44.8196H24.1464L24.6495 44.1228H16.3672V44.8196ZM75.2335 43.5421H84.4059V42.8453H75.7366L75.2335 43.5421ZM74.3046 44.8196H84.4059V44.1228H74.8077L74.3046 44.8196ZM76.6654 41.5678L76.1623 42.2646H84.4059V41.5678H76.6654ZM68.4992 40.871L72.6404 35.1804H66.0223L61.8424 40.871H68.4992ZM61.3393 41.5678C61.3393 41.5678 60.8749 42.1872 60.6427 42.4969C59.8686 43.5421 60.5653 44.7809 63.1196 44.7809C66.061 44.7809 73.1435 44.7809 73.1435 44.7809L75.5044 41.5678H61.3393Z" fill="#D50029"/>
</g>
<defs>
<clipPath id="clip0_3218_15446">
<rect width="68" height="9.63918" fill="white" transform="translate(16.3672 35.1804)"/>
</clipPath>
</defs>
</svg>
