<svg width="24" height="25" viewBox="0 0 24 25" fill="none" xmlns="http://www.w3.org/2000/svg">
<path d="M3.5 20.7922C3.1 20.7922 2.75 20.6422 2.45 20.3422C2.15 20.0422 2 19.6922 2 19.2922V6.29224C2 5.89224 2.15 5.54224 2.45 5.24224C2.75 4.94224 3.1 4.79224 3.5 4.79224H20.5C20.9 4.79224 21.25 4.94224 21.55 5.24224C21.85 5.54224 22 5.89224 22 6.29224V19.2922C22 19.6922 21.85 20.0422 21.55 20.3422C21.25 20.6422 20.9 20.7922 20.5 20.7922H3.5ZM12 13.2422L3.5 7.66724V19.2922H20.5V7.66724L12 13.2422ZM12 11.7422L20.4 6.29224H3.625L12 11.7422ZM3.5 7.66724V6.29224V19.2922V7.66724Z" fill="#323232"/>
</svg>
