<svg width="64" height="64" viewBox="0 0 64 64" fill="none" xmlns="http://www.w3.org/2000/svg">
<path d="M50.5 60C57.9558 60 64 53.9558 64 46.5C64 39.0442 57.9558 33 50.5 33C43.0442 33 37 39.0442 37 46.5C37 53.9558 43.0442 60 50.5 60Z" fill="#FFD24F"/>
<path fill-rule="evenodd" clip-rule="evenodd" d="M10 13C8.34315 13 7 14.3431 7 16V48C7 49.6569 8.34315 51 10 51H54C55.6569 51 57 49.6569 57 48V16C57 14.3431 55.6569 13 54 13H10ZM9.85645 21.4201L31.1433 36.2283C31.6581 36.5865 32.3415 36.5865 32.8564 36.2283L54.1433 21.4201V17.7656L31.9998 33.1697L9.85645 17.7656V21.4201Z" fill="#EE3224"/>
</svg>
