<svg width="33" height="32" viewBox="0 0 33 32" fill="none" xmlns="http://www.w3.org/2000/svg">
<g clip-path="url(#clip0_3218_15345)">
<path d="M26.1172 30C29.8451 30 32.8672 26.9779 32.8672 23.25C32.8672 19.5221 29.8451 16.5 26.1172 16.5C22.3893 16.5 19.3672 19.5221 19.3672 23.25C19.3672 26.9779 22.3893 30 26.1172 30Z" fill="#FFD24F"/>
<path fill-rule="evenodd" clip-rule="evenodd" d="M4.75145 9.07171C4.988 8.73168 5.4554 8.64778 5.79543 8.88433L16.8671 16.5864L27.9388 8.88433C28.2789 8.64778 28.7463 8.73168 28.9828 9.07171C29.2194 9.41174 29.1355 9.87914 28.7954 10.1157L17.2954 18.1157C17.038 18.2948 16.6963 18.2948 16.4388 18.1157L4.93883 10.1157C4.5988 9.87914 4.51491 9.41174 4.75145 9.07171Z" fill="#323232"/>
<path fill-rule="evenodd" clip-rule="evenodd" d="M27.8672 8H5.86719V24H27.8672V8ZM5.86719 6.5C5.03876 6.5 4.36719 7.17157 4.36719 8V24C4.36719 24.8284 5.03876 25.5 5.86719 25.5H27.8672C28.6956 25.5 29.3672 24.8284 29.3672 24V8C29.3672 7.17157 28.6956 6.5 27.8672 6.5H5.86719Z" fill="#323232"/>
</g>
<defs>
<clipPath id="clip0_3218_15345">
<rect width="32" height="32" fill="white" transform="translate(0.867188)"/>
</clipPath>
</defs>
</svg>
