<svg width="65" height="64" viewBox="0 0 65 64" fill="none" xmlns="http://www.w3.org/2000/svg">
<g clip-path="url(#clip0_3650_397)">
<path d="M50.8999 60C58.3557 60 64.3999 53.9558 64.3999 46.5C64.3999 39.0442 58.3557 33 50.8999 33C43.4441 33 37.3999 39.0442 37.3999 46.5C37.3999 53.9558 43.4441 60 50.8999 60Z" fill="#FFD24F"/>
<path fill-rule="evenodd" clip-rule="evenodd" d="M8.16868 18.1434C8.64176 17.4634 9.57657 17.2956 10.2566 17.7687L32.4 33.1728L54.5434 17.7687C55.2235 17.2956 56.1583 17.4634 56.6314 18.1434C57.1045 18.8235 56.9367 19.7583 56.2566 20.2314L33.2566 36.2314C32.7417 36.5896 32.0583 36.5896 31.5434 36.2314L8.54344 20.2314C7.86338 19.7583 7.69559 18.8235 8.16868 18.1434Z" fill="#323232"/>
<path fill-rule="evenodd" clip-rule="evenodd" d="M54.3999 16H10.3999V48H54.3999V16ZM10.3999 13C8.74305 13 7.3999 14.3431 7.3999 16V48C7.3999 49.6569 8.74305 51 10.3999 51H54.3999C56.0568 51 57.3999 49.6569 57.3999 48V16C57.3999 14.3431 56.0568 13 54.3999 13H10.3999Z" fill="#323232"/>
</g>
<defs>
<clipPath id="clip0_3650_397">
<rect width="64" height="64" fill="white" transform="translate(0.399902)"/>
</clipPath>
</defs>
</svg>
