<svg width="101" height="80" viewBox="0 0 101 80" fill="none" xmlns="http://www.w3.org/2000/svg">
<rect x="0.367188" width="100" height="80" rx="5" fill="#2A007C"/>
<g clip-path="url(#clip0_3218_15391)">
<path d="M69.0932 32.4141L71.5511 35.1229L73.9174 32.4141H78.9702L74.0321 37.9671L79.0379 43.5654H73.7812L71.3464 40.8352L68.9339 43.5654H63.858L68.82 37.9902L63.858 32.4141H69.0932Z" fill="#FF5900"/>
<path d="M63.8579 32.4147V36.1824H58.2381V39.6398H63.8579V43.566H54.108V26.0001H63.8579V29.9155H58.2381V32.4147H63.8579Z" fill="#FF5900"/>
<path d="M49.99 26.0001V33.1889H49.9446C49.0334 32.1423 47.8961 31.7783 46.5763 31.7783C43.8725 31.7783 41.8355 33.6172 41.1208 36.047C40.3045 33.3696 38.2015 31.728 35.0833 31.728C32.5512 31.728 30.5513 32.8645 29.5081 34.7166V32.4147H24.2737V29.9155H29.986V26.0001H19.608L19.608 43.566H24.2737L24.2737 36.1824H28.9246C28.7859 36.7247 28.7116 37.3057 28.7116 37.9189C28.7116 41.5827 31.5112 44.1545 35.0833 44.1545C38.0876 44.1545 40.0676 42.7439 41.1142 40.173H37.1154C36.5748 40.9463 36.1646 41.1749 35.0833 41.1749C33.8296 41.1749 32.7484 40.0814 32.7484 38.7847H40.8905C41.2438 41.6949 43.511 44.2048 46.6217 44.2048C47.9638 44.2048 49.1927 43.5445 49.9438 42.4303H49.9892V43.5676L54.1019 43.5676V26.0001L49.99 26.0001ZM32.8788 36.2344C33.138 35.1185 34.0038 34.3897 35.0842 34.3897C36.2735 34.3897 37.0947 35.0962 37.311 36.2344C37.4018 36.2344 32.8788 36.2344 32.8788 36.2344ZM47.4933 40.8919C45.9771 40.8919 45.0346 39.4789 45.0346 38.004C45.0346 36.4275 45.8542 34.9114 47.4933 34.9114C49.1927 34.9114 49.8695 36.4275 49.8695 38.004C49.8695 39.4987 49.1523 40.8919 47.4933 40.8919Z" fill="white"/>
<path d="M54.108 52.3497V46.0547H57.5861V46.5244H54.6817V48.8453H57.4631V49.3149H54.6817V51.8784H57.7156V52.3489H54.108V52.3497Z" fill="white"/>
<path d="M58.1237 52.3523L59.8198 50.0917L58.2111 47.9532H58.8632L60.1763 49.7005L61.463 47.9532H62.1151L60.4809 50.0917L62.1844 52.3523H61.5241L60.1152 50.4821L58.7765 52.3523H58.1237Z" fill="white"/>
<path d="M63.2901 53.9976H62.7594V49.2609C62.7594 48.826 62.7594 48.3836 62.733 47.9478H63.2555L63.2728 48.6089C63.6021 48.0865 64.0371 47.8438 64.6899 47.8438C66.046 47.8438 66.6279 48.9646 66.6279 50.1465C66.6279 51.3301 66.046 52.4509 64.6899 52.4509C64.0808 52.4509 63.603 52.2165 63.2901 51.7114V53.9976ZM66.0633 50.1465C66.0633 49.2081 65.6713 48.2862 64.6289 48.2862C63.6467 48.2862 63.2901 49.095 63.2901 50.1465C63.2901 51.1989 63.6467 52.0069 64.6289 52.0069C65.6721 52.0069 66.0633 51.0858 66.0633 50.1465Z" fill="white"/>
<path d="M69.3557 48.3555C68.4775 48.3555 68.1721 49.095 68.1721 49.8593V52.3469H67.6414V49.242C67.6414 48.8161 67.6332 48.3828 67.6158 47.9478H68.1391L68.173 48.5825C68.4338 48.079 68.8696 47.8438 69.4514 47.8438C69.5298 47.8438 69.6165 47.8521 69.6949 47.8611V48.3918C69.5728 48.3729 69.477 48.3555 69.3557 48.3555Z" fill="white"/>
<path d="M70.3469 50.2423C70.3469 51.2327 70.8157 52.0498 71.7806 52.0498C72.5275 52.0498 72.8758 51.5546 73.0062 51.0594H73.5105C73.2753 51.9805 72.7099 52.4509 71.7104 52.4509C70.3717 52.4509 69.7799 51.4597 69.7799 50.2258C69.7799 48.9655 70.3973 47.8438 71.7797 47.8438C73.1795 47.8438 73.5534 49.0686 73.5534 50.2423H70.3469ZM70.3634 49.8428H72.9889C72.9889 48.982 72.5811 48.2433 71.7459 48.2433C70.9899 48.2425 70.4674 48.8161 70.3634 49.8428Z" fill="white"/>
<path d="M75.6269 52.4509C74.7231 52.4509 74.0455 52.0242 74.0455 51.0594H74.5762C74.5762 51.7197 75.0104 52.0498 75.6541 52.0498C76.2542 52.0498 76.723 51.7626 76.723 51.1733C76.723 50.6426 76.1758 50.5031 75.6021 50.338C74.9072 50.1383 74.1504 49.9204 74.1504 49.0686C74.1504 48.122 74.941 47.8438 75.6806 47.8438C76.5315 47.8438 77.167 48.1731 77.1926 49.086H76.6619C76.6363 48.5652 76.2624 48.2697 75.6971 48.2697C75.2538 48.2697 74.7149 48.443 74.7149 49.0166C74.7149 49.5391 75.2538 49.6868 75.8275 49.8428C76.5241 50.0335 77.2883 50.2423 77.2883 51.0949C77.2875 52.0853 76.5232 52.4509 75.6269 52.4509Z" fill="white"/>
<path d="M79.2996 52.4509C78.395 52.4509 77.7174 52.0242 77.7174 51.0594H78.2481C78.2481 51.7197 78.6822 52.0498 79.3268 52.0498C79.9269 52.0498 80.3957 51.7626 80.3957 51.1733C80.3957 50.6426 79.8476 50.5031 79.274 50.338C78.5791 50.1383 77.8231 49.9204 77.8231 49.0686C77.8231 48.122 78.6137 47.8438 79.3533 47.8438C80.2042 47.8438 80.8397 48.1731 80.8653 49.086H80.3346C80.309 48.5652 79.9351 48.2697 79.3698 48.2697C78.9265 48.2697 78.3876 48.443 78.3876 49.0166C78.3876 49.5391 78.9265 49.6868 79.501 49.8428C80.1968 50.0335 80.9619 50.2423 80.9619 51.0949C80.9602 52.0853 80.1951 52.4509 79.2996 52.4509Z" fill="white"/>
</g>
<defs>
<clipPath id="clip0_3218_15391">
<rect width="61.5183" height="28" fill="white" transform="translate(19.608 26)"/>
</clipPath>
</defs>
</svg>
