<svg width="64" height="64" viewBox="0 0 64 64" fill="none" xmlns="http://www.w3.org/2000/svg">
<path d="M18.5 27C25.9558 27 32 20.9558 32 13.5C32 6.04415 25.9558 0 18.5 0C11.0442 0 5 6.04415 5 13.5C5 20.9558 11.0442 27 18.5 27Z" fill="#FFD24F"/>
<path fill-rule="evenodd" clip-rule="evenodd" d="M11.5 15C11.5 11.9624 13.9624 9.5 17 9.5H47C50.0376 9.5 52.5 11.9624 52.5 15V24H49.5V15C49.5 13.6193 48.3807 12.5 47 12.5H17C15.6193 12.5 14.5 13.6193 14.5 15V24H11.5V15Z" fill="#EE3224"/>
<path d="M47 11H17C14.7909 11 13 12.7909 13 15V21.4698C13 22.9917 13.9441 24.354 15.3691 24.8884C16.4007 25.2753 17.2024 26.1072 17.5508 27.1524L18.3013 29.404C18.4329 29.7987 18.5 30.2122 18.5 30.6283C18.5 32.7666 20.2334 34.5 22.3717 34.5H41.3195C43.3998 34.5 45.1329 32.9053 45.3057 30.8322L45.4227 29.4276C45.4736 28.8174 45.6638 28.2269 45.9789 27.7018L46.4007 26.9988C46.7921 26.3465 47.3614 25.8193 48.0418 25.4791L48.7889 25.1056C50.144 24.428 51 23.043 51 21.5279V15C51 12.7909 49.2091 11 47 11Z" fill="#EE3224"/>
<path fill-rule="evenodd" clip-rule="evenodd" d="M8.50144 24.5014C9.78293 23.2199 11.521 22.5 13.3333 22.5C15.1456 22.5 16.8837 23.2199 18.1652 24.5014C19.4467 25.7829 20.1667 27.521 20.1667 29.3333V33.1667H43.8333V29.3333C43.8333 27.521 44.5533 25.7829 45.8348 24.5014C47.1163 23.2199 48.8544 22.5 50.6667 22.5C52.479 22.5 54.2171 23.2199 55.4986 24.5014C56.7801 25.7829 57.5 27.521 57.5 29.3333V42.6667C57.5 44.479 56.7801 46.2171 55.4986 47.4986C54.2171 48.7801 52.479 49.5 50.6667 49.5H13.3333C11.521 49.5 9.78293 48.7801 8.50144 47.4986C7.21994 46.2171 6.5 44.479 6.5 42.6667V29.3333C6.5 27.521 7.21994 25.7829 8.50144 24.5014ZM13.3333 25.5C12.3167 25.5 11.3416 25.9039 10.6228 26.6228C9.90387 27.3416 9.5 28.3167 9.5 29.3333V42.6667C9.5 43.6833 9.90387 44.6584 10.6228 45.3772C11.3416 46.0961 12.3167 46.5 13.3333 46.5H50.6667C51.6833 46.5 52.6584 46.0961 53.3772 45.3772C54.0961 44.6584 54.5 43.6833 54.5 42.6667V29.3333C54.5 28.3167 54.0961 27.3416 53.3772 26.6228C52.6584 25.9039 51.6833 25.5 50.6667 25.5C49.65 25.5 48.675 25.9039 47.9561 26.6228C47.2372 27.3416 46.8333 28.3167 46.8333 29.3333V34.6667C46.8333 35.4951 46.1618 36.1667 45.3333 36.1667H18.6667C17.8382 36.1667 17.1667 35.4951 17.1667 34.6667V29.3333C17.1667 28.3167 16.7628 27.3416 16.0439 26.6228C15.325 25.9039 14.35 25.5 13.3333 25.5Z" fill="#EE3224"/>
<path fill-rule="evenodd" clip-rule="evenodd" d="M13.3333 46.5C14.1618 46.5 14.8333 47.1716 14.8333 48V53.3333C14.8333 54.1618 14.1618 54.8333 13.3333 54.8333C12.5049 54.8333 11.8333 54.1618 11.8333 53.3333V48C11.8333 47.1716 12.5049 46.5 13.3333 46.5Z" fill="#EE3224"/>
<path fill-rule="evenodd" clip-rule="evenodd" d="M50.6667 46.5C51.4951 46.5 52.1667 47.1716 52.1667 48V53.3333C52.1667 54.1618 51.4951 54.8333 50.6667 54.8333C49.8382 54.8333 49.1667 54.1618 49.1667 53.3333V48C49.1667 47.1716 49.8382 46.5 50.6667 46.5Z" fill="#EE3224"/>
</svg>
