<svg width="65" height="64" viewBox="0 0 65 64" fill="none" xmlns="http://www.w3.org/2000/svg">
<path d="M19.2998 27C26.7556 27 32.7998 20.9558 32.7998 13.5C32.7998 6.04415 26.7556 0 19.2998 0C11.844 0 5.7998 6.04415 5.7998 13.5C5.7998 20.9558 11.844 27 19.2998 27Z" fill="#FFD24F"/>
<path fill-rule="evenodd" clip-rule="evenodd" d="M12.2998 15C12.2998 11.9624 14.7622 9.5 17.7998 9.5H47.7998C50.8374 9.5 53.2998 11.9624 53.2998 15V24H50.2998V15C50.2998 13.6193 49.1805 12.5 47.7998 12.5H17.7998C16.4191 12.5 15.2998 13.6193 15.2998 15V24H12.2998V15Z" fill="#323232"/>
<path fill-rule="evenodd" clip-rule="evenodd" d="M9.30124 24.5014C10.5827 23.2199 12.3208 22.5 14.1331 22.5C15.9455 22.5 17.6835 23.2199 18.965 24.5014C20.2465 25.7829 20.9665 27.521 20.9665 29.3333V33.1667H44.6331V29.3333C44.6331 27.521 45.3531 25.7829 46.6346 24.5014C47.9161 23.2199 49.6542 22.5 51.4665 22.5C53.2788 22.5 55.0169 23.2199 56.2984 24.5014C57.5799 25.7829 58.2998 27.521 58.2998 29.3333V42.6667C58.2998 44.479 57.5799 46.2171 56.2984 47.4986C55.0169 48.7801 53.2788 49.5 51.4665 49.5H14.1331C12.3208 49.5 10.5827 48.7801 9.30124 47.4986C8.01974 46.2171 7.2998 44.479 7.2998 42.6667V29.3333C7.2998 27.521 8.01974 25.7829 9.30124 24.5014ZM14.1331 25.5C13.1165 25.5 12.1415 25.9039 11.4226 26.6228C10.7037 27.3416 10.2998 28.3167 10.2998 29.3333V42.6667C10.2998 43.6833 10.7037 44.6584 11.4226 45.3772C12.1415 46.0961 13.1165 46.5 14.1331 46.5H51.4665C52.4831 46.5 53.4582 46.0961 54.177 45.3772C54.8959 44.6584 55.2998 43.6833 55.2998 42.6667V29.3333C55.2998 28.3167 54.8959 27.3416 54.177 26.6228C53.4582 25.9039 52.4831 25.5 51.4665 25.5C50.4498 25.5 49.4748 25.9039 48.7559 26.6228C48.037 27.3416 47.6331 28.3167 47.6331 29.3333V34.6667C47.6331 35.4951 46.9616 36.1667 46.1331 36.1667H19.4665C18.638 36.1667 17.9665 35.4951 17.9665 34.6667V29.3333C17.9665 28.3167 17.5626 27.3416 16.8437 26.6228C16.1248 25.9039 15.1498 25.5 14.1331 25.5Z" fill="#323232"/>
<path fill-rule="evenodd" clip-rule="evenodd" d="M14.1331 46.5C14.9615 46.5 15.6331 47.1716 15.6331 48V53.3333C15.6331 54.1618 14.9615 54.8333 14.1331 54.8333C13.3046 54.8333 12.6331 54.1618 12.6331 53.3333V48C12.6331 47.1716 13.3046 46.5 14.1331 46.5Z" fill="#323232"/>
<path fill-rule="evenodd" clip-rule="evenodd" d="M51.4666 46.5C52.295 46.5 52.9666 47.1716 52.9666 48V53.3333C52.9666 54.1618 52.295 54.8333 51.4666 54.8333C50.6381 54.8333 49.9666 54.1618 49.9666 53.3333V48C49.9666 47.1716 50.6381 46.5 51.4666 46.5Z" fill="#323232"/>
</svg>
