<svg width="21" height="21" viewBox="0 0 21 21" fill="none" xmlns="http://www.w3.org/2000/svg">
<path d="M17.6372 0.76709H3.63721C2.84156 0.76709 2.0785 1.08316 1.51589 1.64577C0.953278 2.20838 0.637207 2.97144 0.637207 3.76709V17.7671C0.637207 18.5627 0.953278 19.3258 1.51589 19.8884C2.0785 20.451 2.84156 20.7671 3.63721 20.7671H17.6372C18.4329 20.7671 19.1959 20.451 19.7585 19.8884C20.3211 19.3258 20.6372 18.5627 20.6372 17.7671V3.76709C20.6372 2.97144 20.3211 2.20838 19.7585 1.64577C19.1959 1.08316 18.4329 0.76709 17.6372 0.76709ZM8.63721 2.76709H12.6372V5.89709L11.1872 4.89709C11.0239 4.78956 10.8327 4.73225 10.6372 4.73225C10.4417 4.73225 10.2505 4.78956 10.0872 4.89709L8.63721 5.89709V2.76709ZM18.6372 17.7671C18.6372 18.0323 18.5319 18.2867 18.3443 18.4742C18.1568 18.6617 17.9024 18.7671 17.6372 18.7671H3.63721C3.37199 18.7671 3.11764 18.6617 2.9301 18.4742C2.74256 18.2867 2.63721 18.0323 2.63721 17.7671V3.76709C2.63721 3.50187 2.74256 3.24752 2.9301 3.05998C3.11764 2.87245 3.37199 2.76709 3.63721 2.76709H6.63721V7.76709C6.63769 7.94799 6.68724 8.12538 6.78057 8.28035C6.8739 8.43532 7.00753 8.56207 7.16721 8.64709C7.32358 8.72738 7.49835 8.76504 7.67392 8.75626C7.84948 8.74748 8.01962 8.69258 8.16721 8.59709L10.6372 6.96709L13.0872 8.59709C13.2376 8.69614 13.412 8.75274 13.5919 8.7609C13.7718 8.76907 13.9505 8.72851 14.1093 8.6435C14.268 8.55849 14.4009 8.43218 14.4938 8.27792C14.5867 8.12366 14.6363 7.94717 14.6372 7.76709V2.76709H17.6372C17.9024 2.76709 18.1568 2.87245 18.3443 3.05998C18.5319 3.24752 18.6372 3.50187 18.6372 3.76709V17.7671Z" fill="white"/>
</svg>
