<svg width="22" height="21" viewBox="0 0 22 21" fill="none" xmlns="http://www.w3.org/2000/svg">
<path fill-rule="evenodd" clip-rule="evenodd" d="M11.0297 2.36726C7.88813 2.36726 5.34136 4.87454 5.34136 7.96743C5.34136 11.0603 7.88813 13.5676 11.0297 13.5676C14.1713 13.5676 16.7181 11.0603 16.7181 7.96743C16.7181 4.87454 14.1713 2.36726 11.0297 2.36726ZM3.71612 7.96743C3.71612 3.99086 6.99053 0.767212 11.0297 0.767212C15.0689 0.767212 18.3433 3.99086 18.3433 7.96743C18.3433 11.944 15.0689 15.1676 11.0297 15.1676C6.99053 15.1676 3.71612 11.944 3.71612 7.96743Z" fill="black"/>
<path fill-rule="evenodd" clip-rule="evenodd" d="M11.0298 15.1676C9.17528 15.1676 7.35337 15.6481 5.74715 16.5607C4.14092 17.4734 2.80693 18.7861 1.87919 20.3671C1.65467 20.7496 1.15764 20.8806 0.769037 20.6596C0.38043 20.4385 0.247405 19.9492 0.471917 19.5666C1.54234 17.7426 3.08148 16.228 4.93473 15.1749C6.78799 14.1219 8.89008 13.5676 11.0298 13.5676C13.1696 13.5676 15.2717 14.122 17.1249 15.1751C18.9782 16.2281 20.5173 17.7428 21.5877 19.5669C21.8122 19.9494 21.6791 20.4388 21.2905 20.6598C20.9019 20.8808 20.4049 20.7498 20.1804 20.3673C19.2527 18.7863 17.9187 17.4735 16.3125 16.5609C14.7063 15.6482 12.8844 15.1677 11.0298 15.1676Z" fill="black"/>
</svg>
