<svg width="21" height="15" viewBox="0 0 21 15" fill="none" xmlns="http://www.w3.org/2000/svg">
<path d="M19.3072 6.76721H1.41835C0.835381 6.76721 0.362793 7.19254 0.362793 7.71721V7.81721C0.362793 8.34188 0.835381 8.76721 1.41835 8.76721H19.3072C19.8902 8.76721 20.3628 8.34188 20.3628 7.81721V7.71721C20.3628 7.19254 19.8902 6.76721 19.3072 6.76721Z" fill="black"/>
<path d="M19.3072 12.7672H1.41835C0.835381 12.7672 0.362793 13.1925 0.362793 13.7172V13.8172C0.362793 14.3419 0.835381 14.7672 1.41835 14.7672H19.3072C19.8902 14.7672 20.3628 14.3419 20.3628 13.8172V13.7172C20.3628 13.1925 19.8902 12.7672 19.3072 12.7672Z" fill="black"/>
<path d="M19.3072 0.767212H1.41835C0.835381 0.767212 0.362793 1.19254 0.362793 1.71721V1.81721C0.362793 2.34188 0.835381 2.76721 1.41835 2.76721H19.3072C19.8902 2.76721 20.3628 2.34188 20.3628 1.81721V1.71721C20.3628 1.19254 19.8902 0.767212 19.3072 0.767212Z" fill="black"/>
</svg>
