<svg width="21" height="21" viewBox="0 0 21 21" fill="none" xmlns="http://www.w3.org/2000/svg">
<path d="M20.082 19.0672L16.3742 15.3894C17.8134 13.5949 18.5104 11.3171 18.3218 9.0245C18.1332 6.73187 17.0734 4.59862 15.3603 3.06339C13.6472 1.52817 11.4109 0.707658 9.11141 0.770581C6.8119 0.833504 4.62388 1.77508 2.99727 3.40169C1.37066 5.0283 0.429085 7.21632 0.366162 9.51583C0.303239 11.8154 1.12375 14.0516 2.65897 15.7647C4.1942 17.4778 6.32745 18.5377 8.62008 18.7262C10.9127 18.9148 13.1905 18.2178 14.985 16.7786L18.6628 20.4564C18.7557 20.5501 18.8663 20.6244 18.988 20.6752C19.1098 20.7259 19.2405 20.752 19.3724 20.752C19.5043 20.752 19.635 20.7259 19.7567 20.6752C19.8785 20.6244 19.9891 20.5501 20.082 20.4564C20.2621 20.2701 20.3628 20.021 20.3628 19.7618C20.3628 19.5026 20.2621 19.2536 20.082 19.0672ZM9.37833 16.7786C7.99469 16.7786 6.64211 16.3683 5.49165 15.5996C4.34119 14.8309 3.44452 13.7383 2.91502 12.4599C2.38552 11.1816 2.24698 9.77499 2.51692 8.41793C2.78685 7.06087 3.45314 5.81433 4.43153 4.83595C5.40991 3.85756 6.65645 3.19127 8.01351 2.92133C9.37057 2.6514 10.7772 2.78994 12.0555 3.31944C13.3338 3.84894 14.4265 4.74561 15.1952 5.89607C15.9639 7.04653 16.3742 8.39911 16.3742 9.78275C16.3742 11.6382 15.6371 13.4176 14.3251 14.7296C13.0132 16.0415 11.2337 16.7786 9.37833 16.7786Z" fill="black"/>
</svg>
