<svg width="24" height="25" viewBox="0 0 24 25" fill="none" xmlns="http://www.w3.org/2000/svg">
<path d="M12 2.79224C8.13 2.79224 5 5.92224 5 9.79224C5 15.0422 12 22.7922 12 22.7922C12 22.7922 19 15.0422 19 9.79224C19 5.92224 15.87 2.79224 12 2.79224ZM7 9.79224C7 7.03224 9.24 4.79224 12 4.79224C14.76 4.79224 17 7.03224 17 9.79224C17 12.6722 14.12 16.9822 12 19.6722C9.92 17.0022 7 12.6422 7 9.79224Z" fill="#323232"/>
<path d="M12 12.2922C13.3807 12.2922 14.5 11.1729 14.5 9.79224C14.5 8.41152 13.3807 7.29224 12 7.29224C10.6193 7.29224 9.5 8.41152 9.5 9.79224C9.5 11.1729 10.6193 12.2922 12 12.2922Z" fill="#323232"/>
</svg>
