<svg width="1920" height="786" viewBox="0 0 1920 786" fill="none" xmlns="http://www.w3.org/2000/svg">
<path fill-rule="evenodd" clip-rule="evenodd" d="M533.445 786C528.759 784.531 534.365 783.356 532.022 781.131C526.249 781.131 533.11 785.622 527.671 785.622C524.073 784.237 519.555 784.573 517.84 781.089C513.572 780.376 504.954 780.334 502.318 776.094C500.645 775.759 499.599 776.556 497.8 776.052C495.624 770.428 486.295 766.651 486.546 759.641C487.843 757.752 486.839 751.792 486.755 749.484C482.697 746.252 485.291 743.146 487.633 739.662C490.102 738.487 494.118 741.005 495.248 739.117C491.775 733.24 478.806 735.591 489.307 729.966C490.646 725.098 492.403 724.93 487.633 724.384C487.633 720.691 493.658 719.431 493.867 715.864C490.813 711.792 493.867 709.568 495.75 706.084C495.75 700.502 495.457 700.082 498.176 694.793C498.176 688.497 493.198 682.495 499.222 678.508C502.737 671.666 507.213 664.699 507.129 656.892C510.016 652.485 508.217 648.33 508.217 643.209C510.435 637.962 508.008 634.688 510.937 630.323C513.405 619.872 514.451 611.939 514.451 601.656C515.037 596.451 518.509 595.15 516.083 589.358C516.083 581.173 518.969 576.808 510.476 572.065C507.506 569.715 504.41 565.643 500.603 564.93C494.955 562.202 484.245 557.711 481.274 551.96C479.894 543.776 479.475 543.398 474.497 537.522C471.903 527.91 464.916 518.844 459.393 510.533C457.344 508.728 450.106 506.042 453.536 502.978C453.536 499.495 447.93 494.878 454.457 492.611C456.047 491.226 462.029 485.769 458.724 483.923C448.056 485.434 456.841 474.311 458.724 470.114C459.394 461.677 464.33 466.882 467.426 460.922C467.886 454.919 470.02 457.774 473.409 455.129C474.204 453.828 474.999 452.527 475.835 451.226C475.835 444.216 472.07 412.023 459.059 424.657C456.758 435.192 453.829 428.519 446.34 425.832C438.475 425.832 438.559 418.949 431.112 417.648C428.518 416.473 427.681 415.339 426.384 412.821C425.464 400.481 409.022 396.284 398.772 394.773C389.191 391.289 384.798 385.119 376.515 380.544C372.749 379.369 370.155 381.719 366.767 383.44C359.487 383.818 355.345 381.09 349.321 378.193C340.535 377.018 334.134 371.52 325.641 369.757C320.746 367.239 316.018 363.377 311.709 360.019C309.283 356.452 315.307 349.568 311.709 348.183C307.986 339.453 297.317 333.618 289.912 328.12C288.992 325.812 290.121 324.049 288.657 321.908C284.934 320.271 283.553 319.642 281.879 316.116C274.223 312.212 270.458 307.595 267.613 299.453C266.776 291.94 251.59 289.925 259.957 302.517C262.885 304.07 265.438 303.818 267.362 306.756C268.031 316.41 277.445 318.802 279.913 326.777C282.633 330.638 281.419 334.29 286.565 333.996C287.778 334.836 288.783 341.929 288.03 342.685C284.39 343.566 282.758 340.166 280.75 337.69C279.913 337.018 277.71 335.759 274.14 333.912C271.88 331.226 273.303 327.281 270.458 324.552C267.111 322.664 256.861 319.138 257.07 314.353C262.091 309.064 259.329 309.358 253.263 305.077C250 301.006 245.44 294.206 244.77 288.708C242.762 285.812 239.708 283.461 237.03 281.153C229.332 278.215 216.781 275.151 216.781 264.951C217.241 263.482 219.208 259.537 217.158 258.529C204.941 258.529 207.535 252.443 202.138 244.552C201.553 241.656 202.306 238.55 201.845 235.528C199.419 229.484 201.302 229.82 202.933 223.902C203.296 216.179 203.575 211.408 203.77 209.589C202.264 205.182 199.544 196.829 194.106 196.578C193.227 194.689 187.872 193.262 185.571 192.213C180.927 186.043 181.262 178.068 172.35 176.095C172.058 171.268 175.153 171.73 167.958 171.73C161.891 169.128 168.041 164.385 158.921 162.79C157.582 161.488 155.365 158.886 153.691 161.656C153.984 169.505 147.667 162.244 149.842 159.516C149.926 157.459 138.462 148.729 147.959 151.289C152.645 156.662 148.21 147.973 147.039 146.546C141.266 143.356 139.425 144.364 133.191 144.448C131.225 148.561 130.974 143.86 129.635 142.811C124.238 142.181 121.477 140.88 117.335 137.522C114.448 132.863 109.26 136.515 104.616 135.717C96.7511 132.737 88.9276 135.717 81.0204 132.066C78.301 132.066 75.8326 132.905 73.2806 132.821C70.5193 126.273 62.905 127.826 58.3029 131.436C55.5417 135.507 41.4427 144.699 41.4427 133.996C48.3458 121.531 30.5232 142.391 29.1844 143.608C24.7916 145.371 20.6916 147.596 16.2987 149.191C12.7007 153.01 9.06089 152.296 4.91904 155.99C2.91087 156.955 -3.07182 156.242 -3.40651 159.264C-2.19324 160.943 -2.4861 163.839 -4.49427 161.698C-4.49427 155.151 -7.75755 161.111 -10.8953 161.279C-13.7402 160.691 -20.1413 161.95 -21.0617 164.594C-23.4464 160.649 -31.8138 168.078 -30.726 163.797C-23.6556 159.768 -17.129 156.536 -9.01266 156.536C-8.7198 156.326 -8.3851 156.116 -8.05041 155.906C-3.65752 148.813 6.04864 153.933 8.01498 144.322C11.0272 140.082 -2.02589 142.727 -3.82487 142.349C-9.34735 140.04 -10.8953 142.139 -17.2127 142.097C-19.0954 139.159 -13.6147 134.542 -17.6729 131.604C-21.0199 131.604 -23.4046 136.809 -26.7515 134.5C-27.2117 128.12 -27.9648 129.295 -34.6169 128.96C-37.4199 127.155 -37.5454 126.567 -41.1434 126.064C-42.4822 124.762 -31.8975 115.57 -29.3036 115.57C-25.6219 116.955 -21.5637 114.521 -17.5892 114.227C-10.8953 115.319 -10.8535 107.638 -14.6188 107.638C-22.9862 110.324 -32.3158 110.03 -41.0597 108.687C-45.2016 107.218 -44.6996 104.574 -49.2598 103.65C-52.4394 99.9565 -31.4372 97.1024 -28.3832 97.1444C-25.8311 99.9985 -22.9025 100.628 -18.9698 99.4529C-11.9831 92.6533 -20.8525 95.0457 -27.4209 93.6606C-32.4413 89.5893 -36.4577 89.3794 -42.9842 88.1202C-48.3394 82.9156 -34.7424 83.7131 -33.1107 83.6711C-30.8515 83.1675 -28.5923 82.6218 -26.3331 82.1181C-17.0035 74.1014 -8.51061 76.9135 2.24148 73.4298C8.68436 72.3385 13.8303 68.477 19.9385 71.8348C21.5283 71.4711 22.616 71.2892 23.2018 71.2892C27.5528 73.3878 37.6355 71.1213 39.2672 75.0667C41.9865 75.4865 44.3713 75.9901 47.0488 75.5284C70.0173 75.5284 95.6215 76.4099 118.046 81.0269C124.28 83.4613 146.37 88.2042 148.378 81.3207C154.277 77.2074 155.49 78.5085 160.971 78.8863C163.439 75.2766 166.242 76.0321 170.593 76.0321C174.275 80.3133 177.622 73.136 183.563 75.4865C190.382 79.222 193.018 83.4613 198.666 77.0814C203.393 77.3333 202.515 82.9996 208.749 79.9775C218.036 77.2913 228.37 80.9009 238.034 81.5305C241.214 84.8464 260.501 83.2514 247.95 81.7404C244.896 80.6491 243.641 79.0961 243.766 76.1161C242.553 74.4371 234.227 72.8002 239.499 70.4917C239.415 68.6449 230.462 68.0993 235.984 65.9587C237.156 65.0772 238.369 64.1958 239.54 63.3144C240.21 61.5515 226.487 65.6229 225.818 66.0846C224.061 70.7016 222.346 70.7016 217.534 71.2053C208.205 74.9828 207.452 70.5757 200.256 68.0573C198.75 66.4204 195.486 66.8401 193.436 66.7562C192.307 64.4896 196.239 63.0626 197.787 61.5515C209.125 59.8307 195.319 52.1916 204.439 53.0731C211.008 52.1497 217.785 51.9398 224.354 53.0731C229.374 58.3196 247.866 49.7152 253.221 57.6901C253.054 58.6554 258.032 59.1171 259.037 59.4949C261.045 65.0772 263.011 62.349 267.948 60.922C271.253 60.922 272.09 61.1738 276.148 61.3417C276.441 64.6155 292.59 63.6922 296.188 63.902C296.062 61.9713 294.974 56.6827 298.196 56.4728C301.668 58.9492 300.246 59.7887 304.095 56.4728C306.898 56.4728 318.654 54.5841 315.935 59.8726C310.705 63.86 317.734 68.0153 320.077 72.3805C322.67 74.9408 324.93 72.5064 327.816 72.5064C332.46 75.5704 346.141 75.9901 335.389 83.0416C333.548 85.3081 331.498 90.2189 330.996 83.7551C330.494 83.8111 329.434 84.2728 327.816 85.1402C324.177 85.1402 306.772 83.965 318.57 88.2881C324.386 87.9943 327.775 89.7572 333.172 90.3868C338.443 87.9943 343.714 92.2336 340.66 84.2588C340.87 77.6271 346.852 86.6092 343.338 87.9943C343.924 90.8485 362.708 93.0311 354.927 86.4833C353.002 86.1475 341.664 85.6858 347.061 81.7404C353.588 81.3207 353.797 76.6617 359.863 79.6418C372.08 79.6418 355.596 71.3731 369.068 69.6523C375.971 66.966 368.942 66.924 368.942 62.1392C372.415 53.7446 372.122 54.9618 381.87 54.4162C387.309 55.4655 407.097 51.8978 395.885 60.0405C389.819 62.8107 388.438 62.9366 381.828 62.5589C371.076 62.5589 381.284 68.519 383.585 71.0374C388.103 81.9083 384.171 78.9282 399.901 80.7331C401.115 82.412 400.32 84.7624 402.495 85.434C409.231 81.5725 409.273 82.4959 415.465 86.903C419.397 92.1496 418.393 84.7205 422.661 87.5746C430.568 88.7498 424.543 71.1213 421.28 77.711C413.415 76.7037 403.332 76.5778 400.989 67.2178C407.181 58.4875 418.226 52.1497 429.815 56.0531C432.534 59.1591 420.443 59.5369 422.786 65.8747C422.786 71.7509 420.36 71.541 428.602 71.541C433.371 70.072 429.815 68.7289 426.719 67.8894C416.971 59.8307 439.772 57.3962 442.784 56.305C448.432 56.5568 453.704 59.5788 457.176 56.5568C463.284 56.5568 477.551 54.6261 480.479 61.4256C484.747 65.3291 489.391 61.5935 490.185 68.2252C491.608 68.7708 492.194 68.1413 493.7 68.1413C500.728 72.0027 496.461 70.2399 502.318 68.3931C512.861 68.3931 499.306 76.0321 509.096 76.5358C510.518 75.9062 511.146 74.8149 512.108 73.5977C519.388 69.2745 522.191 74.605 525.203 79.1381C525.203 79.1381 543.067 80.0195 537.168 83.5872C526.5 85.6858 541.185 87.8684 543.695 88.3301C551.686 88.3301 555.953 92.1916 562.731 94.9198C576.955 94.9198 567.165 100.208 560.262 100.754C557.585 102.601 557.543 110.072 553.317 105.077C549.719 96.5148 549.803 101.593 541.143 100.166C538.758 98.8233 531.939 96.0531 529.972 99.327C530.391 101.468 535.662 104.322 537.503 105.707C541.645 106.294 555.702 110.45 549.845 117.837C551.184 119.726 551.979 123.042 547.962 121.195C547.502 118.886 547.46 119.348 545.619 120.481C540.013 129.295 526.207 119.39 518.467 119.39C508.175 122.874 505.247 107.302 495.624 110.45C492.277 110.45 477.383 108.519 477.927 112.297C485.5 115.948 476.714 115.402 473.66 117.291C472.028 117.291 465.502 116.578 468.263 113.933C475.124 112.548 469.058 101.342 478.471 103.65C479.099 103.65 495.499 104.951 493.365 101.3C486.546 99.1171 502.486 94.668 503.615 93.157C502.988 92.0657 502.318 90.9744 501.649 89.8411C498.971 87.6585 493.7 90.1349 490.144 90.2608C489.098 91.3102 486.588 94.9618 484.83 93.2829C484.83 89.0436 491.441 83.7971 481.483 85.7278C477.969 85.7278 474.748 78.5505 472.614 79.8516C471.777 84.6365 465.711 83.1255 466.673 80.4812C465.795 78.3406 462.824 80.2714 461.36 80.7331C458.975 80.7331 448.851 76.8716 449.394 79.9775C454.666 82.0762 453.327 86.1475 448.516 87.1129C448.307 91.4361 456.549 88.9597 450.984 94.9618C446.131 96.8506 443.621 99.6208 439.563 102.601C437.178 102.769 435.588 98.1097 433.664 102.391C435.379 103.692 437.136 102.559 438.684 104.196C441.822 105.287 456.381 109.694 453.662 114.899C447.888 115.57 446.968 114.899 441.655 112.632C433.371 112.632 422.786 123.167 422.786 106.672C424.502 102.181 425.882 98.5295 429.982 103.398C433.245 102.979 426.259 95.1717 420.904 98.8233C420.192 100.166 419.439 101.468 418.686 102.811C418.686 109.82 411.741 115.235 404.964 111.331C401.659 111.331 393.793 116.955 391.492 118.676C390.544 119.04 388.605 119.502 385.677 120.061C380.866 124.511 369.653 133.787 375.594 140.502C384.464 140.628 384.631 140.292 386.346 149.316C388.982 153.01 401.282 148.939 405.257 148.939C410.57 152.171 413.038 157.039 419.397 156.536C422.493 157.249 423.539 158.928 426.175 160.229C445.211 160.985 445.797 158.844 446.926 175.591C451.152 180.544 459.352 184.532 465.125 178.739C467.133 174.29 466.129 168.792 461.862 166.147C461.067 164.594 461.067 164.175 462.49 163.083C472.028 162.034 484.579 157.123 476.923 146.546C472.447 144.07 461.736 141.971 470.355 136.515C482.739 132.527 462.113 119.684 482.111 119.684C483.157 120.187 495.666 123.419 491.984 119.852C491.65 117.081 494.453 117.207 494.369 119.768C502.318 121.321 508.677 126.231 516.626 127.071C519.053 127.784 522.442 127.91 522.442 130.932C517.631 138.655 524.659 137.102 528.55 142.853C531.939 142.853 543.569 140.292 545.829 137.438C545.829 126.064 553.778 133.703 556.204 139.033C561.517 142.097 567.877 148.225 567.877 154.563C574.278 162.076 571.642 159.81 581.055 160.775C585.574 163.839 589.465 160.775 590.176 166.441C593.565 169.715 606.618 171.142 601.012 179.201C598.459 180.628 602.769 180.754 603.229 184.07C606.869 190.03 598.961 184.993 599.171 188.813C600.844 190.492 601.974 193.765 604.4 193.682C607.203 191.541 614.065 189.61 613.772 195.235C610.969 198.34 612.642 203.797 616.868 201.069C621.972 201.069 617.914 214.248 612.433 208.918C608.124 200.523 607.58 211.436 601.806 206.735C601.137 205.686 600.468 203.965 598.961 203.965C596.284 205.644 581.85 205.602 579.549 203.125C579.424 200.607 584.235 199.054 586.034 197.711C586.396 197.011 587.317 194.535 588.795 190.282C595.071 183.398 594.359 182.097 585.365 184.238C577.457 192.003 569.592 188.393 559.133 189.862C557.334 193.346 570.052 192.464 564.739 196.284C561.894 196.284 552.439 195.906 555.577 191.373C555.577 186.252 538.842 187.847 536.541 192.548C531.604 197.081 543.486 194.521 545.661 194.395C548.004 194.941 550.975 196.494 550.18 199.138C546.875 201.572 551.142 202.034 547.753 204.594C547.753 205.56 550.305 211.058 550.891 211.772C555.911 212.821 560.053 215.885 565.241 213.325C566.873 213.325 567.668 214.164 569.132 214.668C572.562 214.374 576.872 210.345 577.081 214.374C571.851 219.453 561.517 218.823 555.242 221.761C549.008 221.132 548.046 230.324 541.478 224.825C537.085 218.865 550.138 216.934 546.414 215.172C543.444 217.858 540.892 217.816 537.001 217.858C535.035 222.685 530.056 222.013 525.37 222.013C518.886 227.218 513.991 227.26 512.694 235.612C510.393 240.649 501.398 242.454 496.587 242.832C493.993 244.636 494.829 252.275 490.185 251.73C489.99 251.506 489.642 250.093 489.14 247.491C486.42 247.91 490.144 261.258 484.496 260.922C484.273 260.53 484.161 259.719 484.161 258.487C482.32 255.549 475.752 253.073 479.81 259.747C479.81 264.28 484.956 263.482 481.316 267.553C481.191 268.981 481.693 269.652 481.902 271.079C477.969 272.464 481.567 274.017 480.019 276.2C477.3 277.249 474.58 278.34 471.819 279.39C459.352 290.387 445.964 292.317 456.172 309.358C457.344 313.178 463.494 327.281 456.925 330.345C448.851 330.345 451.486 322.538 445.922 319.558C442.366 315.234 445.462 312.128 443.412 308.099C435.672 301.09 438.601 304.28 429.982 304.28C423.958 299.621 414.335 301.635 406.888 301.677C404.796 303.692 406.93 306.504 402.956 306.378C398.479 308.477 396.596 308.015 392.998 304.825C388.103 304.825 383.25 304.28 378.355 304.28C372.917 307.386 365.846 311.079 361.035 315.025C358.483 319.222 360.617 324.426 359.403 329.001C353.839 338.319 356.642 350.911 363.754 358.592C365.205 361.055 366.111 362.72 366.474 363.587C372.54 370.722 392.831 368.456 397.182 360.145C398.061 348.519 409.649 349.526 419.105 349.526C422.995 352.254 417.808 356.997 416.218 359.684C416.218 367.029 414.252 373.618 410.528 379.914C410.528 383.188 412.955 381.509 415.256 381.048C419.565 381.048 422.242 377.984 426.803 377.648C427.639 382.265 436.509 382.055 440.4 385.791C442.115 390.156 442.115 390.617 439.898 394.857C439.772 403.041 437.053 414.584 447.679 417.984C449.185 420.712 452.867 421.006 455.796 421.006C463.745 416.64 466.715 413.828 474.622 422.055C485.709 425.707 483.91 408.372 491.148 408.372C494.997 406.609 494.411 406.567 499.599 406.525C501.44 405.518 514.116 395.864 511.313 405.644C503.824 409.169 515.79 410.219 515.79 403.755C518.133 399.725 519.053 397.543 520.141 403.503C522.107 407.113 526.123 405.518 528.843 408.246C531.73 412.989 538.382 410.135 543.779 411.31C552.523 418.361 548.13 403.923 554.322 409.673C560.179 411.016 562.94 406.861 563.149 413.492C567.584 416.766 567.793 406.399 571.014 411.394C571.014 416.137 569.55 414.584 572.353 418.403C573.985 425.119 584.988 422.684 585.95 431.625C588 434.479 595.28 437.921 599.38 438.34C604.442 436.2 605.237 439.851 610.006 439.641C612.517 437.207 611.68 438.298 614.399 439.935C624.189 439.935 628.708 449.085 630.005 457.144C633.435 462.726 635.527 462.139 635.443 468.854C630.548 473.22 638.205 470.491 641.342 471.793C645.317 472.212 643.351 472.212 645.149 474.94C651.76 475.108 661.382 476.745 666.695 481.027C668.202 486.777 669.75 483.629 674.226 483.629C677.573 485.056 678.87 486.315 682.677 485.727C684.476 486.189 685.648 487.574 687.53 487.574C697.069 484.091 703.93 495.297 711.796 499.159C715.854 499.62 719.87 498.655 721.125 502.684C725.058 509.232 725.225 521.236 717.737 525.224C713.176 530.932 709.244 536.263 705.06 542.265C702.926 543.44 700.5 543.146 699.119 545.077C700.249 554.563 702.299 566.273 695.312 574.038C695.145 574.737 694.963 576.836 694.768 580.334C692.509 585.916 687.698 588.141 687.698 594.269C685.438 596.871 683.556 597.375 681.589 600.817C676.987 603.041 672.176 598.676 666.905 602.034C662.303 606.861 658.119 606.567 652.22 609.379C646.321 614.08 645.652 612.569 643.685 619.494C645.233 630.701 639.167 633.765 634.69 642.453C630.967 644.636 628.206 638.298 628.206 645.014C627.076 647.448 624.273 647.826 622.767 650.26C621.219 657.648 615.445 665.454 607.998 668.518H596.786C596.117 668.183 589.172 664.447 589.632 667.595C594.067 671.918 592.686 669.61 592.895 674.688C593.648 675.36 595.824 676.451 596.368 676.955C596.368 688.791 582.101 689.925 573.19 691.645C564.781 691.645 566.161 691.729 564.864 699.704C560.011 707.301 554.782 701.929 548.13 702.223C542.942 707.217 558.045 709.987 547.586 715.612C541.101 721.908 549.092 723.545 537.545 725.559C523.404 733.996 549.636 734.164 541.436 742.097C536.666 743.524 535.62 744.573 532.273 748.309C530.14 757.081 519.806 752.632 527.128 763.88C526.542 765.349 518.927 765.853 522.107 767.364C530.6 767.364 527.42 771.603 534.407 774.751C538.089 777.689 542.273 777.899 546.833 778.151C552.606 782.055 536.499 779.536 535.955 785.412C535.23 785.664 534.421 785.846 533.529 785.958L533.445 786ZM551.1 780.208C552.02 779.956 552.899 779.662 553.82 779.41C553.276 775.759 548.13 779.326 551.1 780.208ZM513.029 774.416C517.128 773.366 518.886 765.685 511.02 769.589C506.878 773.618 509.514 772.149 513.029 774.416ZM500.812 774.164C505.791 772.737 499.055 770.05 499.055 773.45C499.766 773.618 500.394 773.576 500.812 774.164ZM496.461 770.47C497.549 770.302 497.674 770.008 497.674 768.875C495.833 766.734 494.244 769.337 496.461 770.47ZM491.315 762.076C493.616 761.614 493.7 759.096 491.19 760.648C491.19 761.152 491.273 761.614 491.315 762.076ZM488.303 753.891C489.767 753.639 489.683 753.261 490.395 751.96C498.846 747.721 491.441 743.524 491.148 746.252C489.056 749.274 488.303 749.904 488.303 753.891ZM1909.59 734.667C1896.41 731.184 1888.29 732.695 1903.86 720.019C1904.19 719.557 1904.57 719.096 1904.94 718.634C1915.61 715.36 1920.3 711.54 1926.53 703.608C1927.2 698.613 1930.25 697.606 1934.02 700.837C1935.15 700.921 1936.49 697.522 1937.62 700.082C1940.55 701.467 1945.15 704.615 1944.77 698.109C1942.35 695.759 1934.06 695.003 1937.83 690.596C1949.54 685.517 1934.86 672.758 1931.13 666.294C1932.3 663.398 1943.39 669.568 1943.39 674.143C1945.44 681.152 1946.45 674.353 1949.37 678.088C1951.42 682.034 1951.84 683.713 1956.57 684.3C1971.34 678.55 1965.77 690.68 1958.79 692.695C1957.03 693.954 1957.2 694.793 1956.99 696.808C1952.51 703.02 1949.75 706.965 1942.05 704.531C1938.41 708.477 1937.45 711.498 1932.81 715.192C1932.81 715.556 1933.16 716.339 1933.85 717.543C1933.85 720.271 1929.33 718.886 1926.91 719.851C1919.59 725.517 1921.01 734.08 1909.5 734.667H1909.59ZM498.637 726.273C499.013 726.231 499.431 726.147 499.808 726.105C499.892 723.839 498.427 723.335 498.637 726.273ZM498.344 722.076C500.059 720.858 503.197 707.091 501.44 705.37C496.336 705.077 502.067 712.716 497.13 714.311C495.415 715.948 496.377 721.068 498.344 722.076ZM1776.63 718.13C1771.11 714.479 1760.44 693.073 1776.63 702.474C1778.8 702.474 1785.88 700.921 1786.75 699.704C1786.75 698.445 1786.21 696.598 1786.25 695.423C1792.32 691.519 1790.48 708.644 1790.27 710.029C1788.39 713.052 1790.23 715.612 1785.67 715.612C1782.57 718.256 1780.69 717.878 1776.55 718.13H1776.63ZM489.893 717.878H491.524C491.775 714.059 488.512 715.444 489.893 717.878ZM1763.58 697.899C1765.84 697.438 1765.58 695.969 1765.58 693.912C1763.74 691.939 1761.61 697.06 1763.58 697.899ZM1782.61 693.702C1782.99 693.66 1783.36 693.576 1783.74 693.534C1785.88 691.687 1779.85 690.764 1782.61 693.702ZM1776.88 692.107C1780.31 691.184 1784.12 687.196 1786.96 685.14C1790.23 684.888 1796.46 685.685 1798.51 682.957C1798.51 671.876 1805.04 662.558 1812.78 654.961C1814.74 654.416 1816.42 647.322 1816.96 645.643C1816.96 638.088 1821.52 632.128 1819.14 624.531C1813.99 621.215 1821.39 608.749 1816.21 610.512C1814.16 613.492 1805.25 603.797 1803.95 601.908C1803.95 599.138 1804.28 597.753 1801.69 596.284C1795.67 596.284 1792.44 585.329 1786.71 582.6C1783.36 579.285 1778.97 580.418 1777.01 575.591C1776.55 567.826 1771.99 563.377 1771.61 555.36C1767.09 546 1761.32 557.165 1760.73 544.573C1759.48 540.964 1757.22 534.08 1753.83 531.813C1750.98 531.981 1749.31 541.845 1749.31 544.028C1748.43 548.309 1750.23 573.702 1739.14 569.715C1736.51 566.945 1736.42 563.629 1732.57 565.769C1728.22 565.769 1719.27 558.592 1715.71 555.99C1711.03 548.099 1726.01 555.528 1719.69 549.568C1719.15 548.183 1719.35 546.546 1721.15 546.168C1725.92 538.277 1716.26 540.628 1720.48 535.675C1722.79 527.322 1713.33 535.759 1715.55 537.732C1716.05 544.363 1697.1 533.66 1695.05 533.66C1691.11 534.961 1692.24 535.591 1694.38 537.983C1694.5 540.67 1689.57 539.285 1688.44 537.816C1691.66 530.093 1677.85 535.801 1682.58 539.159C1688.73 539.159 1687.77 538.025 1683.58 545.832C1679.07 548.225 1679.57 549.064 1678.69 554.017C1674.97 557.627 1670.57 552.506 1668.06 550.239C1656.47 546.042 1656.56 558.55 1648.94 555.99C1647.06 556.074 1646.81 556.619 1647.56 558.508C1652.25 560.439 1647.94 561.32 1645.01 562.328C1643.88 565.853 1643.92 566.063 1641.16 563.881C1634.22 563.629 1638.15 572.359 1633.88 574.416C1629.7 580.25 1626.98 583.062 1618.99 583.062C1614.55 584.447 1610.49 588.141 1605.98 586.756C1601.83 587.301 1594.35 592.296 1591.08 595.318C1585.35 595.906 1587.02 607.154 1584.18 611.478C1583.13 611.771 1582.72 611.855 1581.92 612.611C1580.58 616.304 1590.25 632.8 1592.76 636.409C1593.3 639.054 1593.84 641.656 1594.39 644.3C1598.74 651.226 1599.74 655.087 1594.39 661.341C1594.39 669.064 1608.28 670.407 1613.67 668.854C1624.93 661.719 1631.58 663.104 1644.05 663.104C1647.14 661.341 1648.27 658.529 1651.96 656.766C1658.31 654.416 1662.16 654.038 1668.52 653.618C1675.34 650.512 1681.58 650.302 1689.11 649.673C1699.52 654.709 1705.84 651.646 1711.82 663.482C1713.12 674.269 1719.77 664.237 1724.79 660.963C1728.64 659.956 1721.07 668.56 1721.07 669.82C1722.24 671.331 1725.34 673.261 1727.18 674.101C1733.75 674.101 1732.32 670.239 1736.84 676.619C1736.84 689.043 1751.65 686.819 1759.77 690.638C1762.03 690.638 1763.99 689.589 1766.09 688.791C1771.53 688.497 1772.7 688.959 1776.92 692.107H1776.88ZM1946.24 675.528C1948.12 675.528 1947.78 673.891 1945.99 673.681C1946.07 674.311 1946.19 674.898 1946.24 675.528ZM1727.39 671.331C1726.34 670.071 1728.89 664.279 1730.23 667.091C1729.94 669.106 1729.31 670.407 1727.39 671.331ZM1040.93 667.679C1045.19 667.259 1049.88 664.825 1054.57 664.111C1061.97 661.719 1068.37 665.245 1074.94 661.467C1091.34 660.46 1112.72 638.172 1118.28 624.027C1118.28 614.206 1118.28 613.66 1128.78 610.974C1136.23 606.357 1133.89 593.639 1129.45 587.679C1126.11 578.571 1135.77 579.746 1140.29 574.919C1142.3 571.562 1144.64 570.051 1148.07 568.12C1155.1 566.567 1164.22 561.74 1164.22 553.513C1160.96 546.546 1163.01 538.193 1162.04 530.806C1157.86 526.105 1154.39 521.11 1155.81 514.353C1155.81 511.163 1154.97 508.519 1153.09 505.874C1151.21 500.418 1157.28 494.626 1159.87 490.219C1161 486.525 1163.8 484.678 1166.94 482.328C1175.39 472.254 1184.93 463.188 1196.48 456.305C1198.99 452.653 1203.76 449.043 1206.85 444.972C1212.67 434.982 1220.66 425.623 1223.46 414.374C1224.21 413.618 1225.18 413.199 1225.64 412.359C1225.64 395.948 1220.11 406.777 1209.49 406.483C1209.07 409.211 1204.22 408.204 1202.38 407.91C1199.67 408.973 1197.29 409.771 1195.22 410.303C1191.67 407.994 1187.57 413.199 1183.67 411.31C1181.37 408.959 1175.93 405.979 1175.93 402.747C1179.95 395.822 1163.01 387.218 1158.36 385.497C1154.93 382.055 1155.1 377.9 1153.59 373.451C1150.37 368.204 1146.1 366.777 1143.26 360.901C1142.17 349.358 1144.6 349.778 1135.77 343.146C1130.21 336.389 1127.91 326.777 1123.39 319.096C1121.38 312.8 1123.72 314.227 1129.5 314.227C1134.93 316.829 1138.45 325.476 1141.63 330.429C1145.48 338.403 1152.51 338.613 1153.05 348.855C1155.02 355.066 1157.19 358.047 1163.51 361.069C1165.94 363.419 1166.31 368.288 1168.86 371.31C1174.81 375.087 1175.14 381.593 1175.35 387.805C1178.61 396.326 1174.76 404.133 1189.45 399.725C1196.73 393.262 1207.15 395.822 1214.38 389.484C1219.36 388.057 1230.62 386.798 1231.33 381.215C1235.89 375.297 1241.7 378.319 1247.1 375.004C1249.44 370.387 1251.66 372.905 1254.92 370.554C1257.64 365.476 1259.23 366.987 1263.42 363.965C1264.96 357.165 1269.73 353.555 1273.75 347.847C1276.05 337.396 1260.4 338.781 1256.35 334.08C1256.26 332.821 1253.75 320.313 1257.68 322.79C1259.9 331.478 1271.95 328.204 1278.73 328.204C1284.63 330.722 1305.55 329.799 1313.29 329.799C1313.9 330.387 1315.49 332.625 1318.05 336.515C1320.98 338.235 1329.94 341.216 1330.1 344.867C1323.58 347.176 1333.12 351.331 1335.79 353.975C1340.23 355.696 1352.57 348.98 1348.8 358.298C1348.8 360.943 1349.35 362.244 1350.44 364.678C1351.06 375.255 1354.16 383.65 1360.48 392.296C1361.02 398.97 1362.53 402.454 1367.25 407.49C1368.3 412.527 1369.81 418.949 1373.24 423.02C1379.09 426.42 1379.68 423.02 1383.74 420.544C1392.61 419.159 1391.77 413.073 1390.68 405.937C1391.77 402.538 1393.7 398.718 1393.7 395.108C1391.31 386.714 1392.19 383.818 1400.1 379.201C1406.37 378.445 1405.74 376.137 1410.39 371.856C1422.48 364.804 1433.73 355.99 1445.78 348.938C1448.88 348.561 1451.93 348.225 1455.03 347.889C1459.8 343.23 1461.05 350.366 1461.97 353.639C1463.98 356.494 1472.01 361.027 1472.01 363.839C1475.82 369.547 1475.99 372.233 1474.19 378.781C1474.19 386.378 1486.41 380.964 1489.54 378.193C1495.28 368.876 1494.31 390.617 1494.31 391.751C1496.45 396.242 1495.78 396.326 1494.56 400.649C1497.37 405.518 1493.1 402.244 1493.35 405.686C1498.04 406.273 1494.77 416.473 1497.54 420.418C1498.41 426.126 1500.09 428.183 1505.69 431.205C1506.36 433.052 1503.77 434.437 1505.48 436.326C1510.38 436.955 1514.02 451.939 1515.78 456.263C1520.09 458.613 1525.86 461.677 1528.87 465.287C1540.75 465.371 1528.87 456.221 1528.87 449.925C1531.09 441.908 1523.47 437.081 1518.24 431.918C1509.92 429.736 1512.39 429.106 1510.13 421.215C1510.13 417.102 1512.35 415.885 1505.9 417.396C1502.47 416.221 1505.44 411.142 1506.32 409.169C1508.37 407.406 1510.04 392.17 1513.43 398.214C1513.27 402.496 1518.33 399.683 1521.26 402.538C1524.23 407.784 1530.08 408.414 1530.84 414.206C1532.76 415.885 1535.31 413.199 1537.07 416.724C1537.07 423.776 1534.69 426.672 1543.76 420.25C1546.07 417.438 1548.45 415.381 1551.92 413.409C1562.38 409.799 1567.44 398.634 1561.8 388.771C1559.75 379.411 1552.34 378.361 1547.11 371.142C1545.23 364.468 1538.08 363.293 1548.45 357.585C1549.29 355.99 1549.66 355.276 1551.09 354.185C1555.06 353.052 1556.02 347.427 1562.09 351.247C1573.59 352.422 1561.13 360.397 1559.12 362.37C1558.99 372.275 1569.12 370.722 1572.13 363.041C1574.89 359.935 1573.3 359.558 1571.04 356.955C1572.46 348.561 1580.58 351.373 1587.32 348.141C1592 343.104 1596.81 343.986 1603.34 343.944C1606.56 341.677 1609.49 337.438 1612.8 334.752C1624.51 330.974 1625.14 321.195 1633.8 313.681C1635.43 310.366 1637.06 305.875 1637.77 302.265C1636.06 301.299 1632.38 303.23 1632.5 300.67C1637.31 297.144 1635.72 296.808 1635.72 291.688C1629.91 286.903 1631.41 279.935 1623.92 276.578C1620.54 273.975 1624.8 271.415 1626.89 268.729C1629.57 267.428 1641.16 264.447 1641.16 261.719C1640.58 260.628 1631.46 258.445 1629.61 258.445C1627.19 259.117 1620.58 265.203 1621.67 258.865C1620.54 255.172 1608.86 256.305 1614.18 252.108C1622.46 251.94 1628.07 238.466 1636.81 241.992C1637.35 244.888 1635.22 246.231 1633.3 248.288C1633.3 250.89 1634.05 250.806 1631.83 252.527C1632.42 256.347 1640.45 249.925 1643 248.96C1651.54 246.609 1655.85 244.51 1655.85 254.374C1654.72 255.088 1649.11 258.445 1653.88 258.445C1656.26 257.06 1656.81 258.11 1659.28 259.495C1666.6 259.495 1664.34 264.489 1664.34 269.064C1662.79 271.961 1656.1 282.076 1664.76 277.375C1670.7 276.704 1672.71 274.017 1678.73 273.933C1687.89 264.07 1668.69 253.367 1671.28 247.7C1674.92 245.854 1678.1 243.881 1681.45 241.572C1683.04 236.368 1683.71 236.032 1689.32 234.227C1693.46 228.897 1694.75 229.526 1700.9 231.877C1704.54 231.793 1708.06 230.743 1711.28 228.981C1713.87 226.154 1715.55 224.182 1716.3 223.062C1723.25 216.431 1729.52 214.878 1734.75 205.98C1740.52 202.37 1743.41 200.355 1743.7 193.346C1746 189.065 1745.25 185.455 1747.93 181.09C1755.88 173.786 1753.62 192.213 1752.7 195.654C1752.7 199.432 1756.17 218.823 1748.26 215.004C1743.2 215.297 1751.03 219.075 1751.07 219.117C1751.07 228.183 1745.8 225.035 1742.41 229.232C1741.15 230.198 1733.54 233.64 1737.85 235.025C1745.08 231.541 1739.94 246.693 1740.44 248.33C1740.44 251.436 1735.17 261.593 1733.24 255.507C1731.03 253.157 1729.35 257.774 1732.91 258.949C1731.4 261.048 1729.27 262.349 1726.51 262.433C1726.68 259.747 1725.92 257.69 1722.83 260.544C1721.61 262.895 1717.72 271.163 1714.79 270.24C1705.21 270.492 1703.58 270.785 1700.07 270.785C1696.47 273.22 1692.62 274.983 1688.65 276.829C1686.09 280.103 1684.63 281.404 1680.4 282.118C1677.1 284.426 1681.07 287.616 1682.83 289.631C1684.38 293.618 1683.5 294.794 1687.52 297.06C1687.27 301.258 1684.09 298.068 1685.13 301.467C1692.62 300.754 1688.94 300.964 1690.45 296.179C1693.83 293.702 1692.58 287.071 1696.8 286.357C1700.11 289.673 1701.7 285.56 1704.59 283.923C1710.69 285.056 1709.98 277.459 1714.38 282.873C1718.27 284.762 1720.4 280.439 1723.54 278.928C1728.06 274.311 1735.17 279.138 1737.89 274.143C1740.06 273.598 1743.03 279.096 1745.04 272.8C1747.55 269.148 1745.84 266.504 1748.31 262.013C1748.31 259.83 1747.34 257.69 1748.97 256.095C1762.4 251.394 1744 234.479 1750.1 232.38C1754.54 232.38 1758.39 236.997 1762.4 233.933C1765.88 227.931 1773.7 231.331 1778.6 226.378C1787.76 224.783 1772.11 215.591 1776.34 222.643C1780.81 224.07 1776.59 225.581 1774.5 226.63C1770.52 225.203 1776.25 222.139 1770.9 221.929C1765.88 224.364 1751.15 214.878 1755.33 213.157C1755.63 212.401 1755.92 211.688 1756.17 210.974C1759.27 206.651 1761.07 213.031 1763.2 211.31C1765.54 204.469 1752.82 204.007 1761.44 194.521C1764.71 193.346 1770.27 199.432 1770.27 196.452C1765.88 190.45 1763.45 184.448 1761.28 177.438C1762.57 173.954 1761.65 164.259 1756.8 164.259C1755.84 164.762 1755.59 165.434 1755.59 166.525C1757.47 169.925 1755.79 169.463 1752.49 169.421C1751.82 170.764 1751.99 179.495 1748.81 174.668C1748.81 165.14 1737.39 164.469 1730.19 167.994C1727.55 168.204 1728.06 163.545 1726.68 163.251C1724.17 159.6 1717.51 166.105 1717.51 162.16C1722.2 160.565 1725.84 158.508 1729.1 154.899C1733.87 152.59 1737.39 149.988 1742.45 147.26C1747.68 146.085 1752.07 140.964 1756.88 138.529C1767.47 138.194 1777.76 138.278 1788.34 138.529C1792.23 139.789 1793.53 139.033 1796.84 136.683C1802.36 136.683 1804.53 136.809 1807.04 141.132C1811.06 141.216 1836.58 142.475 1826.92 134.962C1826.83 133.409 1836.25 128.918 1838.55 127.7C1842.23 120.901 1852.1 125.896 1858 124.846C1858.92 125.728 1858.46 129.002 1858.46 130.303C1863.06 132.317 1869.76 125.644 1875.74 125.35C1879.63 124.091 1876.91 120.103 1881.39 120.103C1882.89 121.531 1881.6 124.804 1880.97 126.525C1877.08 129.631 1870.68 130.555 1866.08 133.535C1858.96 136.893 1853.23 142.643 1845.49 145.077C1837.29 145.623 1840.39 149.191 1833.44 152.506C1830.18 160.649 1833.19 166.903 1835.45 175.13C1837.46 177.69 1834.95 180.502 1836.96 183.692C1836.37 188.603 1830.43 180.838 1831.23 186.588C1829.3 193.598 1834.78 187.512 1839.55 185.875C1846.58 181.384 1846.58 182.181 1849.17 174.206C1851.85 169.925 1857.75 176.389 1858.42 168.162C1863.11 162.118 1870.59 167.029 1874.15 158.718C1877.79 157.375 1879.59 154.395 1876.41 151.289C1874.86 147.302 1880.47 144.615 1873.65 144.615C1870.97 143.314 1876.45 140.502 1877.62 139.831C1882.06 133.87 1879.09 134.836 1887.96 134.836C1894.4 132.15 1893.31 136.389 1899.92 132.485C1902.47 128.792 1913.9 131.478 1916.62 134.584C1917.81 134.584 1918.61 134.5 1919 134.332C1920.97 130.513 1923.98 130.681 1928.16 129.631C1936.11 123.755 1944.69 123.545 1953.98 120.691C1960.8 117.291 1971.34 127.323 1969.04 116.032C1966.19 110.492 1961.13 108.225 1969.5 107.763C1972.97 106.294 1973.18 93.7866 1977.78 102.223C1982.72 104.616 1988.91 101.719 1993.89 104.028C1995.94 108.981 2003.76 108.561 2008.07 109.065C2013.68 112.758 2010.58 103.65 2015.48 101.719C2019.24 101.803 2023.84 102.433 2027.53 101.719C2034.6 97.2283 2024.64 97.9838 2021 94.9198C2017.53 93.5767 2012.76 93.7446 2008.91 92.7792C2003.01 95.5494 2002.26 99.0331 1998.99 91.0583C1994.22 86.987 1984.85 87.2808 1978.49 84.3847C1966.65 80.859 1956.78 78.3406 1944.52 78.3406C1937.41 77.3752 1930.21 77.3752 1923.06 76.7876C1914.82 73.7656 1921.13 81.2367 1918.12 84.1328C1915.86 84.1748 1910.67 84.4267 1910.67 81.6565C1917.45 77.5012 1911.05 76.8716 1908.54 80.5652C1905.95 80.817 1904.98 78.6344 1902.31 78.6344C1896.45 80.3553 1888.79 80.7331 1883.06 78.6344C1878.42 79.0122 1873.77 79.348 1869.13 79.6837C1860.72 82.412 1858.88 74.1853 1851.52 71.7929C1843.53 71.4151 1835.62 71.2053 1827.59 71.4991C1823.03 73.2619 1801.44 71.4991 1799.1 65.7908C1793.87 63.944 1789.35 63.944 1783.83 64.1538C1772.57 61.8034 1760.06 64.2798 1749.02 60.7541C1738.14 60.0405 1759.31 60.5022 1760.98 60.5022C1768.05 57.9839 1746.09 53.2829 1741.95 55.3816C1742.62 58.6135 1740.19 56.305 1740.19 59.6628C1741.57 60.2504 1743.58 59.9146 1745.08 59.8726C1744.96 61.7194 1740.52 64.1538 1739.31 65.8328C1738.6 69.6942 1736.05 68.3511 1732.07 68.3511C1727.22 71.4991 1722.32 68.0993 1716.55 67.8055C1710.32 70.1979 1708.06 69.3165 1702.2 66.4623C1696.09 66.4623 1693.58 72.8002 1687.81 72.8002C1680.95 70.6176 1681.95 66.7562 1674.46 66.7562C1667.77 63.5662 1673.46 63.4823 1677.27 61.2158C1677.06 58.3196 1669.9 56.9345 1666.97 57.3123C1661.54 61.6775 1653.92 52.2336 1646.89 58.3616C1637.44 62.9786 1625.47 61.9713 1616.31 57.5222C1612.67 57.4382 1609.07 57.3543 1605.43 57.2703C1597.48 53.9965 1586.65 62.8947 1585.02 52.4015C1582.8 52.2336 1582.25 52.5274 1579.62 52.5694C1579.62 48.8758 1593.47 51.1003 1587.57 45.1402C1584.3 43.7132 1587.15 39.306 1582.42 42.2861C1577.99 41.0689 1580.79 39.6418 1575.9 40.943C1570.16 37.879 1562.72 39.0542 1556.44 39.0542C1554.81 40.2294 1551.84 43.3354 1551.42 40.0196C1554.48 35.9482 1553.76 35.6124 1549.2 35.9482C1548.45 33.3459 1550.92 33.9755 1552.97 33.5138C1559.7 29.4424 1538.41 28.2672 1543.05 32.7163C1544.81 33.262 1547.7 32.4645 1547.7 34.6471C1543.72 34.5631 1528.33 34.6471 1539.37 30.5337C1538.95 27.8475 1533.05 25.3711 1530.08 25.3711C1519.37 29.0227 1527.99 19.9986 1515.94 27.4697C1512.05 27.8895 1509.88 28.0154 1506.91 30.4078C1503.43 37.1654 1518.12 32.1287 1520.09 31.667C1524.27 32.5484 1527.66 32.4645 1531.8 31.9188C1541.63 31.9188 1518.75 36.242 1516.53 37.1654C1512.72 40.0615 1512.6 39.8517 1507.37 40.3134C1502.47 39.306 1497.28 42.9157 1492.35 44.2588C1483.98 44.2588 1475.03 40.6492 1467.08 44.5106C1459.76 45.2661 1447.46 44.0909 1441.81 47.6586C1438.88 47.6586 1435.45 45.8118 1433.82 48.582C1433.82 55.5075 1424.49 46.4414 1424.7 52.6953C1427.04 55.8852 1420.3 56.5988 1418.21 56.5988C1416.87 53.4508 1408.55 51.8139 1406.12 53.9965C1406.12 62.1392 1391.44 49.6313 1396.04 64.1958C1394.78 64.9513 1390.27 63.7761 1388.59 63.6922C1385.5 62.1392 1389.68 61.0479 1388.13 59.243C1385.08 59.1591 1379.47 69.6523 1379.47 62.7268C1377.63 60.3343 1375.87 62.349 1373.45 63.5243C1369.56 68.0573 1365.41 66.7142 1364.49 60.922C1366.17 59.7047 1370.48 57.816 1370.6 60.922C1375.25 60.922 1373.95 59.7047 1370.39 58.7394C1368.93 54.0804 1361.57 59.2011 1357.72 59.4949C1355.71 61.4256 1358.76 61.6355 1360.23 61.8453C1368.09 66.1266 1349.39 64.9933 1352.82 71.2892C1356.59 74.0594 1357.63 74.0174 1356.59 78.5505C1356.59 83.923 1360.35 82.5799 1359.85 86.2315C1362.44 94.5421 1351.98 93.031 1347.21 97.8999C1336.71 97.9838 1346.63 92.5694 1350.85 91.604C1355.71 87.8684 1347.3 80.5652 1350.06 73.8915C1349.39 70.4497 1344.33 71.1213 1347.47 67.4697C1360.23 59.369 1337.72 62.1392 1336.21 60.1664C1336.21 56.4728 1335.12 58.6135 1333.07 60.0405C1327.84 61.0059 1326.59 63.5243 1323.58 67.6376C1320.65 69.1066 1315.17 68.3091 1313.91 71.9608C1313.91 84.7624 1316.97 77.1654 1324.54 83.4193C1329.23 84.0489 1327.68 86.6092 1324.12 86.6092C1318.81 84.8044 1314.58 83.1255 1308.93 82.1601C1299.9 78.6764 1289.9 77.4172 1280.32 77.4172C1271.57 80.5652 1284.04 82.7477 1273.87 84.8044C1269.65 82.0762 1271.91 79.1801 1266.47 83.4613C1260.4 84.3427 1255.68 84.8044 1249.36 84.8044C1247.89 85.434 1241.49 88.3301 1240.82 86.1475C1241.28 85.3081 1245.43 82.4539 1242.33 82.4539C1232.87 84.5526 1223.84 85.2661 1214.84 88.7498C1210.66 88.7498 1205.51 89.1696 1203.84 93.3668C1201.12 95.2136 1194.34 94.71 1191.25 92.9891C1190.7 89.2535 1196.35 92.3175 1198.4 90.3448C1198.4 83.3773 1188.82 85.2661 1184.47 85.3501C1182.38 84.4267 1177.32 82.5379 1179.45 86.6512C1183.38 89.2535 1181.58 93.8705 1181.58 98.1097C1180.66 98.6554 1174.6 95.2556 1172.17 95.8852C1167.99 99.201 1159.2 98.4035 1158.45 103.44C1165.02 115.109 1134.39 98.1517 1142 106.966C1150.46 112.968 1140.42 112.632 1136.06 109.82C1128.2 108.225 1130.21 108.771 1130.21 101.006C1127.57 95.9272 1138.83 99.201 1142 99.8306H1158.66C1161.58 98.4875 1171.88 94.4161 1165.81 90.6806C1154.35 86.7771 1142.55 83.965 1130.92 80.9009C1124.27 81.1108 1123.22 81.8663 1118.45 78.0048C1112.13 78.0048 1111.05 78.2567 1107.82 78.2567C1101.88 71.1633 1088.83 68.561 1080.3 73.2619C1079.58 73.2619 1078.87 73.2619 1078.16 73.2619C1077.62 70.072 1075.48 71.2892 1072.6 71.7089C1068.92 75.4445 1064.86 73.5138 1060.17 73.5138C1052.52 76.158 1044.4 75.8642 1036.24 75.8642C1034.44 76.7457 1035.36 78.5085 1033.69 79.5998C1029.34 77.5431 1021.77 83.2514 1028.33 83.2514C1029.13 88.7498 1022.73 85.0562 1020.64 87.8264C1019.51 95.0038 1012.52 92.0237 1007.16 94.0384C998.839 95.1717 1008.71 102.601 997.835 102.769C993.902 106.84 994.279 107.218 988.672 107.218C985.493 108.981 981.937 114.857 978.757 112.506C976.958 112.422 974.49 116.032 973.569 113.808C971.98 113.808 973.444 116.074 971.812 117.207C965.704 117.501 963.738 120.061 957.964 120.355C951.229 122.832 957.379 126.064 957.504 124.804C965.955 124.804 960.433 126.231 955.956 126.483C951.521 130.764 962.19 131.856 963.361 132.234C964.031 135.507 958.466 133.577 956.709 136.011C956.709 145.707 971.185 147.092 977.753 142.517C981.267 140.586 985.744 140.628 987.961 137.9C992.103 136.011 993.484 146.252 994.53 148.225C998.672 153.178 1002.86 154.899 994.069 155.36C990.764 157.291 990.764 162.328 985.87 157.585C985.87 154.269 990.179 156.662 990.179 153.346C985.618 150.618 990.095 148.771 988.756 148.057C986.037 143.356 981.853 149.023 977.502 149.023C969.218 153.01 976.875 160.817 977.377 166.735C974.532 171.226 968.256 166.945 963.361 169.253C953.906 170.555 953.488 174.08 947.505 180.334C945.036 185.077 929.933 184.951 936.586 177.9C939.556 169.295 930.143 174.122 928.218 172.275C927.34 164.678 922.947 165.308 918.135 160.691C915.207 155.612 914.077 157.123 908.22 157.123C904.915 154.731 911.902 154.353 913.45 153.178C917.801 144.783 916.713 145.833 906.63 145.623C906.63 142.979 915.123 138.991 907.885 138.991C901.066 142.559 894.623 138.11 894.79 148.267C893.41 148.519 889.352 146.462 889.017 145.161C895.167 139.663 879.185 143.272 882.783 150.282C886.549 150.282 883.913 145.077 887.929 148.981C894.456 150.45 885.921 152.8 893.41 154.185C894.288 159.852 888.64 160.565 884.54 158.97C876.257 158.97 876.926 166.147 868.517 164.217C863.789 164.846 867.304 170.471 869.772 172.066C871.027 175.298 867.053 175.969 865.379 177.438C864.793 186.21 880.231 179.831 884.247 178.697C890.272 178.697 890.021 178.781 892.782 173.325C892.782 170.051 886.674 168.792 892.95 166.861C895.794 164.553 892.699 159.852 895.292 160.481C896.297 163.545 896.589 163.335 900.02 163.671C907.258 161.908 904.455 165.644 909.768 167.113C912.697 171.772 898.388 167.533 898.932 174.122C906.588 177.144 891.904 177.186 896.715 180.292C906.044 180.964 901.359 182.475 896.715 186.588C889.31 190.24 896.338 189.82 900.02 188.435C905.919 188.771 907.927 186.588 914.412 187.092C919.6 186.546 924.746 186.043 929.933 185.539C933.49 184.238 937.339 183.314 934.452 188.519C926.67 190.618 925.582 195.193 917.926 190.534C910.019 190.534 917.341 199.852 908.973 195.78C905.292 195.78 897.342 194.857 898.263 200.229C899.141 200.943 900.313 201.572 900.689 202.58C905.292 202.874 904.957 203.461 908.346 205.266C910.521 203.881 914.579 209.253 917.843 210.513C920.478 213.031 917.968 220.628 917.466 223.776C913.533 228.687 904.371 226.546 898.346 226.546C896.004 225.833 879.018 223.986 878.474 225.455C871.864 229.106 871.236 227.553 874.792 236.158C875.545 241.614 874.96 242.957 872.868 247.952C866.132 255.843 875.587 253.031 875.587 258.194C870.232 268.561 883.787 258.739 887.845 265.161C899.895 272.926 878.097 283.293 872.198 286.903C870.734 289.589 867.094 297.438 869.312 300.586C869.186 303.776 864.166 307.386 861.739 309.148C859.271 312.758 853.539 311.793 849.899 313.723C846.009 319.935 839.817 324.007 839.44 331.31C839.315 331.52 839.147 331.772 839.022 331.982C833.374 336.431 833.248 335.885 830.738 342.894C827.726 346.546 823.709 351.037 827.517 355.654C832.788 358.55 831.533 365.266 831.826 370.512C830.905 374.206 829.065 376.892 828.814 380.796C826.513 386.462 821.367 387.595 827.81 391.667C828.73 393.639 828.353 396.242 829.399 397.753C834.671 399.138 830.947 399.725 829.106 401.488C829.065 402.496 832.286 407.994 833.248 408.54C844.042 408.54 847.64 419.033 850.025 426.924C851.322 427.553 854.669 430.072 855.213 431.415C862.534 435.15 868.893 439.935 875.42 444.846C885.754 448.624 889.896 443.419 900.48 442.496C905.961 442.496 910.312 444.342 915.165 444.342C927.047 439.054 952.693 427.008 958.466 445.014C961.479 449.127 965.369 447.029 970.055 446.441C988.003 439.851 983.987 462.517 979.134 471.793C975.619 485.769 993.818 490.051 996.245 502.097C996.789 502.978 997.333 503.86 997.877 504.741C998.462 511.163 1005.57 515.36 1001.39 521.236C1001.39 527.784 1008.04 531.604 1004.65 539.159C998.086 546.546 998.086 544.867 996.496 556.242C989.719 567.196 995.492 574.71 1001.93 583.65C1003.82 589.064 1007.21 592.926 1009.84 597.878C1010.22 608.246 1011.22 619.033 1016.62 628.141C1020.8 631.96 1031.85 646.903 1031.85 652.275C1029.76 656.346 1029.92 656.472 1032.14 660.502C1033.4 666.336 1035.99 665.245 1040.97 667.595L1040.93 667.679ZM588 666.336C589.59 666.336 586.829 663.44 586.829 665.874C587.205 666.042 587.624 666.21 588 666.336ZM1585.98 618.193C1578.32 611.729 1590.16 610.806 1587.99 617.773C1587.57 617.969 1586.9 618.109 1585.98 618.193ZM1189.32 615.591C1182.42 612.737 1180.2 611.184 1180.2 603.755C1174.97 592.464 1184.3 590.533 1184.3 580.334C1182.38 574.71 1181.16 568.917 1184.05 563.377C1188.11 560.103 1193.97 561.32 1197.15 557.291C1203.63 554.647 1203.59 554.982 1205.35 548.225C1211.41 546.588 1209.86 544.867 1211.75 539.704C1216.14 536.137 1218.65 551.079 1218.78 552.38C1222.42 561.152 1214.93 556.158 1215.81 562.915C1216.39 564.09 1216.89 564.804 1216.89 566.105C1209.45 579.746 1207.56 596.997 1201.62 611.436C1197.82 613.282 1193.46 614.793 1189.28 615.549L1189.32 615.591ZM1897.79 598.76C1890.55 595.024 1885.24 593.094 1881.85 585.035C1881.64 584.951 1881.43 584.867 1881.22 584.783C1879.3 578.949 1891.39 590.323 1892.64 591.75C1894.61 592.674 1903.94 597.165 1897.79 598.76ZM1905.65 594.521C1904.27 593.597 1904.11 593.387 1903.56 591.876C1894.99 591.499 1902.27 582.6 1902.98 591.289C1905.45 591.289 1909.63 593.513 1905.61 594.521H1905.65ZM1595.48 589.526C1592 587.721 1598.45 584.028 1596.56 588.98C1596.23 589.148 1595.85 589.316 1595.48 589.526ZM1895.32 589.274C1894.9 581.887 1901.39 585.79 1896.78 589.106C1896.32 589.148 1895.82 589.232 1895.32 589.274ZM1879.3 583.23C1877.21 582.349 1878.88 579.788 1880.22 581.341C1880.18 582.474 1880.55 583.23 1879.3 583.23ZM1912.72 582.978C1909.63 580.963 1911.05 572.989 1913.35 576.808C1913.52 578.697 1915.28 582.474 1912.72 582.978ZM1961.09 579.327C1958.24 578.109 1963.51 574.08 1963.89 577.816C1962.89 578.571 1962.26 578.949 1961.09 579.327ZM1957.28 576.43C1956.15 574.416 1957.78 574.08 1958.45 572.191C1958.45 565.727 1963.31 571.142 1967.15 568.498C1969.37 564.174 1970.75 573.786 1966.95 573.618C1964.02 570.135 1961.76 575.759 1957.28 576.43ZM1906.99 571.981V570.68C1908.25 570.932 1908.62 571.981 1906.99 571.981ZM1954.31 569.631C1952.6 567.826 1956.03 563.293 1958.91 565.014C1961.42 565.014 1964.77 560.901 1964.77 566.525C1962.3 569.799 1959.16 563.839 1956.86 568.456C1955.72 569.183 1954.87 569.589 1954.31 569.673V569.631ZM1906.74 566.483C1904.86 562.537 1900.8 567.826 1901.3 562.034C1902.43 562.495 1904.19 563.965 1904.94 562.537C1905.28 557.837 1911.68 565.979 1906.74 566.525V566.483ZM1899.67 561.236C1898.33 559.809 1897.66 558.508 1896.78 556.787C1896.78 552.968 1906.95 559.348 1899.67 561.236ZM1905.11 560.439C1904.44 558.634 1901.89 558.634 1903.86 556.703C1906.24 551.163 1907.87 560.439 1905.11 560.439ZM1651.75 554.143C1650.91 552.59 1651.54 551.834 1653.21 551.918C1654.59 553.429 1652.92 553.849 1651.75 554.143ZM1901.55 549.904C1897.96 545.455 1904.48 546.798 1902.39 549.736C1902.1 549.736 1901.85 549.82 1901.55 549.904ZM1860.76 539.662C1859.72 538.907 1858.67 538.151 1857.67 537.396C1852.81 530.722 1869.84 538.907 1860.76 539.662ZM1824.07 537.312C1823.36 537.018 1823.49 536.682 1823.36 535.927C1825.2 533.492 1826.37 536.892 1824.07 537.312ZM1819.18 536.766C1818.09 536.179 1812.02 531.016 1813.15 530.051C1815.62 530.386 1815.7 530.512 1816.33 532.821C1817.42 533.408 1823.07 536.263 1819.18 536.766ZM1892.6 533.87C1891.01 532.191 1892.6 531.394 1894.32 531.394C1894.32 533.115 1894.15 533.031 1892.6 533.87ZM1869.21 533.073C1867.71 532.191 1865.32 531.268 1865.95 529.127C1868.84 529.295 1876.24 532.401 1869.21 533.073ZM1641.41 532.023C1639.78 530.302 1646.27 523.293 1648.06 521.908C1650.66 521.026 1654.26 522.244 1651.7 518.97C1648.48 517.417 1641.54 518.97 1638.69 520.817C1636.27 521.446 1620.95 521.614 1627.35 524.552C1628.48 527.28 1629.87 525.727 1628.74 529.211C1626.31 532.149 1611.21 523.587 1622.88 523.461C1626.52 522.202 1620.2 517.417 1629.74 517.417C1637.9 519.515 1642.37 515.864 1650.95 515.864C1657.69 516.787 1657.02 513.303 1663.17 513.22C1669.9 515.276 1651.87 516.032 1661.24 517.962C1664.72 517.962 1665.55 517.711 1666.77 517.753C1670.03 521.572 1654.59 525.266 1652.96 526.525C1650.2 530.135 1645.85 531.184 1641.41 532.065V532.023ZM1799.64 532.023C1795.75 529.883 1792.32 529.463 1787.93 529.253C1779.81 526.399 1776.13 513.052 1765.96 516.871C1763.7 518.718 1762.91 521.236 1760.77 523.209C1753.16 527.616 1746.8 524.552 1741.4 519.264C1737.89 517.627 1719.69 523.965 1728.77 513.597C1730.32 512.716 1731.32 512.254 1731.78 510.491C1727.47 498.655 1718.1 500.04 1709.31 495.591C1707.18 495.171 1704.84 493.283 1703.46 495.297C1698.18 497.732 1698.23 490.722 1694.38 488.875C1693.08 484.804 1698.14 484.972 1691.91 481.11C1684.3 479.935 1687.52 475.822 1683.12 473.178C1683.12 467.721 1694.55 472.758 1688.98 474.185C1688.98 477.207 1694.75 473.22 1696.22 472.674C1699.86 472.674 1705.05 474.605 1708.31 476.368C1708.31 478.172 1706.34 485.476 1710.65 484.93C1711.49 493.996 1720.07 485.811 1719.31 482.957C1716.34 482.16 1708.14 480.481 1709.27 475.738C1714.42 473.933 1714.67 473.807 1719.98 476.955C1720.07 483.293 1724.75 478.76 1728.85 478.76C1731.86 480.229 1734.46 481.992 1737.3 483.755C1746.09 484.426 1774.16 491.016 1775.5 501.257C1777.59 503.104 1792.28 505.203 1785.71 510.072C1779.81 511.205 1786.59 514.815 1788.39 516.619C1789.93 520.271 1790.9 521.362 1795.04 522.202C1798.64 526.273 1797.42 522.957 1801.73 522.957C1804.03 523.671 1808.34 526.567 1803.82 527.448C1795.25 524.678 1807 529.169 1804.53 531.31C1804.28 532.821 1800.98 532.065 1799.51 532.065L1799.64 532.023ZM1634.89 531.478C1632.71 530.512 1636.27 527.406 1635.97 530.932C1635.64 531.1 1635.26 531.268 1634.89 531.478ZM1859.97 528.078C1855.07 527.364 1856.29 523.713 1853.19 523.335C1852.86 517.92 1854.45 519.767 1848.51 514.982C1847.12 511.751 1852.02 514.185 1853.07 514.898C1855.66 517.879 1863.23 519.474 1854.91 520.775C1856.54 525.518 1858.46 522.831 1861.47 521.992C1862.23 520.481 1860.93 519.474 1861.52 517.962C1865.41 517.962 1865.49 524.049 1870.13 524.552C1874.28 530.89 1861.14 520.901 1862.81 525.937C1862.81 528.204 1862.23 527.952 1859.97 528.078ZM1898.58 527.28V525.979H1899.92V527.28H1898.58ZM1815.41 524.384C1812.19 520.355 1817.25 519.18 1817.13 523.671C1816.54 524.258 1816.25 524.258 1815.41 524.384ZM1607.73 523.335C1604.85 521.782 1606.52 518.088 1609.45 518.214C1613.13 520.565 1616.14 516.367 1619.49 516.367C1623.97 522.244 1611.33 522.789 1607.69 523.335H1607.73ZM1591.42 521.488C1585.64 519.767 1578.28 518.592 1572.13 519.264C1565.56 517.375 1563.93 515.822 1556.65 516.116C1553.3 515.402 1549.96 514.731 1546.61 514.017C1543.3 510.827 1540.79 512.338 1537.82 509.484C1537.82 506.588 1538.91 507.553 1541.21 507.385C1542.64 505.077 1537.15 506.168 1535.73 506.168C1532.26 503.482 1519.16 494.206 1517.66 490.219C1511.38 484.133 1510.92 475.276 1503.39 470.911C1500.13 465.413 1500.51 458.235 1492.51 461.425C1487.45 461.425 1493.31 457.9 1493.44 456.305C1491.85 453.534 1490.92 452.863 1487.7 452.065C1487.45 451.814 1473.77 438.844 1481.89 438.508C1487.49 441.782 1488.08 441.95 1494.4 441.95C1498.29 445.308 1499.84 449.085 1504.73 451.436C1508.87 455.087 1509.21 458.025 1515.32 458.529C1521.76 460.628 1523.89 466.378 1530 469.316C1532.59 472.338 1528.83 476.032 1533.56 476.955C1537.15 481.278 1533.51 484.72 1540.33 480.397C1542.72 479.725 1543.05 479.515 1544.56 481.32C1545.52 484.972 1553.76 490.26 1544.69 490.68C1543.05 492.989 1543.18 502.181 1543.05 504.741C1547.4 504.909 1552.13 504.867 1556.4 505.916C1562.51 509.82 1565.52 510.03 1572.72 508.267C1577.95 508.267 1579.49 511.834 1584.68 509.568C1587.69 509.568 1594.22 511.834 1587.94 513.136C1588.32 515.318 1600.04 514.773 1600.04 519.977C1598.65 521.32 1597.23 520.061 1595.68 519.306C1593.89 520.061 1593.59 521.278 1591.46 521.53L1591.42 521.488ZM1843.15 521.488C1840.1 519.39 1834.32 517.795 1837.88 513.22C1841.52 513.22 1843.82 515.36 1838.76 511.331C1831.27 508.896 1832.57 513.639 1827.21 504.363C1824.24 494.038 1832.94 506.126 1836.04 507.847C1838.51 508.393 1845.95 511.331 1845.95 513.849C1844.57 517.165 1847.88 517.795 1848.09 521.026C1846.41 521.152 1844.78 521.32 1843.11 521.446L1843.15 521.488ZM1602.59 520.733C1599.7 519.809 1601.79 517.417 1603.93 517.585C1603.8 518.928 1603.93 520.271 1602.59 520.733ZM1689.32 519.39C1685.51 515.234 1697.26 507.092 1697.01 512.632C1693.75 514.353 1692.5 517.627 1689.32 519.39ZM1670.28 518.34C1666.14 514.94 1672.04 513.933 1672.29 517.375C1671.93 517.739 1671.26 518.06 1670.28 518.34ZM1682.24 518.34C1677.6 514.563 1685.34 513.471 1683.63 518.088C1683.17 518.172 1682.75 518.256 1682.24 518.34ZM1667.56 514.647C1663.71 513.094 1668.69 510.743 1668.4 514.647H1667.56ZM1674.34 511.751C1674.34 511.373 1674.25 510.995 1674.21 510.575C1676.3 510.407 1676.39 511.499 1674.34 511.751ZM1707.22 511.247C1703.33 508.141 1708.02 498.403 1711.41 501.677C1712.16 506.798 1712.45 509.652 1707.22 511.247ZM1800.18 506.504C1797.46 506.126 1795.58 505.581 1791.73 505.035C1788.68 502.475 1786.04 504.783 1785 502.475C1783.95 501.803 1779.22 502.559 1781.61 500.124C1782.7 500.124 1784.41 500.124 1784.41 501.509C1789.14 500.754 1795.2 503.692 1798.47 499.075C1802.19 498.655 1801.23 503.02 1805.54 498.277C1810.02 496.011 1804.66 494.122 1812.4 493.996C1815.45 490.848 1799.97 486.693 1798.72 485.476C1798.51 480.565 1806.21 486.777 1808.63 486.525C1810.98 482.286 1811.02 488.624 1812.73 489.547C1814.16 491.688 1817.59 491.897 1814.45 488.833C1814.16 486.105 1819.93 489.799 1816.5 490.68C1816.17 494.794 1822.57 490.26 1822.57 494.961C1819.01 495.087 1818.38 493.702 1816.58 497.312C1814.66 498.445 1814.87 496.347 1812.94 496.682C1811.1 502.642 1806.88 505.832 1800.23 506.504H1800.18ZM1699.06 505.958C1693.5 502.055 1704.25 497.354 1701.32 504.447C1700.18 505.343 1699.43 505.846 1699.06 505.958ZM1620.49 504.363C1616.23 502.978 1620.58 498.781 1621.71 496.724C1621.71 491.352 1613.26 487.952 1619.24 482.789C1620.41 478.928 1619.87 477.501 1622.75 473.849C1623.59 458.655 1636.81 465.832 1647.35 465.832C1649.86 463.818 1655.51 457.774 1655.68 464.405C1654.21 466.168 1651.2 467.385 1650.66 469.652C1645.26 470.533 1620.33 465.832 1625.89 475.276C1631.37 478.466 1628.9 477.459 1633.51 474.479C1633.76 473.262 1632.21 472.884 1634.3 472.128C1635.68 472.128 1637.1 472.128 1638.53 472.128C1638.53 476.242 1646.43 471.331 1646.43 480.145C1644.3 483.041 1641.29 479.977 1638.73 479.977C1633.71 483.125 1635.85 483.335 1638.27 487.952C1638.27 488.54 1638.9 503.23 1634.22 497.228C1633.8 495.423 1629.53 482.034 1626.6 488.414C1629.66 496.472 1630.7 502.81 1620.49 504.321V504.363ZM1521.26 503.608C1517.91 501.425 1523.26 498.697 1522.89 503.356C1522.34 503.44 1521.8 503.524 1521.26 503.608ZM1644.42 502.559C1644.3 500.838 1644.34 500.628 1646.14 500.628C1646.14 502.181 1646.01 502.349 1644.42 502.559ZM1793.95 498.613C1790.27 496.472 1797.17 493.87 1796.75 497.648C1795.97 498.011 1795.04 498.333 1793.95 498.613ZM1595.52 497.018C1590.33 493.157 1587.07 487.238 1579.49 490.554C1570.54 490.554 1568.07 486.735 1564.6 480.187C1559.16 476.326 1561.34 473.765 1557.82 469.442C1557.82 459.159 1567.61 464.489 1573.01 458.613C1574.56 454.752 1574.77 455.339 1579.12 455.045C1586.31 452.317 1588.07 444.594 1595.73 441.866C1599.41 439.096 1603.84 430.617 1607.27 430.617C1610.91 435.948 1613.63 437.669 1619.78 440.103C1622.71 443.965 1615.06 442.328 1617.61 445.895C1617.48 448.75 1609.62 447.826 1610.08 454.164C1611.16 455.633 1612.29 458.403 1614.43 456.976C1621.2 456.976 1607.73 459.914 1614.93 462.475C1615.68 464.321 1620.49 465.245 1616.18 467.427C1609.49 467.427 1609.78 469.946 1609.74 476.074C1606.31 479.977 1604.55 480.607 1604.05 485.727C1601.71 490.386 1604.34 490.47 1604.34 494.668C1601.63 498.235 1599.78 491.813 1597.53 496.305C1596.97 496.668 1596.3 496.906 1595.52 497.018ZM1643.92 494.668C1640.07 490.596 1645.09 490.974 1645.09 493.954C1644.72 494.164 1644.3 494.416 1643.92 494.668ZM1663.75 493.324C1660.03 490.89 1666.05 484.804 1667.39 491.52C1666.31 492.989 1665.47 492.989 1663.75 493.324ZM1671.62 493.324C1664.38 485.979 1681.7 487.49 1684.96 487.91C1693.42 491.855 1672.37 493.199 1671.62 493.324ZM1556.36 490.177C1551.55 486.441 1559.7 485.266 1558.07 489.505C1557.46 489.869 1556.89 490.093 1556.36 490.177ZM1509.88 489.925C1508.83 485.602 1498.04 482.244 1500.76 476.913C1502.22 476.787 1511.51 488.036 1511.76 489.673C1511.13 489.757 1510.5 489.841 1509.88 489.925ZM1825.24 489.673C1825.24 489.211 1825.16 488.708 1825.12 488.246C1827.13 488.414 1827.17 489.295 1825.24 489.673ZM1690.65 486.777C1689.94 485.518 1690.24 484.468 1691.83 484.552C1692.2 486.441 1692.66 486.441 1690.65 486.777ZM1778.72 483.881C1774.16 481.068 1788.18 479.683 1783.45 482.915C1781.9 483.209 1780.31 483.545 1778.72 483.881ZM1650.41 483.335C1648.52 482.454 1647.77 480.943 1650.07 480.019C1650.53 480.019 1666.85 481.152 1661.28 482.915C1656.93 482.915 1653.31 483.041 1650.41 483.293V483.335ZM1669.69 482.286C1665.59 481.404 1666.64 479.012 1666.43 475.822C1661.79 470.743 1667.85 473.849 1668.23 469.652C1665.38 461.971 1667.77 461.173 1673.25 456.64C1677.06 456.64 1674.34 459.704 1673.79 461.509C1675.43 462.265 1676.14 468.603 1675.97 470.449C1668.86 470.659 1672.83 471.709 1672.83 476.242C1671.41 477.375 1669.44 475.696 1670.45 478.676C1673.58 480.229 1673.08 482.034 1669.69 482.328V482.286ZM1558.24 480.943C1557.15 479.725 1559.04 477.921 1559.04 480.943H1558.24ZM1796.13 479.641C1792.86 477.501 1798.13 474.437 1798.13 478.928C1797.51 479.557 1797.05 479.515 1796.13 479.641ZM1764.58 479.39C1764.41 479.138 1764.15 478.956 1763.79 478.844C1763.28 473.262 1771.15 477.333 1764.58 479.39ZM1714.84 479.138C1709.73 476.745 1715.92 474.815 1716.76 479.138H1714.84ZM1681.37 478.592C1681.28 478.172 1681.2 477.711 1681.12 477.291C1682.58 477.291 1682.66 478.172 1681.37 478.592ZM1499.5 476.242C1495.9 473.471 1500.71 469.778 1500.71 474.689C1500.35 475.444 1499.95 475.962 1499.5 476.242ZM1534.56 474.689C1533.72 473.304 1533.01 470.743 1533.1 468.812C1536.4 466.672 1538.24 474.059 1534.56 474.689ZM1679.19 472.59C1679.4 471.625 1679.27 471.541 1680.28 471.541C1680.28 472.674 1680.36 472.59 1679.19 472.59ZM1495.15 469.442C1488.58 462.81 1493.94 461.551 1497.2 467.05C1496.95 468.603 1496.95 469.148 1495.15 469.442ZM1655.55 459.704C1653.55 458.487 1653.88 454.164 1656.47 454.626C1657.39 456.179 1657.1 458.613 1655.55 459.704ZM1486.45 458.907C1480.67 456.934 1483.02 453.912 1488.21 457.018C1489.08 458.739 1487.95 458.781 1486.45 458.907ZM1656.89 453.367C1650.49 449.169 1659.11 447.7 1658.11 452.947C1657.73 453.073 1657.31 453.241 1656.89 453.367ZM1662.87 451.016C1659.53 448.288 1662.54 442.747 1664.63 445.728C1664.51 447.784 1665.43 450.68 1662.87 451.016ZM1654.72 440.481C1650.66 437.207 1646.98 438.844 1646.98 432.296C1648.78 426.63 1642.63 431.205 1639.74 429.82C1636.56 429.82 1637.73 438.718 1634.76 435.276C1635.09 429.19 1637.81 423.02 1645.26 423.02C1650.41 426.588 1660.36 415.507 1652.08 415.339C1647.86 420.04 1647.02 415.591 1644.05 417.648C1644.38 424.321 1635.18 419.075 1639.53 414.878C1639.91 410.974 1636.89 413.702 1635.3 412.191C1635.81 401.572 1633.88 405.518 1642.33 406.525C1643.25 407.406 1643.55 409.085 1644.22 410.219C1647.6 410.68 1647.39 410.764 1648.02 413.912C1654.47 414.332 1649.86 409.799 1647.98 410.554C1648.32 407.448 1654.88 404.049 1647.56 401.698C1646.73 402.789 1647.27 403.293 1647.23 404.594C1643.42 407.826 1642.96 400.229 1642.37 399.306C1641.62 394.563 1638.82 397.207 1634.76 397.207C1633.92 396.326 1635.22 395.528 1634.3 394.647C1629.45 394.647 1636.52 402.789 1630.37 403.251C1623.92 396.661 1628.4 396.829 1627.31 390.785C1624.8 388.351 1618.28 379.495 1625.01 379.285C1626.73 372.779 1624.43 363.629 1634.05 368.246C1639.4 368.246 1637.14 367.784 1637.14 372.569C1641.37 379.579 1629.78 383.65 1634.34 387.176C1640.2 387.176 1631.45 390.575 1636.1 391.667C1641.2 389.652 1643.59 394.773 1647.6 392.674C1653.59 392.674 1643 400.565 1653.92 400.565C1656.22 401.698 1658.31 408.54 1656.35 409.757C1652.04 409.883 1656.85 417.396 1657.14 414.92C1662 416.053 1663.42 429.904 1660.78 433.597C1660.28 436.787 1656.18 429.526 1656.18 434.353C1657.35 436.871 1658.48 440.061 1654.67 440.439L1654.72 440.481ZM1631.33 438.928C1628.61 437.249 1633.46 434.563 1633.34 438.508C1633.11 438.704 1632.45 438.844 1631.33 438.928ZM1394.53 438.676C1394.14 438.396 1393.64 438.172 1393.03 438.005C1390.6 435.024 1387.38 416.682 1394.24 416.431C1399.13 418.277 1404.74 431.247 1401.39 435.36C1399.05 436.703 1397.25 438.382 1394.49 438.676H1394.53ZM1627.23 436.577C1625.89 434.899 1628.74 433.304 1628.69 436.158C1628.47 436.354 1627.98 436.493 1627.23 436.577ZM1609.53 425.79C1609.16 419.117 1620.08 415.213 1622.21 408.582C1623.26 407.616 1627.31 399.18 1627.31 405.098C1625.6 406.945 1624.38 407.49 1624.38 409.967C1627.31 412.905 1618.44 415.045 1617.15 419.453C1614.47 420.04 1611.62 425.79 1609.53 425.79ZM509.054 419.201C513.238 418.109 511.188 413.325 507.841 413.325C507.088 415.423 506.878 417.9 509.054 419.201ZM544.95 410.806C546.414 410.47 546.038 410.135 546.038 408.708C543.988 408.54 543.193 409.421 544.95 410.806ZM550.096 406.063C554.029 405.686 553.652 403.545 549.008 404.217C549.008 405.518 549.301 405.098 550.096 406.063ZM537.88 405.811C539.009 405.77 540.097 405.686 541.227 405.644C542.775 402.873 535.662 403.041 537.88 405.811ZM528.09 404.217C528.424 404.175 528.675 404.091 529.01 404.049C529.01 400.859 525.621 402.58 528.09 404.217ZM523.739 403.965C524.659 403.853 525.259 403.685 525.538 403.461C525.329 401.111 521.061 401.069 523.739 403.965ZM567.542 403.419C567.919 403.083 568.337 402.789 568.713 402.454C571.726 396.619 563.526 401.32 567.542 403.419ZM579.507 398.928C580.762 398.13 580.679 398.172 580.679 396.703C579.214 394.017 576.244 397.039 579.507 398.928ZM570.805 394.983C572.27 394.647 571.977 394.227 572.018 392.758C570.094 390.114 568.421 394.269 570.805 394.983ZM570.01 389.736C573.776 388.603 569.843 385.958 569.843 383.398C566.329 379.285 568.044 388.057 570.01 389.736ZM565.91 381.845H567.291C569.885 375.046 565.199 377.858 565.91 381.845ZM564.279 377.102C565.785 376.347 567.458 375.885 566.329 374.206C565.91 369.505 563.358 375.969 564.279 377.102ZM559.384 373.702C560.89 373.702 560.806 370.638 560.304 369.631C556.372 368.372 558.965 371.352 559.384 373.702ZM476.212 373.451C478.053 372.401 478.68 372.233 480.856 372.233C485.5 368.498 473.283 365.937 469.853 367.532C467.886 371.352 473.827 372.359 476.212 373.451ZM508.552 372.107C509.849 372.023 512.234 371.688 512.401 370.345C516.626 367.406 522.191 369.589 526.835 369.589C532.357 367.406 519.513 361.446 518.049 360.397C511.69 359.096 504.41 358.802 497.925 359.264C497.549 362.915 501.607 361.572 499.097 364.804C500.477 370.89 492.445 362.538 492.068 368.75C497.674 372.443 502.444 367.532 508.552 372.149V372.107ZM548.213 372.107C548.632 372.023 553.066 365.644 550.012 365.434C545.996 369.547 546.373 366.315 548.213 372.107ZM538.423 371.31C550.054 370.806 540.599 366.945 534.574 366.945C531.144 369.043 536.75 370.638 538.423 371.31ZM530.014 370.764C530.391 370.596 530.809 370.47 531.186 370.345C531.186 366.693 527.462 369.547 530.014 370.764ZM1630.49 364.972C1629.36 362.957 1631.2 362.496 1632.92 362.622C1632.29 364.426 1632.33 364.51 1630.49 364.972ZM19.1854 364.468C20.7752 364.301 23.913 363.083 23.913 361.278C17.5538 352.716 16.6334 361.782 19.1854 364.468ZM484.872 360.775C487.55 360.481 499.306 358.047 491.148 355.108C482.948 353.975 476.84 349.484 470.564 344.363C467.928 343.314 465.334 343.272 462.573 343.272C454.959 338.781 443.747 339.243 435.923 342.769C432.534 345.329 426.97 349.568 435.965 348.561C447.428 342.601 449.562 344.112 461.485 350.408C467.217 350.743 466.589 351.373 470.982 354.857C477.593 356.955 470.857 358.005 474.539 360.355C478.304 360.145 481.358 359.474 484.914 360.775H484.872ZM13.2028 356.326C19.1854 354.269 17.0517 353.681 12.115 351.457C8.22416 351.625 11.6129 354.983 13.2028 356.326ZM1634.59 356.326C1634.34 355.99 1634.13 355.654 1633.88 355.276C1634.01 352.212 1638.94 355.822 1634.59 356.326ZM306.019 352.632C306.94 352.52 307.525 352.38 307.777 352.212C307.986 345.539 300.957 347.134 306.019 352.632ZM6.96906 352.38C7.42926 352.17 7.88947 352.003 8.30783 351.835C8.68436 347.511 2.32516 348.519 6.96906 352.38ZM-7.46469 348.435C-6.25142 348.225 -5.74937 348.561 -6.0004 347.26C-7.21367 347.26 -7.08816 347.302 -7.46469 348.435ZM1628.61 348.435C1623.13 341.467 1624.8 336.976 1630.45 330.387C1640.62 326.525 1634.59 336.64 1633.88 341.887C1633.21 343.482 1631.79 344.531 1631.71 346.21C1633.21 349.022 1631.37 347.805 1628.61 348.435ZM-2.82079 347.637C-1.10548 347.637 -0.436089 347.26 -1.35651 345.413C-2.98814 345.371 -2.98814 346.21 -2.82079 347.637ZM1646.56 335.255C1644.3 332.443 1649.7 332.527 1651.16 332.611C1651.41 335.549 1648.94 335.129 1646.56 335.255ZM1229.23 335.004C1225.3 333.576 1227.52 320.439 1223.38 325.14C1222.21 331.94 1218.86 330.89 1219.07 324.888C1221.91 320.775 1213.84 316.578 1210.91 315.36C1204.43 307.763 1206.31 302.223 1216.18 302.223C1220.74 304.447 1221.66 310.408 1224.72 313.849C1226.18 314.689 1227.69 315.57 1229.23 316.41C1237.9 319.725 1240.57 325.686 1249.9 321.153C1255.22 321.153 1245.26 332.401 1243.12 334.038C1238.4 334.5 1234.05 334.878 1229.23 335.004ZM465.293 334.752C466.129 334.626 466.464 334.626 467.05 334.038C467.384 328.792 458.473 330.009 465.293 334.752ZM1641.62 334.5C1641.62 334.038 1641.54 333.535 1641.5 333.073C1643 333.073 1642.96 334.248 1641.62 334.5ZM1655.47 333.451C1651.79 329.421 1659.69 330.345 1656.64 333.283C1656.26 333.325 1655.85 333.409 1655.47 333.451ZM1670.7 325.812C1667.52 323.713 1672.2 320.355 1673.75 318.676C1673.75 314.773 1677.35 310.156 1681.66 310.156C1683.54 312.254 1674.67 318.131 1674.59 321.404C1673.33 323.209 1672.5 324.51 1670.7 325.77V325.812ZM1663.33 323.461C1663.25 323.041 1663.17 322.58 1663.08 322.118C1664.46 322.244 1664.88 323.167 1663.33 323.461ZM1680.45 305.833C1679.82 305.119 1680.03 304.363 1680.03 303.44C1681.91 300.124 1683.63 304.657 1680.45 305.833ZM1036.16 300.04C1030.09 296.85 1026.87 295.507 1020.09 295.171C1016.58 293.618 1017.33 290.974 1015.45 288.582C1007.92 287.449 1000.35 285.728 992.94 284.259C991.308 279.348 985.995 282.454 985.995 279.222C988.422 275.822 992.061 275.151 990.346 270.282C986.372 266.84 996.078 262.181 987.752 263.062C982.815 259.747 979.217 261.719 973.653 263.608C970.013 263.188 966.75 262.811 963.068 262.811C955.119 265.958 948.132 262.517 939.681 265.413C932.778 265.665 927.842 268.855 921.189 269.904C916.546 272.548 915.123 274.605 908.889 272.254C905.333 273.094 897.928 273.639 895.753 269.862C895.502 263.524 910.27 265.329 913.24 265.371C914.747 264.154 915.751 262.643 917.257 261.467C919.683 260.67 927.005 255.088 927.005 252.653C923.449 247.197 927.925 245.979 931.649 241.195C935.958 240.229 943.279 239.054 945.455 234.857C942.317 221.677 956.291 229.82 962.692 229.82C971.017 225.203 976.665 218.697 985.409 225.371C987.208 229.4 989.551 232.674 993.735 234.521C1001.01 239.348 1014.15 242.118 1018.84 249.883C1019.97 261.425 995.157 252.527 998.881 259.747C1002.94 261.719 1015.53 269.82 1015.53 261.509C1014.32 257.606 1018 258.571 1020.3 257.648C1025.78 251.898 1028.04 252.611 1022.9 247.658C1022.9 239.474 1032.06 249.841 1034.02 246.189C1034.02 240.649 1025.15 240.019 1021.31 238.173C1019.17 233.975 1012.52 234.227 1008.17 230.953C1007.12 229.4 1006.03 226.798 1004.82 225.077C991.936 219.789 1002.94 212.233 1004.95 217.018C1008.5 221.09 1010.26 216.641 1012.9 223.356C1015.32 225.707 1020.68 228.645 1023.61 230.576C1029.51 231.541 1038.37 232.842 1038.37 240.229C1036.28 247.197 1044.52 248.54 1045.49 254.122C1047.91 257.102 1043.69 257.942 1046.45 259.537C1050.63 259.537 1051.05 259.537 1052.01 263.356C1055.24 266 1064.56 270.827 1059.84 262.853C1059.84 259.747 1062.68 263.272 1062.85 260.25C1059.25 255.927 1070.13 260.46 1066.91 264.447C1066.91 267.679 1071.01 263.44 1073.06 266.924C1075.86 267.805 1074.48 262.139 1079 261.383C1080.34 259.789 1080.42 258.487 1077.91 258.529C1074.65 260.376 1068.66 256.976 1067.24 253.451C1066.87 253.409 1052.43 253.367 1059.42 249.799C1061.51 246.861 1054.98 246.315 1058.29 244.301C1060.13 244.552 1067.58 249.253 1067.7 244.217C1066.66 241.614 1074.98 240.187 1076.2 244.72C1079.84 249.337 1074.69 250.303 1080.09 253.451C1070.25 255.423 1083.64 256.011 1083.77 260.796C1082.18 265.791 1086.19 264.699 1087.07 269.19C1090.84 272.842 1089.37 261.971 1096.4 267.721C1104.06 270.492 1102.93 264.993 1108.16 264.867C1113.97 268.015 1118.99 270.785 1125.35 267.092C1128.49 263.944 1130.63 265.875 1134.85 265.917C1134.35 271.667 1135.69 275.78 1132.68 280.859C1124.6 290.68 1129.83 296.011 1114.06 294.836C1106.74 291.562 1103.31 293.912 1095.65 296.934C1089.42 296.934 1083.43 292.989 1076.86 292.989C1072.89 294.08 1073.89 292.737 1071.38 290.89C1060.26 289.799 1053.02 281.824 1042.18 290.261C1040.26 294.374 1045.03 296.934 1038.84 299.83C1037.96 299.83 1036.99 299.914 1036.07 299.998L1036.16 300.04ZM1674.76 288.96C1673.92 288.036 1674.42 287.197 1674.92 286.231C1679.11 283.041 1677.85 288.498 1674.76 288.96ZM1694.59 284.468C1692.37 280.481 1699.23 280.607 1696.09 283.419C1695.67 284.51 1695.8 284.468 1694.59 284.468ZM1116.9 277.123C1108.2 273.178 1121.76 271.709 1125.14 271.751C1127.28 276.074 1119.41 276.955 1116.9 277.123ZM1072.3 275.276C1069.79 274.647 1067.24 273.975 1064.69 273.304C1060.26 269.023 1082.97 271.709 1078.04 275.151C1076.15 275.151 1074.23 275.234 1072.3 275.276ZM1083.98 272.926C1081.42 270.156 1085.44 267.05 1085.44 271.961C1084.94 272.408 1084.45 272.73 1083.98 272.926ZM1227.27 265.287C1223.92 264.28 1222.46 262.978 1219.91 260.964C1207.4 257.438 1212.21 254.962 1215.72 246.735C1217.27 245.224 1220.78 245.098 1219.07 242.79C1213.09 240.313 1207.61 235.025 1203.71 229.778C1203.71 224.238 1204.38 224.531 1199.91 221.635C1199.91 213.073 1209.45 215.507 1213.8 210.974C1219.03 208.75 1239.48 202.538 1234.67 214.332C1229.95 217.522 1225.51 212.611 1223.42 219.747C1218.61 219.914 1217.69 221.09 1222.08 223.44C1224.88 229.19 1225.64 228.309 1231.16 231.499C1232.71 233.64 1229.19 237.501 1233.25 237.501C1237.64 232.171 1238.77 235.738 1242 238.844C1250.32 242.832 1235.05 242.076 1233.42 243.167C1233.42 245.98 1235.72 246.231 1235.85 248.456C1232.79 252.821 1237.14 250.303 1239.36 253.073C1240.03 264.489 1239.23 263.734 1227.31 265.287H1227.27ZM1051.64 257.144C1051.64 253.996 1063.02 255.801 1057.08 257.018C1055.28 257.018 1053.48 257.102 1051.64 257.144ZM481.023 254.248C481.525 254.206 481.985 254.122 482.488 254.08C485.332 247.826 479.643 250.093 481.023 254.248ZM1067.83 253.996C1065.32 249.127 1073.43 251.52 1069.59 253.828C1069 253.828 1068.41 253.912 1067.83 253.996ZM976.331 253.199C973.067 250.513 975.076 246.273 973.486 242.412C973.486 237.753 977.586 242.202 977.544 238.173C975.075 234.185 975.912 228.477 981.518 229.778C982.104 232.926 981.644 235.822 981.644 238.97C986.33 245.476 984.614 252.611 976.372 253.199H976.331ZM1148.15 240.565C1142.97 239.306 1138.2 236.955 1132.93 236.242C1128.66 232.842 1129.12 235.193 1124.22 235.193C1118.62 233.136 1111.8 237.627 1106.57 239.642C1101.34 239.474 1088.24 239.558 1088.24 231.625C1089.67 229.148 1090.25 228.477 1092.8 227.218C1094.6 222.433 1093.68 221.551 1098.45 219.663C1100.92 216.179 1105.44 204.972 1110.59 211.688C1113.39 212.611 1119.58 210.555 1119.12 213.241C1110.96 217.018 1120.42 215.507 1120.54 220.544C1122.01 224.238 1131.46 219.243 1134.27 218.32C1139.95 218.32 1140.67 217.522 1145.14 220.67C1152.3 223.776 1158.91 227.637 1166.06 230.659C1175.64 241.027 1153.51 240.019 1148.11 240.523L1148.15 240.565ZM446.759 239.222C452.616 237.669 459.645 236.746 464.539 233.01C465.795 229.484 464.707 229.358 461.402 230.114C453.746 230.114 449.436 233.682 443.663 236.494C443.579 238.089 445.462 238.466 446.759 239.222ZM442.701 232.129C448.098 228.645 445.587 217.816 449.06 212.947C449.06 212.15 448.767 211.898 448.641 211.1C441.362 212.863 434.04 208.288 430.568 202.412C426.175 188.771 414.252 197.375 406.805 202.832C399.065 206.819 388.103 208.96 400.571 212.024C407.892 212.024 411.616 202.202 418.519 208.876C420.694 209.757 433.078 207.91 429.94 212.317C422.242 214.584 414.461 219.117 417.347 227.763C422.117 231.121 426.301 220.04 428.685 217.732C431.739 213.367 440.107 215.046 440.107 220.334C437.764 227.931 443.412 226.336 442.701 232.171V232.129ZM467.97 230.03C471.526 229.904 475.124 229.988 478.388 228.561C483.868 222.139 470.522 223.188 467.343 224.951C465.753 227.805 464.33 228.813 467.97 230.03ZM1785.12 220.04C1781.57 216.305 1795.96 212.359 1792.57 216.976C1790.06 218.278 1788.01 219.789 1785.12 220.04ZM1796 215.801C1792.69 212.317 1805.08 208.372 1802.07 212.737C1799.89 214.248 1798.59 215.297 1796 215.801ZM1132.68 215.549C1127.07 209.295 1134.01 209.631 1139.7 209.337C1145.73 207.407 1143.43 206.273 1146.9 210.722C1146.9 217.06 1136.57 215.423 1132.68 215.549ZM1809.6 209.505C1807.5 206.903 1813.03 204.049 1815.41 204.133C1814.62 206.777 1812.32 208.792 1809.6 209.505ZM211.05 205.56C218.538 203.923 204.941 189.652 204.941 196.116C206.155 197.837 206.782 199.432 208.832 200.145C210.715 201.992 209.46 203.923 211.05 205.56ZM566.663 205.014C567.807 204.902 568.616 204.72 569.09 204.469C570.512 200.733 564.362 201.698 566.663 205.014ZM1816.92 203.965C1814.07 203.335 1817.59 200.439 1819.47 200.439C1819.47 202.454 1818.93 203.251 1816.92 203.965ZM1822.9 198.97C1819.93 197.123 1823.32 195.235 1824.7 193.598C1822.69 188.729 1829.13 192.968 1825.7 196.955C1824.78 197.627 1823.86 198.299 1822.9 198.97ZM528.048 197.417C529.219 197.207 530.391 197.039 531.562 196.871C531.562 194.143 526.584 195.57 528.048 197.417ZM888.515 191.877C886.172 189.274 891.904 189.358 889.435 191.709C889.142 191.709 888.85 191.793 888.515 191.877ZM200.423 190.576H200.967C201.302 185.329 196.574 189.148 200.423 190.576ZM-100.552 182.013C-107.204 178.362 -99.6314 178.697 -96.1171 178.949C-89.7579 175.549 -86.7875 180.922 -95.5314 180.754C-97.6233 179.705 -98.5437 181.342 -100.594 181.971L-100.552 182.013ZM-77.7507 179.873C-83.315 178.32 -85.114 173.996 -78.5456 177.606C-73.8181 177.732 -72.1027 179.495 -77.7507 179.873ZM-116.91 179.621C-117.036 178.487 -117.203 178.487 -116.073 178.278C-115.822 179.117 -116.157 179.411 -116.91 179.621H-116.868H-116.91ZM-71.2242 177.774C-71.2242 177.312 -71.3078 176.809 -71.3497 176.347C-69.8436 176.347 -69.8854 177.522 -71.2242 177.774ZM-61.4343 175.927C-62.9405 173.241 -58.3384 173.912 -60.2629 175.759C-60.6394 175.801 -61.0578 175.885 -61.4343 175.927ZM-57.0833 175.675C-56.4557 175.465 -55.87 175.298 -55.2843 175.13C-51.1424 171.436 -61.4343 172.821 -57.0833 175.675ZM158.795 174.374C162.853 172.695 158.879 171.352 158.963 169.086C164.234 162.412 146.202 172.653 154.444 172.653C156.703 171.268 157.08 173.241 158.795 174.374ZM-51.6027 171.73C-50.0965 171.73 -50.5149 171.31 -50.5149 169.883C-51.4771 169.967 -53.2761 171.016 -51.6027 171.73ZM-43.7373 170.177C-40.3485 169.086 -38.8006 167.994 -34.7424 167.533C-35.4118 162.328 -47.0006 166.693 -43.7373 170.177ZM1007.83 167.826C1003.9 165.77 1002.06 163.839 997.793 165.56C992.647 164.846 997.626 163.713 999.508 161.447C1000.09 158.592 1005.7 162.034 1009.42 160.523C1014.28 154.689 1022.52 157.753 1025.32 150.911C1025.45 146.756 1024.57 148.687 1023.02 149.107C1023.94 140.544 1029.92 140.544 1036.2 136.976C1038.79 129.463 1023.61 130.89 1027.54 125.35C1028.84 124.846 1028.38 123.083 1028 122.034C1032.06 116.452 1039.04 115.864 1044.73 113.178C1047.45 112.38 1050.05 112.213 1051.39 109.61C1049.34 98.2357 1064.48 103.944 1069.42 102.139C1080.8 102.139 1063.81 110.282 1062.43 111.331C1058.58 112.506 1057.24 112.968 1054.57 115.822C1044.61 119.222 1051.39 119.348 1051.39 126.777C1050.47 129.967 1051.64 130.848 1051.72 133.828C1055.86 134.29 1060.05 135.13 1064.31 135.549C1067.66 133.535 1092.01 128.792 1091.88 133.703C1089.21 138.907 1067.12 132.066 1063.9 137.144C1060.46 139.453 1053.48 138.697 1061.39 142.937C1064.56 142.937 1063.02 139.243 1066.95 142.559C1073.52 153.807 1057.49 146.378 1054.31 146.378C1050.47 148.477 1049.88 149.526 1047.87 153.388C1047.87 160.355 1050.17 161.153 1043.14 161.614C1042.18 162.286 1041.47 163.251 1040.51 163.965C1029.63 162.748 1021.85 163.629 1011.35 167.658C1010.18 167.658 1009.01 167.742 1007.79 167.826H1007.83ZM898.263 167.575C898.263 165.182 898.388 165.35 900.815 165.35C900.815 167.323 900.229 167.155 898.263 167.575ZM992.354 166.525C989.844 163.881 995.073 163.923 995.073 166.273C994.195 166.357 993.275 166.441 992.354 166.525ZM987.166 164.678C983.694 162.412 983.276 160.145 987.961 162.664C991.81 163.335 991.099 164.427 987.166 164.678ZM992.354 161.782C992.075 161.251 991.894 160.733 991.81 160.229C993.358 160.439 994.321 161.447 992.354 161.782ZM19.3946 157.837C20.566 157.837 20.4824 157.921 20.4824 156.788C19.3528 156.955 19.2691 156.704 19.3946 157.837ZM140.889 155.99C144.654 155.99 141.809 147.176 138.588 147.176C138.588 150.198 138.337 153.891 140.889 155.99ZM465.209 155.99C466.087 155.822 466.924 155.696 467.761 155.57C470.69 152.758 461.444 150.66 461.569 154.227C463.033 154.899 463.786 154.899 465.209 155.99ZM27.2599 154.395C28.1385 154.227 28.9753 154.101 29.812 153.975C29.812 150.114 24.9171 152.968 27.2599 154.395ZM135.743 151.751C136.12 151.667 136.496 151.541 136.831 151.499C138.965 147.386 131.643 147.302 135.743 151.751ZM1032.85 151.751C1026.03 146.504 1037.29 145.077 1037.75 141.509C1043.44 140.586 1036.03 150.576 1032.85 151.751ZM32.9498 150.702C37.4682 150.366 43.3253 141.593 37.3008 140.964C35.5855 145.791 25.5028 144.28 25.5028 148.435C26.7161 149.61 30.9834 150.072 32.9498 150.702ZM990.179 149.904C990.067 149.177 990.067 148.659 990.179 148.351C992.312 148.603 991.894 149.652 990.179 149.904ZM668.578 135.675C676.109 133.745 675.816 133.367 679.33 126.441C682.175 123.251 673.515 119.474 677.991 118.634C679.121 122.412 683.639 120.019 682.175 116.746C679.498 116.368 688.032 114.563 689.246 114.227C692.509 110.324 689.078 108.309 689.078 105.203C691.128 103.23 706.566 100.754 709.495 103.188C710.917 103.188 711.043 103.146 712.047 102.181C721.795 98.9492 727.526 99.4948 734.597 91.1423C740.454 88.2881 746.311 90.5966 752.838 88.2042C761.289 87.3647 769.489 86.2315 777.856 84.8044C785.345 81.1108 794.298 80.3553 800.741 75.3186C800.908 64.6575 794.8 67.3018 786.516 64.2798C784.299 64.0279 773.965 65.5809 775.764 59.9986C778.442 59.7467 792.959 54.5841 792.625 60.4603C790.867 61.5935 787.186 60.838 785.178 60.3343C780.032 62.433 796.557 66.0426 798.44 65.1192C801.243 61.2577 797.603 62.1392 797.185 59.4949C801.912 57.8999 799.193 63.1465 803.209 61.3837C806.682 53.4088 800.323 59.6208 796.976 54.9199C796.976 51.646 800.783 55.0877 802.038 55.0877C805.678 53.3669 815.76 55.7173 815.593 51.8139C813.669 51.4781 812.246 51.8139 812.246 49.6733C819.275 38.5505 800.113 44.0909 799.988 39.9776C804.255 38.9283 809.318 39.4319 813.669 40.0615C816.472 42.2021 818.312 47.1129 818.48 40.9849C826.847 36.1161 807.393 32.4645 804.716 32.1707C801.494 33.22 801.494 32.4645 802.917 30.072C808.648 25.2032 811.326 28.8968 816.053 28.6869C817.183 32.6743 825.09 28.1413 824.797 25.8328C821.534 22.391 816.263 33.136 816.137 25.2032C814.422 24.6995 813.083 22.7688 814.505 21.3837C822.161 21.3837 824.337 20.88 830.027 17.9419C834.922 17.774 854.669 15.9272 854.46 11.5201C844.963 9.04372 833.123 10.0511 823.166 10.0511C822.385 10.4428 821.213 11.3242 819.651 12.6953C816.388 12.4855 813.167 12.3176 809.903 12.1497C806.138 10.5967 802.498 12.6534 798.565 13.4928C791.453 10.0511 804.548 7.5327 800.113 5.85379C794.173 5.05631 782.291 5.93774 777.898 2.45401C753.131 0.14551 725.644 -1.65931 701.085 2.45401C696.358 8.28821 681.129 0.942991 673.64 3.79713C668.453 3.62924 664.353 2.41203 659.5 4.04897C650.672 4.4687 660.462 7.23889 663.558 7.74257C669.959 12.7373 651.551 8.58202 651.09 8.54005C647.116 7.78454 627.829 4.63659 627.829 7.91046C628.917 8.79188 629.586 9.12766 630.925 9.50542C630.507 13.0731 620.842 7.36481 617.286 9.08569C612.14 13.7027 614.483 10.7646 609.002 7.9944C597.748 7.9944 579.717 6.73522 570.303 14.2903C568.17 14.2903 563.86 13.7866 560.806 13.7866C558.003 14.2903 543.36 18.4876 552.732 12.1917C555.911 12.1917 569.634 12.5275 568.588 7.74257C565.534 6.73522 562.731 6.77719 559.509 6.65128C557.083 5.14026 557.25 4.30081 554.029 5.35012C541.896 5.35012 529.68 3.79713 517.589 3.79713C511.188 5.35012 505.916 2.45401 499.892 5.35012C488.47 3.92305 477.718 4.30081 466.464 4.30081C462.699 6.06366 461.234 5.60196 457.218 4.55264C453.495 6.39944 449.938 6.69325 445.838 6.81917C445.127 11.3942 433.538 6.6093 431.028 7.74257C430.108 10.5128 427.932 9.79923 425.171 9.79923C419.188 8.07835 412.745 8.95977 406.888 10.8485C402.83 10.4288 391.367 7.65862 391.367 13.0311C385.175 15.1717 373.419 10.0091 376.054 20.5023C375.552 22.9367 372.331 23.1885 370.197 23.7342C367.645 27.2179 374.674 26.2945 376.431 26.3784C383.041 31.667 387.225 31.4571 395.76 33.0101C396.345 33.8076 396.513 33.8076 395.927 34.5631C395.843 37.1654 405.382 40.3134 397.433 41.3627C392.203 39.0962 386.723 41.2787 381.661 39.7677C379.276 36.9136 377.644 38.2147 373.795 38.2147C363.252 35.5705 377.1 36.3679 380.405 36.3679C383.167 33.6817 374.255 34.3532 372.833 30.4498C370.197 28.645 361.077 27.7635 357.102 27.7635C349.948 34.689 379.401 34.2693 364.507 38.2567C358.567 41.6145 368.315 41.7404 371.327 43.2515C380.824 43.2515 386.012 39.6418 391.325 51.0584C396.513 55.0877 406.302 50.051 411.825 52.7373C418.603 52.7373 425.255 52.1916 431.948 52.1916C435.839 53.5767 436.383 51.688 440.107 51.688C444.876 53.8705 455.503 54.7939 459.268 51.1423C462.489 41.5725 442.157 44.5946 437.68 44.5946C432.827 46.0636 411.197 48.7918 408.185 44.7205C408.185 42.1182 409.357 42.4959 411.825 42.4959C418.352 43.4193 421.322 40.5652 427.89 42.9996C433.915 42.4959 439.646 42.7898 445.336 41.1528C448.181 41.6145 450.189 41.6985 453.16 41.6985C456.047 45.9797 460.147 41.8664 463.703 45.8957C465.669 45.8957 471.024 42.3281 470.982 40.4393C464.247 34.773 478.931 33.178 482.571 33.0521C484.328 30.6596 480.981 28.0154 479.057 26.7142C472.196 25.2871 482.697 25.0353 484.161 25.1612C487.592 26.5883 510.058 24.6576 512.568 21.7195C513.196 18.5715 515.371 19.369 518.133 19.9146C521.354 19.9146 533.487 15.8853 534.114 18.9493C533.947 18.9493 533.821 18.9493 533.654 18.9912C533.068 24.7835 546.875 21.7614 550.724 21.6775C550.724 25.0353 537.629 25.9587 535.83 26.2105C525.078 26.2105 514.618 28.8128 503.741 29.1067C497.967 31.2053 505.038 32.8842 507.297 33.3459C509.891 35.8643 501.482 33.8076 504.745 37.2494C512.526 37.6691 519.22 41.7824 526.584 44.0909C534.951 44.0909 544.281 45.1822 551.937 42.7898C563.902 42.7898 577.834 42.2441 586.871 50.135C588.628 50.9744 594.694 51.3102 592.017 53.8705C592.017 57.774 596.493 53.5767 598.501 57.6901C605.028 61.4676 596.409 68.603 604.066 70.7016C611.638 70.7016 615.445 68.2672 622.181 72.5064C624.524 72.7582 628.373 72.5484 627.955 75.2346C621.01 73.7656 612.098 69.7782 604.777 74.3952C605.07 78.0048 607.413 75.7803 609.63 76.7457C609.63 83.5872 624.608 85.7278 624.608 79.222C625.277 78.5925 630.716 80.0615 631.427 80.3553C631.092 89.1276 618.374 82.1601 614.483 87.3647C612.349 95.0457 609.253 99.0751 618.918 104.028C619.587 105.063 620.661 107.092 622.139 110.114C626.407 112.171 626.114 104.993 630.674 106.756C635.904 111.835 623.269 113.556 630.674 116.494C635.401 122.16 636.824 125.854 643.685 128.036C649.542 132.317 651.843 130.345 659.541 129.086C660.922 127.742 661.257 129.379 660.336 129.505C659.039 134.542 664.687 133.451 668.495 135.801L668.578 135.675ZM-38.8005 135.13C-38.1869 135.018 -37.6988 134.794 -37.3363 134.458C-37.3363 129.925 -45.4945 130.429 -38.8005 135.13ZM66.9632 135.13C70.2683 134.668 72.2765 130.303 67.1305 133.199C66.5867 134.164 66.503 134.206 66.9632 135.13ZM530.223 133.577C531.06 133.409 531.562 132.947 532.106 132.779C530.893 127.491 527.211 131.604 530.223 133.577ZM548.172 127.533C548.813 127.337 549.385 127.015 549.887 126.567C551.393 122.076 545.452 124.636 548.172 127.533ZM461.444 125.392C463.954 125.098 463.535 122.286 463.996 120.019C460.942 117.081 461.402 124.259 461.444 125.392ZM447.303 119.348C448.39 119.236 449.06 119.096 449.311 118.928C449.311 114.311 444.29 115.444 447.303 119.348ZM814.296 114.857C810.489 114.521 807.853 113.514 804.255 112.338C802.456 112.338 791.119 114.101 794.382 109.484C800.155 107.05 788.357 108.141 787.186 106.714C789.403 102.181 783.881 105.203 783.881 101.426C786.475 101.048 789.32 100.586 790.156 97.4801C794.717 96.4308 802.456 95.7593 803.335 101.426C804.632 102.307 805.971 102.097 807.309 101.3C810.071 97.0604 819.191 99.5368 823.626 99.9565C826.638 99.243 828.353 97.1024 831.366 96.5568C838.436 101.845 841.448 93.4508 847.138 102.181C847.138 106.294 847.138 106.378 843.206 106.798C839.942 109.61 835.256 110.744 831.24 112.59C829.608 112.59 827.433 112.045 825.257 112.045C821.534 114.185 818.856 114.311 814.38 114.815L814.296 114.857ZM986.12 114.605C985.828 111.247 994.739 111.289 988.589 114.185C987.752 114.311 986.957 114.437 986.12 114.605ZM790.909 104.867C787.981 103.608 797.018 101.593 797.018 104.154C795.009 104.867 793.085 104.783 790.909 104.867ZM512.526 98.2776C513.335 98.1657 514.005 97.9279 514.535 97.5641C514.911 94.2483 509.598 95.9272 512.526 98.2776ZM299.66 94.3322C301.041 93.7866 298.531 89.0856 297.317 88.1622C293.217 87.5746 295.267 85.6439 293.092 84.6785C286.607 85.9796 270.709 90.1349 265.27 86.1475C264.475 84.8884 263.973 83.6711 262.676 82.8317C254.978 82.412 256.777 82.6218 256.945 88.6659C260.459 92.3595 285.143 90.051 290.372 87.6166C292.632 87.6166 292.171 88.2462 292.464 90.4707C295.644 90.8485 297.192 92.3175 299.66 94.3322ZM367.352 93.2829C369.779 93.031 369.402 91.1423 369.402 89.0856C371.41 86.3154 379.276 89.5893 379.067 85.0982C376.724 85.2241 373.628 85.8537 374.799 82.7477C376.807 80.9849 372.624 80.9429 371.452 80.7331C363.294 80.7331 372.415 84.0489 366.139 87.1129C365.219 88.7079 366.934 91.9817 367.31 93.2829H367.352ZM1000.81 90.9324C996.12 85.9796 1014.7 86.0636 1008.17 89.2115C1004.53 89.2115 1003.61 90.5547 1000.81 90.9324ZM494.076 89.3375C494.578 87.3228 496.712 87.4487 493.825 86.0216C489.223 86.6932 492.194 87.9943 494.076 89.3375ZM1013.86 87.7425C1009.05 84.8044 1009.84 84.5106 1014.9 83.1255C1019.38 83.1255 1016.45 87.0709 1013.86 87.7425ZM1206.89 84.0909C1204.93 80.9849 1212.5 77.4592 1212.42 81.2787C1211.29 82.9996 1208.82 83.6292 1206.89 84.0909ZM304.89 83.2934C306.187 82.8737 306.061 81.9922 304.597 81.9922C304.681 82.412 304.806 82.8737 304.89 83.2934ZM441.362 79.348C443.119 79.348 442.366 78.0888 444.918 78.6764C449.102 78.6764 441.362 75.7803 441.362 79.348ZM1268.65 79.348C1261.45 75.8642 1267.85 73.5977 1270.36 77.4172C1270.36 78.9702 1270.03 78.9702 1268.65 79.348ZM468.305 78.2986C472.53 77.9209 471.317 76.0321 467.677 76.0741C467.817 77.0535 468.026 77.795 468.305 78.2986ZM341.372 76.4518C342.376 76.242 342.543 76.158 342.878 75.1507C341.204 71.0374 338.861 74.4791 341.372 76.4518ZM256.819 75.6544H264.392V74.1014H256.819V75.6544ZM772.543 75.6544C768.778 74.7729 764.385 74.3112 760.578 74.605C760.578 70.8695 783.295 72.5064 774.969 75.5284C774.175 75.5284 773.338 75.6124 772.543 75.6544ZM783.964 75.6544C781.161 74.8149 775.346 71.4571 782.082 71.0374C783.713 71.9608 788.232 75.1507 783.964 75.6544ZM1407.88 75.6544C1405.49 73.2199 1407.67 72.1706 1410.05 70.4917C1411.18 70.8275 1410.31 75.3186 1407.88 75.6544ZM1871.68 75.1507C1869.38 72.4644 1866.7 77.0395 1867.88 72.5064C1868.8 72.5064 1876.87 74.4371 1871.68 75.1507ZM1251.28 74.8988C1242.66 73.6816 1234.21 75.6124 1228.23 69.0227C1220.91 67.2178 1227.69 64.7834 1231.16 64.4896C1235.68 62.1392 1239.32 60.3343 1240.15 55.6754C1243.12 55.1297 1254.09 55.5494 1254.09 51.646C1246.14 48.8758 1259.65 47.8684 1261.07 47.3648C1265.47 44.007 1267.18 44.6785 1273.04 44.4687C1276.97 44.007 1279.48 42.0762 1283.08 41.5725C1290.9 42.8317 1299.81 41.5725 1307.8 41.3207C1312.03 39.39 1329.27 32.3805 1324.71 42.8317C1324.41 42.9996 1324.12 43.2095 1323.83 43.4193C1309.77 43.4193 1294.96 47.1549 1281.15 48.4141C1276.05 49.5054 1277.31 53.6187 1271.07 52.0657C1269.02 52.0657 1267.72 51.7299 1266.09 52.9052C1265.26 57.6901 1256.35 59.5369 1252.04 60.7541C1240.57 66.966 1262.5 71.667 1259.69 74.3532C1256.89 74.5211 1254.04 74.647 1251.2 74.8149L1251.28 74.8988ZM1861.35 74.647C1856.41 72.0867 1864.32 70.3658 1862.52 74.2273C1862.14 74.3532 1861.73 74.5211 1861.35 74.647ZM1235.8 71.7509C1235.47 71.3312 1235.13 70.8695 1234.8 70.4078C1235.51 68.3931 1239.23 70.7016 1235.8 71.7509ZM351.454 70.9534C352.96 70.7436 353.923 69.988 355.261 69.2325C360.533 69.2325 365.219 69.2325 361.955 63.5662C361.997 61.7614 365.219 59.4109 361.453 59.5369C360.156 61.6775 355.805 59.1591 359.361 58.5715C362.75 51.9818 345.137 55.3396 343.589 55.4235C341.999 64.7415 334.427 59.1591 329.113 60.88C325.808 65.2871 339.656 66.3364 341.706 66.8821C344.97 68.477 347.982 69.9461 351.496 70.9534H351.454ZM1403.82 68.3511C1402.02 67.5536 1397.8 67.008 1397.29 65.2032C1401.14 64.9094 1415.24 67.7635 1403.82 68.3511ZM298.196 67.5536C298.572 67.4697 298.907 67.3857 299.284 67.3018C298.447 65.1612 296.397 66.4623 298.196 67.5536ZM471.652 66.5043C472.237 66.3364 472.823 66.2105 473.367 66.0846C477.467 61.5096 473.116 62.1392 468.347 62.1392C460.272 63.86 468.472 64.8674 471.652 66.5043ZM460.774 64.4057C463.703 63.6502 460.105 60.922 460.105 63.3983C460.356 63.7341 460.565 64.0699 460.774 64.4057ZM1429.13 59.1591C1425.45 56.179 1430.85 55.6754 1430.85 58.7394C1430.62 58.9352 1430.05 59.0752 1429.13 59.1591ZM1718.64 57.0605C1716.8 56.0811 1715.45 55.4655 1714.58 55.2137C1714.21 49.6733 1724.21 56.305 1718.64 57.0605ZM1601.21 54.9618C1600.08 53.3669 1601.08 51.5201 1602.42 53.0731C1602.21 54.2063 1602.42 54.9618 1601.21 54.9618ZM1419.89 54.2063C1417.17 52.9891 1420.01 49.0437 1420.3 53.9545C1420.18 54.0384 1420.01 54.1224 1419.89 54.2063ZM263.68 53.6607C269.036 53.4928 274.056 53.0731 279.453 53.241C290.289 49.4214 301.543 53.241 311.5 48.3721C314.01 43.6292 304.471 44.9723 302.505 45.0563C295.435 47.4907 292.339 35.2766 291.502 44.8884C289.954 47.9524 284.934 46.1895 282.382 45.8538C280.624 46.5673 279.62 47.4487 277.863 46.7352C275.855 41.9923 267.99 42.454 263.471 41.9923C263.848 39.9776 267.027 39.9356 264.266 37.9629C258.576 37.2494 258.074 37.3333 257.363 41.9923C248.745 41.1528 252.635 33.7656 245.732 36.1161C242.344 35.7803 238.955 35.4445 235.608 35.1088C233.851 37.837 229.876 37.5432 226.906 38.2567C222.304 41.2368 214.397 38.2567 210.046 42.4959C210.046 48.8758 220.923 42.6638 224.814 44.5526C228.998 44.5526 232.805 41.7404 236.821 40.6072C246.151 40.6072 230.211 47.7006 236.57 47.7006C240.754 46.3994 240.335 43.3354 240.503 48.4561C244.184 51.1003 255.439 49.1696 260.124 49.4634C259.831 52.5694 260.584 52.4435 263.764 53.6187L263.68 53.6607ZM1387.25 53.115C1384.32 51.1843 1389.14 49.2535 1388.97 52.1497C1388.47 52.5974 1387.89 52.9192 1387.25 53.115ZM1796.42 52.0657C1794.74 51.646 1773.16 50.5547 1778.76 46.4414C1787 46.4414 1794.62 48.1623 1802.82 47.4907C1808.93 50.3448 1798.64 51.8978 1796.42 52.1077V52.0657ZM1739.6 51.562C1735.38 50.3029 1724.25 53.3249 1724.25 46.3155C1726.51 41.9083 1733.08 42.2441 1737.43 42.2441C1747.3 47.4487 1745.21 41.0269 1754.29 43.5453C1757.26 44.8044 1779.85 44.1329 1768.68 49.5893C1758.93 51.7719 1749.52 51.2263 1739.6 51.562ZM319.114 50.7646C320.955 50.135 322.461 50.0091 323.633 48.4141C319.951 42.2861 316.437 49.1276 319.114 50.7646ZM346.559 50.7646C348.986 50.6386 349.572 50.3868 356.349 49.3375C360.031 46.4833 359.487 40.9849 354.467 40.3973C350.199 38.0049 336.267 38.9702 331.54 41.2368C330.619 42.6219 327.356 45.2242 327.273 45.2661C326.059 49.7572 337.857 45.518 339.991 48.7499C341.957 50.093 344.258 50.4708 346.601 50.8065L346.559 50.7646ZM806.807 50.7646C806.724 49.7152 806.347 48.9178 807.728 49.6313C807.895 50.8065 808.062 50.7646 806.807 50.7646ZM821.785 50.2189C818.396 47.9944 823.082 44.4267 822.956 49.5474C822.58 49.7992 822.162 50.0091 821.785 50.2189ZM800.323 49.9671C793.503 47.1549 802.038 45.8118 802.038 49.5474C801.494 49.6733 800.908 49.7992 800.323 49.9671ZM261.212 49.7152C261.84 49.6313 262.467 49.5474 263.095 49.4634C263.095 47.1549 259.078 48.3302 261.212 49.7152ZM1404.11 49.7152C1403.19 48.6659 1403.53 47.1969 1402.44 45.8957C1395.91 44.3008 1412.73 39.7677 1412.27 45.2661C1408.13 46.5673 1406.62 44.1749 1405.58 49.3375C1405.35 49.5334 1404.87 49.6733 1404.11 49.7572V49.7152ZM380.824 49.4634C371.913 47.1549 374.59 44.6785 381.702 47.5327C382.539 49.0437 382.455 49.4634 380.824 49.4634ZM1714.29 48.6659C1713.96 41.7404 1720.23 44.1329 1715.76 48.498C1715.3 48.54 1714.79 48.624 1714.29 48.6659ZM243.264 45.518C237.909 42.3281 253.556 40.6072 248.201 42.9576C248.075 44.0909 244.519 45.3921 243.264 45.518ZM319.114 43.6712C314.261 36.4519 328.569 38.9702 327.022 42.4959C324.26 43.1255 321.917 43.5453 319.114 43.6712ZM1484.86 41.5725C1482.39 39.6418 1489.29 33.8915 1489.59 37.879C1488.87 41.8664 1489.04 41.3627 1484.86 41.5725ZM1493.81 41.5725C1490.92 39.6838 1494.1 37.0815 1495.57 40.4813C1495.57 41.6565 1494.86 41.4466 1493.81 41.5725ZM1790.14 41.3207C1787.67 38.2147 1797.25 36.7877 1796.92 40.7751C1794.66 40.943 1792.4 41.1108 1790.14 41.3207ZM314.512 38.6764C313.132 37.6691 311.751 36.6198 310.329 35.6124C307.442 30.1979 320.746 36.7457 314.512 38.6764ZM403.96 38.6764C400.571 35.9902 394.965 33.22 402.035 32.4645C404.001 31.4152 411.407 31.7929 411.407 33.7656C408.896 36.5778 407.934 38.2987 403.96 38.6764ZM1445.45 38.6764C1442.81 34.8569 1449.72 35.5285 1446.62 38.5085C1446.24 38.5505 1445.82 38.6345 1445.45 38.6764ZM450.691 37.1234C450.691 36.6617 450.65 36.1581 450.608 35.6964C451.403 35.6964 451.277 36.9136 450.691 37.1234ZM428.434 36.326C424.334 34.689 422.661 32.0028 417.849 33.262C408.938 33.262 416.804 29.0647 421.113 29.0647C430.108 34.731 425.547 31.4152 433.371 31.4152C440.358 36.326 432.325 36.2 428.476 36.284L428.434 36.326ZM261.505 36.0741C259.622 35.2766 257.572 34.773 257.572 32.5484C260.417 30.7436 267.99 33.178 261.505 36.0741ZM333.255 36.0741C330.285 35.7383 326.938 34.2273 331.624 33.7237C331.624 28.3092 316.269 35.2766 316.269 30.072C321.75 22.1392 325.097 28.8968 331.916 26.2525C334.427 26.2525 353.588 29.4424 346.308 34.3952C343.254 34.3952 339.363 32.7583 337.397 35.3606C336.016 35.5705 334.636 35.8223 333.255 36.0741ZM823.166 35.3186C819.944 33.3459 826.345 30.7856 824.379 34.8989C824.002 35.0248 823.584 35.1927 823.166 35.3186ZM284.892 32.6743C283.009 32.4645 281.085 32.2546 279.16 32.0028C275.395 30.6177 266.316 33.9755 266.86 29.6943C268.701 29.0227 289.285 24.5316 289.285 31.9188C287.946 32.8422 286.523 32.5904 284.892 32.6743ZM1500.13 30.8275C1498.96 27.7216 1483.18 28.1413 1481.3 28.0573C1474.98 26.4204 1475.86 22.0553 1470.22 24.6156C1465.91 24.6156 1462.1 25.2032 1458.63 22.433C1458.75 19.6208 1464.48 21.8034 1466.78 20.5442C1466.78 18.1518 1466.78 16.1371 1469.34 14.9199C1474.19 15.1298 1496.2 11.6041 1496.7 18.5295C1494.31 22.2651 1497.41 20.4603 1500.13 20.4603C1504.35 22.8947 1506.07 23.944 1506.36 28.4771C1504.35 29.1067 1501.13 28.6869 1500.13 30.8275ZM431.446 27.6796C429.187 26.0007 422.912 22.7268 429.564 23.5663C432.116 24.7835 436.843 27.6796 431.446 27.6796ZM1373.45 25.8328C1372.07 25.539 1369.93 25.4131 1369.81 23.6922C1371.27 21.9713 1382.36 23.2305 1377.3 25.6649C1376.04 25.6649 1374.74 25.7488 1373.45 25.8328ZM349.362 24.4897C347.94 23.6082 346.559 22.7268 345.095 21.8454C341.539 16.0112 354.718 23.1046 349.362 24.4897ZM417.849 23.4403C416.134 21.4257 417.598 18.9493 414.335 18.8234C410.444 20.4603 393.124 17.858 393.124 14.2064C398.981 14.0804 405.884 15.3396 411.616 16.4309C413.624 16.4309 424.46 14.71 424.46 17.1864C419.314 20.1245 423.121 22.9786 417.849 23.3984V23.4403ZM1218.73 23.4403C1211.62 18.6135 1228.98 20.0406 1225.26 23.0206C1223.08 23.1465 1220.91 23.2725 1218.73 23.4403ZM1268.77 23.4403C1263.96 22.7268 1263.37 20.964 1268.77 20.4183C1273.33 17.6481 1265.88 17.2704 1264.09 18.8653C1262.96 24.9514 1259.98 20.6702 1256.26 20.6702C1251.49 22.1812 1252.08 22.6009 1250.07 19.1172C1247.6 18.4456 1240.57 19.8307 1240.36 16.8087C1243.92 11.8139 1253.42 14.5841 1258.14 12.1917C1263.08 11.8559 1267.68 9.8412 1272.83 9.8412C1277.14 14.0385 1259.69 12.6534 1267.39 15.3816C1272.62 15.8013 1271.82 17.0605 1277.18 14.3323C1280.82 14.3323 1284.38 15.5495 1285.34 11.6041C1287.43 10.6387 1298.22 9.71528 1298.52 12.1077C1295 16.6408 1307.64 12.0238 1308.31 16.8506C1306.47 19.5369 1286.76 19.7887 1290.99 15.4655C1291.61 15.4236 1292.28 15.3396 1292.95 15.2557C1292.95 11.0584 1283.75 16.305 1281.28 17.2284C1273.54 17.6901 1275.13 21.0059 1268.77 23.4403ZM1200.53 22.1392C1197.65 21.1738 1187.36 19.9146 1187.36 17.9419C1188.15 16.4729 1203.04 14.5002 1206.56 16.4729C1209.24 16.8506 1210.74 16.0532 1210.62 18.7394C1204.3 19.327 1204.93 21.9293 1200.53 22.1392ZM1231.24 21.8874C1227.02 19.6628 1232.83 18.3617 1234.8 18.0678C1238.19 19.7048 1232.33 21.5935 1231.24 21.8874ZM536.917 17.9419C536.917 16.5568 538.382 16.221 538.8 17.3963C538.27 17.6481 537.643 17.83 536.917 17.9419ZM539.93 17.3963C539.93 14.71 547 14.3323 547 16.347C544.573 16.8926 542.44 17.2704 539.93 17.3963ZM1387.59 17.3963C1386.21 15.9272 1387.04 15.4236 1388.76 15.4236C1388.76 16.6827 1389.01 17.1025 1387.59 17.3963ZM470.606 17.1444C466.673 15.4655 478.806 14.1224 479.057 14.1224C483.45 16.221 472.154 16.6827 470.606 17.1444ZM783.797 12.1497C776.81 10.9325 780.408 9.58936 784.676 10.219C784.676 11.4362 784.885 11.6041 783.797 12.1497ZM742.462 11.1004V9.50542H748.738V11.1004H742.462Z" fill="#F7F7F7"/>
</svg>
