<svg width="16" height="26" viewBox="0 0 16 26" fill="none" xmlns="http://www.w3.org/2000/svg">
<path d="M12.9903 0.501465H3.27783C2.55677 0.501465 1.86525 0.787904 1.35539 1.29777C0.845521 1.80763 0.559082 2.49916 0.559082 3.22021V22.3077C0.559082 23.0288 0.845521 23.7203 1.35539 24.2302C1.86525 24.74 2.55677 25.0265 3.27783 25.0265H12.9903C13.7114 25.0265 14.4029 24.74 14.9128 24.2302C15.4226 23.7203 15.7091 23.0288 15.7091 22.3077V3.22021C15.7091 2.49916 15.4226 1.80763 14.9128 1.29777C14.4029 0.787904 13.7114 0.501465 12.9903 0.501465ZM13.6841 22.3077C13.6841 22.4917 13.611 22.6682 13.4809 22.7983C13.3508 22.9284 13.1743 23.0015 12.9903 23.0015H3.27783C3.09384 23.0015 2.91738 22.9284 2.78728 22.7983C2.65717 22.6682 2.58408 22.4917 2.58408 22.3077V3.22021C2.58408 3.03622 2.65717 2.85976 2.78728 2.72966C2.91738 2.59956 3.09384 2.52646 3.27783 2.52646H12.9903C13.1743 2.52646 13.3508 2.59956 13.4809 2.72966C13.611 2.85976 13.6841 3.03622 13.6841 3.22021V22.3077Z" fill="black"/>
</svg>
