<svg width="24" height="25" viewBox="0 0 24 25" fill="none" xmlns="http://www.w3.org/2000/svg">
<path d="M19.875 21.7922C17.8417 21.7922 15.8208 21.2922 13.8125 20.2922C11.8042 19.2922 10 17.9922 8.4 16.3922C6.8 14.7922 5.5 12.9881 4.5 10.9797C3.5 8.9714 3 6.95057 3 4.91724C3 4.60057 3.10833 4.3339 3.325 4.11724C3.54167 3.90057 3.80833 3.79224 4.125 3.79224H7.625C7.85833 3.79224 8.0625 3.8714 8.2375 4.02974C8.4125 4.18807 8.525 4.40057 8.575 4.66724L9.25 7.81724C9.28333 8.05057 9.27917 8.26307 9.2375 8.45474C9.19583 8.6464 9.10833 8.8089 8.975 8.94224L6.475 11.4672C7.40833 13.0172 8.45417 14.3672 9.6125 15.5172C10.7708 16.6672 12.0833 17.6422 13.55 18.4422L15.925 15.9922C16.0917 15.8089 16.2833 15.6797 16.5 15.6047C16.7167 15.5297 16.9333 15.5172 17.15 15.5672L20.125 16.2172C20.375 16.2672 20.5833 16.3922 20.75 16.5922C20.9167 16.7922 21 17.0256 21 17.2922V20.6672C21 20.9839 20.8917 21.2506 20.675 21.4672C20.4583 21.6839 20.1917 21.7922 19.875 21.7922ZM5.725 10.0922L7.75 8.04224L7.175 5.29224H4.5C4.5 5.94224 4.6 6.65474 4.8 7.42974C5 8.20474 5.30833 9.09224 5.725 10.0922ZM14.95 19.1672C15.6333 19.4839 16.375 19.7422 17.175 19.9422C17.975 20.1422 18.75 20.2589 19.5 20.2922V17.6172L16.925 17.0922L14.95 19.1672Z" fill="#323232"/>
</svg>
