<svg width="101" height="80" viewBox="0 0 101 80" fill="none" xmlns="http://www.w3.org/2000/svg">
<rect x="0.367188" width="100" height="80" rx="5" fill="#F6F5F9"/>
<path fill-rule="evenodd" clip-rule="evenodd" d="M66.7981 50.2566H53.8884V37.347H66.7981V50.2566Z" fill="#FFD24F"/>
<path fill-rule="evenodd" clip-rule="evenodd" d="M66.7995 50.2532H53.8899L47.7947 57.1145H60.7043L66.7995 50.2532Z" fill="#EE3224"/>
<path fill-rule="evenodd" clip-rule="evenodd" d="M47.8322 57.0711L53.8872 50.26V37.347L47.792 44.2083C38.0571 44.2083 42.299 44.1715 32.5808 44.1715V42.375C32.5808 40.3946 31.6441 40.6756 30.5736 41.7327L23.6922 48.6375C23.1574 49.1753 22.8572 49.903 22.8572 50.6614C22.8572 51.4199 23.1574 52.1475 23.6922 52.6854L30.5836 59.5901C31.6641 60.6707 32.5908 60.9283 32.5908 58.9211V57.1514C42.3257 57.1514 38.0571 57.1179 47.8422 57.1179V57.0711H47.8322Z" fill="#231F20"/>
<path fill-rule="evenodd" clip-rule="evenodd" d="M33.9275 29.7376H46.8371V42.6473H33.9275V29.7376Z" fill="#FFD24F"/>
<path fill-rule="evenodd" clip-rule="evenodd" d="M33.9275 29.7362H46.8371L52.9324 22.8782H40.0227L33.9275 29.7362Z" fill="#EE3224"/>
<path fill-rule="evenodd" clip-rule="evenodd" d="M52.8955 22.929L46.8337 29.7367V42.6464L52.9289 35.7884C62.6672 35.7884 58.4253 35.8252 68.1435 35.8252V37.6217C68.1435 39.6021 69.0802 39.3211 70.1507 38.264L77.0421 31.3626C77.577 30.8247 77.8772 30.0971 77.8772 29.3386C77.8772 28.5802 77.577 27.8525 77.0421 27.3147L70.1374 20.4099C69.0568 19.3294 68.1302 19.0718 68.1302 21.079V22.8453C58.3986 22.8453 62.6672 22.8788 52.8788 22.8788V22.929H52.8955Z" fill="#231F20"/>
</svg>
