<svg width="64" height="64" viewBox="0 0 64 64" fill="none" xmlns="http://www.w3.org/2000/svg">
<path d="M32.8198 36.03C40.2757 36.03 46.3198 29.9859 46.3198 22.53C46.3198 15.0742 40.2757 9.03003 32.8198 9.03003C25.364 9.03003 19.3198 15.0742 19.3198 22.53C19.3198 29.9859 25.364 36.03 32.8198 36.03Z" fill="#FFD24F"/>
<path d="M17.3202 18.52C18.6291 18.52 19.6902 17.4589 19.6902 16.15C19.6902 14.8411 18.6291 13.78 17.3202 13.78C16.0113 13.78 14.9502 14.8411 14.9502 16.15C14.9502 17.4589 16.0113 18.52 17.3202 18.52Z" stroke="#323232" stroke-width="2" stroke-linecap="round" stroke-linejoin="round"/>
<path d="M24.42 16C24.42 20.27 17.32 26.84 17.32 26.84C17.32 26.84 10.23 20.23 10.23 16C10.2337 15.0784 10.421 14.1667 10.7809 13.3183C11.1408 12.4699 11.6661 11.7016 12.3261 11.0584C12.9861 10.4151 13.7676 9.90976 14.625 9.5718C15.4824 9.23385 16.3986 9.07005 17.32 9.08998C18.2422 9.06871 19.1594 9.2315 20.018 9.56885C20.8766 9.9062 21.6593 10.4113 22.3204 11.0547C22.9814 11.6981 23.5076 12.4668 23.8681 13.3159C24.2286 14.165 24.4162 15.0775 24.42 16Z" stroke="#323232" stroke-width="2" stroke-linecap="round" stroke-linejoin="round"/>
<path d="M48.1299 46.81C49.7647 46.81 51.0899 45.4848 51.0899 43.85C51.0899 42.2153 49.7647 40.89 48.1299 40.89C46.4952 40.89 45.1699 42.2153 45.1699 43.85C45.1699 45.4848 46.4952 46.81 48.1299 46.81Z" stroke="#323232" stroke-width="2" stroke-linecap="round" stroke-linejoin="round"/>
<path d="M56.9998 43.62C56.9998 48.95 48.1298 57.16 48.1298 57.16C48.1298 57.16 39.2598 49 39.2598 43.62C39.2598 41.2675 40.1943 39.0114 41.8577 37.348C43.5212 35.6845 45.7773 34.75 48.1298 34.75C50.4822 34.75 52.7384 35.6845 54.4018 37.348C56.0653 39.0114 56.9998 41.2675 56.9998 43.62V43.62Z" stroke="#323232" stroke-width="2" stroke-linecap="round" stroke-linejoin="round"/>
<path d="M30.5998 15.72C56.4998 7.53001 61.3598 21.32 35.4598 29.51L31.2598 31.22C2.63984 40.27 7.65983 56.13 36.2598 47.08" stroke="#323232" stroke-width="2" stroke-linecap="round" stroke-linejoin="round" stroke-dasharray="5.38 5.38"/>
</svg>
