<svg width="64" height="64" viewBox="0 0 64 64" fill="none" xmlns="http://www.w3.org/2000/svg">
<path d="M44.1201 57.87C51.576 57.87 57.6201 51.8258 57.6201 44.37C57.6201 36.9141 51.576 30.87 44.1201 30.87C36.6643 30.87 30.6201 36.9141 30.6201 44.37C30.6201 51.8258 36.6643 57.87 44.1201 57.87Z" fill="#FFD24F"/>
<path d="M30.8302 32.01H19.9302V36.58H30.8302V32.01Z" stroke="#323232" stroke-width="2" stroke-linecap="round" stroke-linejoin="round"/>
<path d="M37.0497 18.75V26.32L31.9997 24.54L26.9497 26.32V18.75" stroke="#323232" stroke-width="2" stroke-linecap="round" stroke-linejoin="round"/>
<path d="M38.3098 18.75H49.6598V50.29H14.3398V18.75H26.9498" stroke="#323232" stroke-width="2" stroke-linecap="round" stroke-linejoin="round"/>
<path d="M14.3398 18.75L19.3898 13.71H45.8798L49.6598 18.75" stroke="#323232" stroke-width="2" stroke-linecap="round" stroke-linejoin="round"/>
<path d="M28.2197 13.71L26.9497 18.75" stroke="#323232" stroke-width="2" stroke-linecap="round" stroke-linejoin="round"/>
<path d="M37.0498 18.75L35.7798 13.71" stroke="#323232" stroke-width="2" stroke-linecap="round" stroke-linejoin="round"/>
<path d="M19.9302 44.98H23.7402" stroke="#323232" stroke-width="2" stroke-linecap="round" stroke-linejoin="round"/>
<path d="M19.9302 41.13H26.3102" stroke="#323232" stroke-width="2" stroke-linecap="round" stroke-linejoin="round"/>
</svg>
