<svg width="457" height="344" viewBox="0 0 457 344" fill="none" xmlns="http://www.w3.org/2000/svg">
<path d="M497.887 41.4576C434.211 122.349 245.602 287.772 0.580112 302.329" stroke="url(#paint0_linear_3196_14806)" stroke-dasharray="5 10"/>
<path fill-rule="evenodd" clip-rule="evenodd" d="M305.982 210.619C308.348 210.014 307.934 210.343 309.145 206.121C310.224 202.439 308.937 203.674 312.366 201.971C315.372 200.441 319.56 197.366 321.965 196.21C323.067 197.882 324.22 207.314 325.364 210.171L327.133 209.095C328.186 208.454 328.03 208.703 328.16 207.183C328.342 203.894 328.944 193.473 329.361 191.557C331.595 190.122 337.689 186.569 338.84 184.735C339.343 183.824 340.017 182.204 338.761 181.758C335.653 180.777 331.062 184.549 327.704 186.745C326.32 187.587 326.623 187.326 325.058 186.769C323.376 186.131 311.416 181.229 310.588 181.357C310.279 181.468 308.432 182.669 308.102 182.87C308.935 183.726 309.926 184.478 310.921 185.237L316.618 189.705C317.545 190.351 318.639 191.271 319.459 191.982C317.824 192.9 316.251 193.933 314.593 194.942C306.412 199.918 309.658 200.134 304.583 199.292C301.786 198.803 300.52 197.98 299.44 200.307C303.98 202.761 305.949 205.722 305.988 210.615L305.982 210.619Z" fill="#EE3224"/>
<path d="M493.484 42.1426C437.151 128.309 255.784 223.643 12.9844 259.643" stroke="url(#paint1_linear_3196_14806)" stroke-dasharray="5 10"/>
<defs>
<linearGradient id="paint0_linear_3196_14806" x1="170.015" y1="284.132" x2="116.494" y2="284.417" gradientUnits="userSpaceOnUse">
<stop stop-color="#828282"/>
<stop offset="1" stop-color="#828282" stop-opacity="0"/>
</linearGradient>
<linearGradient id="paint1_linear_3196_14806" x1="183" y1="235.998" x2="77" y2="238.998" gradientUnits="userSpaceOnUse">
<stop stop-color="#828282"/>
<stop offset="1" stop-color="#828282" stop-opacity="0"/>
</linearGradient>
</defs>
</svg>
