<svg width="427" height="315" viewBox="0 0 427 315" fill="none" xmlns="http://www.w3.org/2000/svg">
<path d="M-73 314.5C-16.6667 228.333 183.7 37 426.5 1" stroke="url(#paint0_linear_3196_14801)" stroke-dasharray="5 10"/>
<g clip-path="url(#clip0_3196_14801)">
<path fill-rule="evenodd" clip-rule="evenodd" d="M97.537 147.993C100.289 147.288 99.8074 147.671 101.215 142.743C102.471 138.446 100.973 139.887 104.962 137.899C108.457 136.113 113.328 132.523 116.125 131.173C117.407 133.126 118.747 144.135 120.077 147.471L122.135 146.215C123.36 145.467 123.179 145.757 123.329 143.983C123.541 140.144 124.241 127.979 124.726 125.743C127.324 124.067 134.41 119.919 135.75 117.779C136.334 116.716 137.119 114.824 135.657 114.304C132.043 113.158 126.704 117.562 122.798 120.126C121.19 121.108 121.541 120.804 119.722 120.154C117.765 119.409 103.856 113.686 102.893 113.836C102.535 113.966 100.386 115.367 100.002 115.602C100.971 116.602 102.124 117.479 103.281 118.365L109.907 123.58C110.984 124.335 112.257 125.408 113.211 126.238C111.309 127.31 109.479 128.516 107.552 129.693C98.0375 135.502 101.812 135.754 95.9103 134.772C92.6574 134.201 91.1852 133.24 89.9292 135.957C95.2092 138.821 97.4986 142.277 97.5442 147.989L97.537 147.993Z" fill="#EE3224"/>
</g>
<path d="M-77.9371 306.333C-25.2431 217.893 151.994 115.086 393.083 68.9998" stroke="url(#paint1_linear_3196_14801)" stroke-dasharray="5 10"/>
<defs>
<linearGradient id="paint0_linear_3196_14801" x1="299" y1="32" x2="426" y2="1" gradientUnits="userSpaceOnUse">
<stop stop-color="#828282"/>
<stop offset="1" stop-color="#828282" stop-opacity="0"/>
</linearGradient>
<linearGradient id="paint1_linear_3196_14801" x1="293" y1="94.998" x2="402" y2="68.998" gradientUnits="userSpaceOnUse">
<stop stop-color="#828282"/>
<stop offset="1" stop-color="#828282" stop-opacity="0"/>
</linearGradient>
<clipPath id="clip0_3196_14801">
<rect width="59.62" height="44.4" fill="white" transform="translate(78 125.068) rotate(-31.4065)"/>
</clipPath>
</defs>
</svg>
