<svg width="28" height="25" viewBox="0 0 28 25" fill="none" xmlns="http://www.w3.org/2000/svg">
<path d="M9.00008 24.7922V22.1256H2.66675C2.13341 22.1256 1.66675 21.9256 1.26675 21.5256C0.866748 21.1256 0.666748 20.6589 0.666748 20.1256V2.79224C0.666748 2.2589 0.866748 1.79224 1.26675 1.39224C1.66675 0.992236 2.13341 0.792236 2.66675 0.792236H25.3334C25.8667 0.792236 26.3334 0.992236 26.7334 1.39224C27.1334 1.79224 27.3334 2.2589 27.3334 2.79224V20.1256C27.3334 20.6589 27.1334 21.1256 26.7334 21.5256C26.3334 21.9256 25.8667 22.1256 25.3334 22.1256H19.0001V24.7922H9.00008ZM2.66675 20.1256H25.3334V2.79224H2.66675V20.1256ZM2.66675 20.1256V2.79224V20.1256Z" fill="#D01D10"/>
</svg>
