<svg width="24" height="25" viewBox="0 0 24 25" fill="none" xmlns="http://www.w3.org/2000/svg">
<path d="M12 12.7672C10.9 12.7672 10 12.4172 9.3 11.7172C8.6 11.0172 8.25 10.1172 8.25 9.01721C8.25 7.91721 8.6 7.01721 9.3 6.31721C10 5.61721 10.9 5.26721 12 5.26721C13.1 5.26721 14 5.61721 14.7 6.31721C15.4 7.01721 15.75 7.91721 15.75 9.01721C15.75 10.1172 15.4 11.0172 14.7 11.7172C14 12.4172 13.1 12.7672 12 12.7672ZM4 20.7922V18.4422C4 17.8089 4.15833 17.2672 4.475 16.8172C4.79167 16.3672 5.2 16.0255 5.7 15.7922C6.81667 15.2922 7.8875 14.9172 8.9125 14.6672C9.9375 14.4172 10.9667 14.2922 12 14.2922C13.0333 14.2922 14.0583 14.4214 15.075 14.6797C16.0917 14.938 17.1583 15.3089 18.275 15.7922C18.7917 16.0255 19.2083 16.3672 19.525 16.8172C19.8417 17.2672 20 17.8089 20 18.4422V20.7922H4ZM5.5 19.2922H18.5V18.4422C18.5 18.1755 18.4208 17.9214 18.2625 17.6797C18.1042 17.438 17.9083 17.2589 17.675 17.1422C16.6083 16.6255 15.6333 16.2714 14.75 16.0797C13.8667 15.888 12.95 15.7922 12 15.7922C11.05 15.7922 10.125 15.888 9.225 16.0797C8.325 16.2714 7.35 16.6255 6.3 17.1422C6.06667 17.2589 5.875 17.438 5.725 17.6797C5.575 17.9214 5.5 18.1755 5.5 18.4422V19.2922ZM12 11.2672C12.65 11.2672 13.1875 11.0547 13.6125 10.6297C14.0375 10.2047 14.25 9.66721 14.25 9.01721C14.25 8.36721 14.0375 7.82971 13.6125 7.40471C13.1875 6.97971 12.65 6.76721 12 6.76721C11.35 6.76721 10.8125 6.97971 10.3875 7.40471C9.9625 7.82971 9.75 8.36721 9.75 9.01721C9.75 9.66721 9.9625 10.2047 10.3875 10.6297C10.8125 11.0547 11.35 11.2672 12 11.2672Z" fill="#544A4D"/>
</svg>
